Cabin-BoldItalic.ufo
<glyph name="exclam" format="2">
  <advance width="418"/>
  <unicode hex="0021"/>
  <outline>
    <contour>
      <point x="90" y="414" type="line"/>
      <point x="294" y="414" type="line"/>
      <point x="304" y="472" type="line"/>
      <point x="490" y="1400" type="line"/>
      <point x="242" y="1400" type="line"/>
      <point x="100" y="472" type="line"/>
    </contour>
    <contour>
      <point x="-12" y="0" type="line"/>
      <point x="248" y="0" type="line"/>
      <point x="296" y="272" type="line"/>
      <point x="36" y="272" type="line"/>
    </contour>
  </outline>
</glyph>
<glyph name="numbersign" format="2">
  <advance width="1376"/>
  <unicode hex="0023"/>
  <outline>
    <contour>
      <point x="22" y="-22" type="line"/>
      <point x="206" y="-22" type="line"/>
      <point x="450" y="422" type="line"/>
      <point x="658" y="422" type="line"/>
      <point x="420" y="-22" type="line"/>
      <point x="608" y="-22" type="line"/>
      <point x="848" y="422" type="line"/>
      <point x="1070" y="422" type="line"/>
      <point x="1202" y="630" type="line"/>
      <point x="962" y="630" type="line"/>
      <point x="1066" y="828" type="line"/>
      <point x="1284" y="828" type="line"/>
      <point x="1386" y="1024" type="line"/>
      <point x="1174" y="1024" type="line"/>
      <point x="1378" y="1400" type="line"/>
      <point x="1192" y="1400" type="line"/>
      <point x="988" y="1024" type="line"/>
      <point x="776" y="1024" type="line"/>
      <point x="980" y="1400" type="line"/>
      <point x="794" y="1400" type="line"/>
      <point x="586" y="1024" type="line"/>
      <point x="346" y="1024" type="line"/>
      <point x="248" y="828" type="line"/>
      <point x="480" y="828" type="line"/>
      <point x="376" y="630" type="line"/>
      <point x="162" y="630" type="line"/>
      <point x="36" y="422" type="line"/>
      <point x="260" y="422" type="line"/>
    </contour>
    <contour>
      <point x="560" y="630" type="line"/>
      <point x="668" y="828" type="line"/>
      <point x="882" y="828" type="line"/>
      <point x="774" y="630" type="line"/>
    </contour>
  </outline>
</glyph>
<glyph name="dollar" format="2">
  <advance width="1136"/>
  <unicode hex="0024"/>
  <anchor x="458" y="0" name="bottom"/>
  <anchor x="687" y="1400" name="top"/>
  <outline>
    <contour>
      <point x="544" y="68" type="line"/>
      <point x="388" y="68" type="line"/>
      <point x="306" y="-288" type="line"/>
      <point x="502" y="-288" type="line"/>
    </contour>
    <contour>
      <point x="652" y="1346" type="line"/>
      <point x="808" y="1346" type="line"/>
      <point x="888" y="1688" type="line"/>
      <point x="692" y="1688" type="line"/>
    </contour>
    <component base="S" xOffset="-30"/>
  </outline>
</glyph>
<glyph name="ampersand" format="2">
  <advance width="1210"/>
  <unicode hex="0026"/>
  <outline>
    <contour>
      <point x="406" y="-48" type="curve" smooth="yes"/>
      <point x="560" y="-48"/>
      <point x="684" y="-2"/>
      <point x="776" y="68" type="curve"/>
      <point x="820" y="0" type="line"/>
      <point x="1112" y="0" type="line"/>
      <point x="948" y="240" type="line"/>
      <point x="1054" y="400"/>
      <point x="1100" y="590"/>
      <point x="1118" y="704" type="curve"/>
      <point x="878" y="704" type="line"/>
      <point x="862" y="618"/>
      <point x="846" y="516"/>
      <point x="818" y="422" type="curve"/>
      <point x="622" y="742" type="line"/>
      <point x="774" y="842"/>
      <point x="960" y="958"/>
      <point x="960" y="1166" type="curve" smooth="yes"/>
      <point x="960" y="1314"/>
      <point x="866" y="1406"/>
      <point x="692" y="1406" type="curve" smooth="yes"/>
      <point x="474" y="1406"/>
      <point x="238" y="1264"/>
      <point x="238" y="1026" type="curve" smooth="yes"/>
      <point x="238" y="922"/>
      <point x="282" y="818"/>
      <point x="328" y="734" type="curve"/>
      <point x="176" y="626"/>
      <point x="18" y="492"/>
      <point x="18" y="280" type="curve" smooth="yes"/>
      <point x="18" y="100"/>
      <point x="132" y="-48"/>
    </contour>
    <contour>
      <point x="474" y="142" type="curve" smooth="yes"/>
      <point x="322" y="142"/>
      <point x="284" y="226"/>
      <point x="284" y="316" type="curve" smooth="yes"/>
      <point x="284" y="426"/>
      <point x="340" y="516"/>
      <point x="422" y="600" type="curve"/>
      <point x="676" y="210" type="line"/>
      <point x="624" y="168"/>
      <point x="558" y="142"/>
    </contour>
    <contour>
      <point x="540" y="864" type="curve"/>
      <point x="506" y="928"/>
      <point x="486" y="982"/>
      <point x="486" y="1038" type="curve" smooth="yes"/>
      <point x="486" y="1148"/>
      <point x="560" y="1208"/>
      <point x="648" y="1208" type="curve"/>
      <point x="702" y="1208"/>
      <point x="734" y="1186"/>
      <point x="734" y="1120" type="curve" smooth="yes"/>
      <point x="734" y="1012"/>
      <point x="646" y="940"/>
    </contour>
  </outline>
</glyph>
<glyph name="quotesingle" format="2">
  <advance width="340"/>
  <unicode hex="0027"/>
  <outline>
    <contour>
      <point x="120" y="1000" type="line"/>
      <point x="288" y="1000" type="line"/>
      <point x="400" y="1400" type="line"/>
      <point x="152" y="1400" type="line"/>
    </contour>
  </outline>
</glyph>
<glyph name="parenleft" format="2">
  <advance width="662"/>
  <unicode hex="0028"/>
  <outline>
    <contour>
      <point x="238" y="-272" type="curve"/>
      <point x="450" y="-272" type="line"/>
      <point x="388" y="-120"/>
      <point x="342" y="58"/>
      <point x="342" y="284" type="curve" smooth="yes"/>
      <point x="342" y="706"/>
      <point x="494" y="1148"/>
      <point x="762" y="1500" type="curve"/>
      <point x="540" y="1500" type="line"/>
      <point x="266" y="1160"/>
      <point x="100" y="776"/>
      <point x="100" y="324" type="curve" smooth="yes"/>
      <point x="98" y="76"/>
      <point x="162" y="-112"/>
    </contour>
  </outline>
</glyph>
<glyph name="asterisk" format="2">
  <advance width="854"/>
  <unicode hex="002A"/>
  <outline>
    <contour>
      <point x="92" y="974" type="line"/>
      <point x="154" y="848" type="line"/>
      <point x="412" y="1006" type="line"/>
      <point x="348" y="724" type="line"/>
      <point x="498" y="724" type="line"/>
      <point x="538" y="1008" type="line"/>
      <point x="748" y="842" type="line"/>
      <point x="852" y="966" type="line"/>
      <point x="616" y="1118" type="line"/>
      <point x="894" y="1270" type="line"/>
      <point x="834" y="1396" type="line"/>
      <point x="580" y="1238" type="line"/>
      <point x="638" y="1510" type="line"/>
      <point x="488" y="1510" type="line"/>
      <point x="450" y="1236" type="line"/>
      <point x="252" y="1396" type="line"/>
      <point x="146" y="1272" type="line"/>
      <point x="374" y="1124" type="line"/>
    </contour>
  </outline>
</glyph>
<glyph name="plus" format="2">
  <advance width="860"/>
  <unicode hex="002B"/>
  <outline>
    <contour>
      <point x="220" y="192" type="line"/>
      <point x="424" y="192" type="line"/>
      <point x="472" y="460" type="line"/>
      <point x="728" y="460" type="line"/>
      <point x="760" y="648" type="line"/>
      <point x="504" y="648" type="line"/>
      <point x="552" y="916" type="line"/>
      <point x="348" y="916" type="line"/>
      <point x="300" y="648" type="line"/>
      <point x="44" y="648" type="line"/>
      <point x="12" y="460" type="line"/>
      <point x="268" y="460" type="line"/>
    </contour>
  </outline>
</glyph>
<glyph name="comma" format="2">
  <advance width="400"/>
  <unicode hex="002C"/>
  <outline>
    <contour>
      <point x="60" y="-240" type="line"/>
      <point x="236" y="24" type="line"/>
      <point x="280" y="272" type="line"/>
      <point x="20" y="272" type="line"/>
      <point x="-28" y="0" type="line"/>
      <point x="74" y="0" type="line"/>
      <point x="-56" y="-240" type="line"/>
    </contour>
  </outline>
</glyph>
<glyph name="hyphen" format="2">
  <advance width="818"/>
  <unicode hex="002D"/>
  <outline>
    <contour>
      <point x="88" y="528" type="line"/>
      <point x="684" y="528" type="line"/>
      <point x="718" y="716" type="line"/>
      <point x="124" y="716" type="line"/>
    </contour>
  </outline>
</glyph>
<glyph name="period" format="2">
  <advance width="400"/>
  <unicode hex="002E"/>
  <outline>
    <contour>
      <point x="-28" y="0" type="line"/>
      <point x="232" y="0" type="line"/>
      <point x="280" y="272" type="line"/>
      <point x="20" y="272" type="line"/>
    </contour>
  </outline>
</glyph>
<glyph name="slash" format="2">
  <advance width="702"/>
  <unicode hex="002F"/>
  <outline>
    <contour>
      <point x="-80" y="-170" type="line"/>
      <point x="178" y="-170" type="line"/>
      <point x="982" y="1400" type="line"/>
      <point x="724" y="1400" type="line"/>
    </contour>
  </outline>
</glyph>
<glyph name="zero" format="2">
  <advance width="1382"/>
  <unicode hex="0030"/>
  <outline>
    <contour>
      <point x="542" y="-28" type="curve" smooth="yes"/>
      <point x="976" y="-28"/>
      <point x="1266" y="428"/>
      <point x="1266" y="892" type="curve" smooth="yes"/>
      <point x="1266" y="1216"/>
      <point x="1094" y="1428"/>
      <point x="798" y="1428" type="curve" smooth="yes"/>
      <point x="362" y="1428"/>
      <point x="76" y="984"/>
      <point x="76" y="520" type="curve" smooth="yes"/>
      <point x="76" y="184"/>
      <point x="250" y="-28"/>
    </contour>
    <contour>
      <point x="582" y="202" type="curve" smooth="yes"/>
      <point x="434" y="202"/>
      <point x="332" y="302"/>
      <point x="332" y="532" type="curve" smooth="yes"/>
      <point x="332" y="840"/>
      <point x="472" y="1202"/>
      <point x="758" y="1202" type="curve" smooth="yes"/>
      <point x="906" y="1202"/>
      <point x="1008" y="1096"/>
      <point x="1008" y="874" type="curve" smooth="yes"/>
      <point x="1008" y="578"/>
      <point x="864" y="202"/>
    </contour>
  </outline>
</glyph>
<glyph name="one" format="2">
  <advance width="726"/>
  <unicode hex="0031"/>
  <outline>
    <contour>
      <point x="134" y="0" type="line"/>
      <point x="390" y="0" type="line"/>
      <point x="638" y="1400" type="line"/>
      <point x="442" y="1400" type="line"/>
      <point x="386" y="1304"/>
      <point x="234" y="1200"/>
      <point x="144" y="1182" type="curve"/>
      <point x="128" y="966" type="line"/>
      <point x="198" y="978"/>
      <point x="260" y="1004"/>
      <point x="318" y="1038" type="curve"/>
    </contour>
  </outline>
</glyph>
<glyph name="two" format="2">
  <advance width="1040"/>
  <unicode hex="0032"/>
  <outline>
    <contour>
      <point x="-60" y="0" type="line"/>
      <point x="808" y="0" type="line"/>
      <point x="850" y="240" type="line"/>
      <point x="398" y="240" type="line"/>
      <point x="566" y="434" type="line" smooth="yes"/>
      <point x="792" y="694"/>
      <point x="940" y="882"/>
      <point x="940" y="1114" type="curve" smooth="yes"/>
      <point x="940" y="1290"/>
      <point x="836" y="1428"/>
      <point x="616" y="1428" type="curve" smooth="yes"/>
      <point x="450" y="1428"/>
      <point x="314" y="1372"/>
      <point x="182" y="1276" type="curve"/>
      <point x="168" y="1018" type="line"/>
      <point x="286" y="1114"/>
      <point x="396" y="1188"/>
      <point x="530" y="1188" type="curve" smooth="yes"/>
      <point x="626" y="1188"/>
      <point x="680" y="1128"/>
      <point x="680" y="1028" type="curve" smooth="yes"/>
      <point x="680" y="900"/>
      <point x="594" y="792"/>
      <point x="408" y="566" type="curve" smooth="yes"/>
    </contour>
  </outline>
</glyph>
<glyph name="three" format="2">
  <advance width="1048"/>
  <unicode hex="0033"/>
  <outline>
    <contour>
      <point x="360" y="-28" type="curve" smooth="yes"/>
      <point x="650" y="-28"/>
      <point x="880" y="150"/>
      <point x="880" y="430" type="curve" smooth="yes"/>
      <point x="880" y="620"/>
      <point x="774" y="738"/>
      <point x="608" y="772" type="curve"/>
      <point x="602" y="726" type="line"/>
      <point x="808" y="770"/>
      <point x="948" y="924"/>
      <point x="948" y="1110" type="curve" smooth="yes"/>
      <point x="948" y="1298"/>
      <point x="816" y="1428"/>
      <point x="582" y="1428" type="curve" smooth="yes"/>
      <point x="430" y="1428"/>
      <point x="294" y="1384"/>
      <point x="192" y="1330" type="curve"/>
      <point x="190" y="1104" type="line"/>
      <point x="300" y="1166"/>
      <point x="408" y="1208"/>
      <point x="520" y="1208" type="curve" smooth="yes"/>
      <point x="636" y="1208"/>
      <point x="700" y="1146"/>
      <point x="700" y="1054" type="curve" smooth="yes"/>
      <point x="700" y="932"/>
      <point x="594" y="850"/>
      <point x="436" y="850" type="curve" smooth="yes"/>
      <point x="316" y="850" type="line"/>
      <point x="274" y="610" type="line"/>
      <point x="398" y="610" type="line" smooth="yes"/>
      <point x="548" y="610"/>
      <point x="624" y="546"/>
      <point x="622" y="422" type="curve" smooth="yes"/>
      <point x="622" y="274"/>
      <point x="518" y="192"/>
      <point x="366" y="192" type="curve" smooth="yes"/>
      <point x="242" y="192"/>
      <point x="132" y="240"/>
      <point x="40" y="308" type="curve"/>
      <point x="-60" y="92" type="line"/>
      <point x="54" y="20"/>
      <point x="192" y="-28"/>
    </contour>
  </outline>
</glyph>
<glyph name="four" format="2">
  <advance width="1182"/>
  <unicode hex="0034"/>
  <outline>
    <contour>
      <point x="-52" y="320" type="line"/>
      <point x="646" y="320" type="line"/>
      <point x="590" y="0" type="line"/>
      <point x="828" y="0" type="line"/>
      <point x="884" y="320" type="line"/>
      <point x="1044" y="320" type="line"/>
      <point x="1082" y="528" type="line"/>
      <point x="922" y="528" type="line"/>
      <point x="1076" y="1400" type="line"/>
      <point x="902" y="1400" type="line"/>
    </contour>
    <contour>
      <point x="312" y="444" type="line"/>
      <point x="844" y="1052" type="line"/>
      <point x="788" y="1124" type="line"/>
      <point x="684" y="528" type="line"/>
      <point x="274" y="528" type="line"/>
    </contour>
  </outline>
</glyph>
<glyph name="five" format="2">
  <advance width="1014"/>
  <unicode hex="0035"/>
  <outline>
    <contour>
      <point x="324" y="-26" type="curve" smooth="yes"/>
      <point x="616" y="-26"/>
      <point x="870" y="184"/>
      <point x="870" y="496" type="curve" smooth="yes"/>
      <point x="870" y="740"/>
      <point x="714" y="880"/>
      <point x="474" y="880" type="curve" smooth="yes"/>
      <point x="400" y="880"/>
      <point x="338" y="870"/>
      <point x="278" y="852" type="curve"/>
      <point x="354" y="764" type="line"/>
      <point x="474" y="1152" type="line"/>
      <point x="914" y="1152" type="line"/>
      <point x="974" y="1400" type="line"/>
      <point x="326" y="1400" type="line"/>
      <point x="102" y="642" type="line"/>
      <point x="188" y="660"/>
      <point x="280" y="670"/>
      <point x="366" y="670" type="curve" smooth="yes"/>
      <point x="532" y="670"/>
      <point x="616" y="590"/>
      <point x="616" y="456" type="curve" smooth="yes"/>
      <point x="616" y="300"/>
      <point x="494" y="204"/>
      <point x="342" y="204" type="curve" smooth="yes"/>
      <point x="230" y="204"/>
      <point x="140" y="246"/>
      <point x="58" y="306" type="curve"/>
      <point x="-60" y="90" type="line"/>
      <point x="38" y="18"/>
      <point x="160" y="-26"/>
    </contour>
  </outline>
</glyph>
<glyph name="six" format="2">
  <advance width="1152"/>
  <unicode hex="0036"/>
  <outline>
    <contour>
      <point x="484" y="-28" type="curve" smooth="yes"/>
      <point x="784" y="-28"/>
      <point x="1010" y="190"/>
      <point x="1010" y="476" type="curve" smooth="yes"/>
      <point x="1010" y="696"/>
      <point x="870" y="842"/>
      <point x="658" y="842" type="curve" smooth="yes"/>
      <point x="474" y="842"/>
      <point x="352" y="764"/>
      <point x="264" y="650" type="curve"/>
      <point x="312" y="570" type="line"/>
      <point x="376" y="922"/>
      <point x="826" y="1184"/>
      <point x="1020" y="1268" type="curve"/>
      <point x="876" y="1428" type="line"/>
      <point x="470" y="1242"/>
      <point x="60" y="820"/>
      <point x="60" y="390" type="curve" smooth="yes"/>
      <point x="60" y="134"/>
      <point x="232" y="-28"/>
    </contour>
    <contour>
      <point x="506" y="184" type="curve" smooth="yes"/>
      <point x="400" y="184"/>
      <point x="318" y="260"/>
      <point x="316" y="364" type="curve" smooth="yes"/>
      <point x="314" y="516"/>
      <point x="430" y="630"/>
      <point x="584" y="630" type="curve" smooth="yes"/>
      <point x="692" y="630"/>
      <point x="772" y="552"/>
      <point x="772" y="446" type="curve" smooth="yes"/>
      <point x="772" y="296"/>
      <point x="658" y="184"/>
    </contour>
  </outline>
</glyph>
<glyph name="seven" format="2">
  <advance width="1036"/>
  <unicode hex="0037"/>
  <outline>
    <contour>
      <point x="40" y="0" type="line"/>
      <point x="308" y="0" type="line"/>
      <point x="1116" y="1400" type="line"/>
      <point x="220" y="1400" type="line"/>
      <point x="178" y="1160" type="line"/>
      <point x="818" y="1160" type="line"/>
      <point x="762" y="1258" type="line"/>
    </contour>
  </outline>
</glyph>
<glyph name="eight" format="2">
  <advance width="1184"/>
  <unicode hex="0038"/>
  <outline>
    <contour>
      <point x="472" y="-28" type="curve" smooth="yes"/>
      <point x="772" y="-28"/>
      <point x="1022" y="182"/>
      <point x="1022" y="478" type="curve" smooth="yes"/>
      <point x="1022" y="688"/>
      <point x="864" y="826"/>
      <point x="610" y="826" type="curve" smooth="yes"/>
      <point x="300" y="826"/>
      <point x="48" y="622"/>
      <point x="48" y="326" type="curve" smooth="yes"/>
      <point x="48" y="114"/>
      <point x="208" y="-28"/>
    </contour>
    <contour>
      <point x="498" y="192" type="curve" smooth="yes"/>
      <point x="364" y="192"/>
      <point x="290" y="262"/>
      <point x="290" y="370" type="curve" smooth="yes"/>
      <point x="290" y="528"/>
      <point x="410" y="640"/>
      <point x="578" y="640" type="curve" smooth="yes"/>
      <point x="714" y="640"/>
      <point x="786" y="562"/>
      <point x="786" y="452" type="curve" smooth="yes"/>
      <point x="786" y="302"/>
      <point x="668" y="192"/>
    </contour>
    <contour>
      <point x="618" y="866" type="curve" smooth="yes"/>
      <point x="512" y="866"/>
      <point x="456" y="930"/>
      <point x="454" y="1016" type="curve" smooth="yes"/>
      <point x="454" y="1134"/>
      <point x="546" y="1228"/>
      <point x="682" y="1228" type="curve" smooth="yes"/>
      <point x="788" y="1228"/>
      <point x="838" y="1170"/>
      <point x="838" y="1082" type="curve" smooth="yes"/>
      <point x="838" y="964"/>
      <point x="750" y="866"/>
    </contour>
    <contour>
      <point x="584" y="680" type="curve" smooth="yes"/>
      <point x="850" y="680"/>
      <point x="1064" y="860"/>
      <point x="1064" y="1122" type="curve" smooth="yes"/>
      <point x="1064" y="1286"/>
      <point x="964" y="1428"/>
      <point x="714" y="1428" type="curve" smooth="yes"/>
      <point x="444" y="1428"/>
      <point x="228" y="1242"/>
      <point x="228" y="986" type="curve" smooth="yes"/>
      <point x="230" y="802"/>
      <point x="376" y="680"/>
    </contour>
  </outline>
</glyph>
<glyph name="less" format="2">
  <advance width="854"/>
  <unicode hex="003C"/>
  <outline>
    <contour>
      <point x="24" y="450" type="line"/>
      <point x="662" y="134" type="line"/>
      <point x="696" y="336" type="line"/>
      <point x="248" y="548" type="line"/>
      <point x="772" y="762" type="line"/>
      <point x="810" y="976" type="line"/>
      <point x="60" y="658" type="line"/>
    </contour>
  </outline>
</glyph>
<glyph name="equal" format="2">
  <advance width="900"/>
  <unicode hex="003D"/>
  <outline>
    <contour>
      <point x="48" y="624" type="line"/>
      <point x="788" y="624" type="line"/>
      <point x="820" y="808" type="line"/>
      <point x="80" y="808" type="line"/>
    </contour>
    <contour>
      <point x="-8" y="300" type="line"/>
      <point x="732" y="300" type="line"/>
      <point x="764" y="484" type="line"/>
      <point x="24" y="484" type="line"/>
    </contour>
  </outline>
</glyph>
<glyph name="question" format="2">
  <advance width="954"/>
  <unicode hex="003F"/>
  <outline>
    <contour>
      <point x="206" y="414" type="line"/>
      <point x="468" y="414" type="line"/>
      <point x="472" y="446" type="line" smooth="yes"/>
      <point x="492" y="560"/>
      <point x="578" y="640"/>
      <point x="676" y="722" type="curve" smooth="yes"/>
      <point x="818" y="842"/>
      <point x="934" y="964"/>
      <point x="934" y="1140" type="curve" smooth="yes"/>
      <point x="934" y="1310"/>
      <point x="812" y="1428"/>
      <point x="592" y="1428" type="curve" smooth="yes"/>
      <point x="428" y="1428"/>
      <point x="314" y="1392"/>
      <point x="200" y="1342" type="curve"/>
      <point x="188" y="1106" type="line"/>
      <point x="286" y="1150"/>
      <point x="380" y="1182"/>
      <point x="488" y="1182" type="curve" smooth="yes"/>
      <point x="584" y="1182"/>
      <point x="642" y="1138"/>
      <point x="642" y="1060" type="curve" smooth="yes"/>
      <point x="642" y="938"/>
      <point x="544" y="862"/>
      <point x="432" y="766" type="curve" smooth="yes"/>
      <point x="330" y="680"/>
      <point x="236" y="590"/>
      <point x="208" y="434" type="curve" smooth="yes"/>
    </contour>
    <contour>
      <point x="132" y="0" type="line"/>
      <point x="392" y="0" type="line"/>
      <point x="440" y="272" type="line"/>
      <point x="180" y="272" type="line"/>
    </contour>
  </outline>
</glyph>
<glyph name="at" format="2">
  <advance width="1392"/>
  <unicode hex="0040"/>
  <outline>
    <contour>
      <point x="440" y="-174" type="curve" smooth="yes"/>
      <point x="706" y="-174"/>
      <point x="976" y="-16"/>
      <point x="1138" y="212" type="curve"/>
      <point x="1064" y="146"/>
      <point x="934" y="84"/>
      <point x="866" y="84" type="curve" smooth="yes"/>
      <point x="798" y="84"/>
      <point x="778" y="150"/>
      <point x="778" y="206" type="curve" smooth="yes"/>
      <point x="778" y="256"/>
      <point x="796" y="292"/>
      <point x="800" y="312" type="curve"/>
      <point x="690" y="162"/>
      <point x="524" y="80"/>
      <point x="414" y="80" type="curve" smooth="yes"/>
      <point x="310" y="80"/>
      <point x="272" y="160"/>
      <point x="272" y="252" type="curve" smooth="yes"/>
      <point x="272" y="538"/>
      <point x="604" y="864"/>
      <point x="866" y="864" type="curve" smooth="yes"/>
      <point x="972" y="864"/>
      <point x="1042" y="810"/>
      <point x="1080" y="758" type="curve"/>
      <point x="980" y="510"/>
      <point x="888" y="376"/>
      <point x="888" y="256" type="curve" smooth="yes"/>
      <point x="888" y="198"/>
      <point x="916" y="188"/>
      <point x="956" y="188" type="curve" smooth="yes"/>
      <point x="1200" y="188"/>
      <point x="1314" y="482"/>
      <point x="1314" y="700" type="curve" smooth="yes"/>
      <point x="1314" y="948"/>
      <point x="1172" y="1106"/>
      <point x="912" y="1106" type="curve" smooth="yes"/>
      <point x="480" y="1106"/>
      <point x="42" y="716"/>
      <point x="42" y="234" type="curve" smooth="yes"/>
      <point x="42" y="-22"/>
      <point x="188" y="-174"/>
    </contour>
    <contour>
      <point x="500" y="212" type="curve" smooth="yes"/>
      <point x="628" y="212"/>
      <point x="866" y="484"/>
      <point x="940" y="698" type="curve"/>
      <point x="932" y="740"/>
      <point x="884" y="742"/>
      <point x="862" y="742" type="curve" smooth="yes"/>
      <point x="708" y="742"/>
      <point x="434" y="540"/>
      <point x="434" y="306" type="curve" smooth="yes"/>
      <point x="434" y="252"/>
      <point x="454" y="212"/>
    </contour>
  </outline>
</glyph>
<glyph name="B" format="2">
  <advance width="1232"/>
  <unicode hex="0042"/>
  <outline>
    <contour>
      <point x="52" y="0" type="line"/>
      <point x="598" y="0" type="line" smooth="yes"/>
      <point x="888" y="0"/>
      <point x="1142" y="166"/>
      <point x="1142" y="464" type="curve" smooth="yes"/>
      <point x="1142" y="602"/>
      <point x="1072" y="698"/>
      <point x="940" y="742" type="curve"/>
      <point x="1058" y="814"/>
      <point x="1132" y="936"/>
      <point x="1132" y="1084" type="curve" smooth="yes"/>
      <point x="1132" y="1330"/>
      <point x="946" y="1400"/>
      <point x="714" y="1400" type="curve" smooth="yes"/>
      <point x="298" y="1400" type="line"/>
    </contour>
    <contour>
      <point x="346" y="218" type="line"/>
      <point x="420" y="636" type="line"/>
      <point x="660" y="636" type="line" smooth="yes"/>
      <point x="792" y="636"/>
      <point x="858" y="570"/>
      <point x="858" y="458" type="curve" smooth="yes"/>
      <point x="858" y="300"/>
      <point x="740" y="218"/>
      <point x="588" y="218" type="curve" smooth="yes"/>
    </contour>
    <contour>
      <point x="456" y="838" type="line"/>
      <point x="516" y="1182" type="line"/>
      <point x="730" y="1182" type="line" smooth="yes"/>
      <point x="820" y="1182"/>
      <point x="868" y="1144"/>
      <point x="868" y="1046" type="curve" smooth="yes"/>
      <point x="868" y="914"/>
      <point x="780" y="838"/>
      <point x="668" y="838" type="curve" smooth="yes"/>
    </contour>
  </outline>
</glyph>
<glyph name="C" format="2">
  <advance width="1186"/>
  <unicode hex="0043"/>
  <anchor x="654" y="0" name="bottom"/>
  <anchor x="914" y="1400" name="top"/>
  <outline>
    <contour>
      <point x="640" y="-28" type="curve" smooth="yes"/>
      <point x="768" y="-28"/>
      <point x="922" y="4"/>
      <point x="1030" y="54" type="curve"/>
      <point x="1044" y="298" type="line"/>
      <point x="932" y="254"/>
      <point x="806" y="218"/>
      <point x="692" y="218" type="curve" smooth="yes"/>
      <point x="454" y="218"/>
      <point x="366" y="372"/>
      <point x="366" y="598" type="curve" smooth="yes"/>
      <point x="366" y="910"/>
      <point x="534" y="1182"/>
      <point x="860" y="1182" type="curve" smooth="yes"/>
      <point x="990" y="1182"/>
      <point x="1106" y="1138"/>
      <point x="1186" y="1102" type="curve"/>
      <point x="1258" y="1346" type="line"/>
      <point x="1168" y="1396"/>
      <point x="1026" y="1428"/>
      <point x="894" y="1428" type="curve" smooth="yes"/>
      <point x="448" y="1428"/>
      <point x="84" y="1068"/>
      <point x="84" y="574" type="curve" smooth="yes"/>
      <point x="84" y="196"/>
      <point x="298" y="-28"/>
    </contour>
  </outline>
</glyph>
<glyph name="D" format="2">
  <advance width="1404"/>
  <unicode hex="0044"/>
  <anchor x="702" y="0" name="bottom"/>
  <anchor x="862" y="1400" name="top"/>
  <outline>
    <contour>
      <point x="52" y="0" type="line"/>
      <point x="556" y="0" type="line" smooth="yes"/>
      <point x="996" y="0"/>
      <point x="1356" y="332"/>
      <point x="1356" y="816" type="curve" smooth="yes"/>
      <point x="1356" y="1196"/>
      <point x="1136" y="1400"/>
      <point x="802" y="1400" type="curve" smooth="yes"/>
      <point x="298" y="1400" type="line"/>
    </contour>
    <contour>
      <point x="352" y="246" type="line"/>
      <point x="512" y="1154" type="line"/>
      <point x="760" y="1154" type="line" smooth="yes"/>
      <point x="970" y="1154"/>
      <point x="1074" y="1028"/>
      <point x="1074" y="792" type="curve" smooth="yes"/>
      <point x="1074" y="494"/>
      <point x="910" y="246"/>
      <point x="600" y="246" type="curve" smooth="yes"/>
    </contour>
  </outline>
</glyph>
<glyph name="E" format="2">
  <advance width="1110"/>
  <unicode hex="0045"/>
  <anchor x="516" y="0" name="bottom"/>
  <anchor x="874" y="0" name="ogonek"/>
  <anchor x="734" y="1400" name="top"/>
  <outline>
    <contour>
      <point x="52" y="0" type="line"/>
      <point x="938" y="0" type="line"/>
      <point x="982" y="248" type="line"/>
      <point x="358" y="248" type="line"/>
      <point x="422" y="606" type="line"/>
      <point x="888" y="606" type="line"/>
      <point x="932" y="854" type="line"/>
      <point x="466" y="854" type="line"/>
      <point x="518" y="1152" type="line"/>
      <point x="1122" y="1152" type="line"/>
      <point x="1166" y="1400" type="line"/>
      <point x="298" y="1400" type="line"/>
    </contour>
  </outline>
</glyph>
<glyph name="G" format="2">
  <advance width="1292"/>
  <unicode hex="0047"/>
  <anchor x="647" y="0" name="bottom"/>
  <anchor x="888" y="1400" name="top"/>
  <outline>
    <contour>
      <point x="630" y="-28" type="curve"/>
      <point x="780" y="-28"/>
      <point x="1000" y="20"/>
      <point x="1106" y="78" type="curve"/>
      <point x="1216" y="702" type="line"/>
      <point x="824" y="702" type="line"/>
      <point x="786" y="490" type="line"/>
      <point x="924" y="490" type="line"/>
      <point x="880" y="240" type="line"/>
      <point x="812" y="226"/>
      <point x="752" y="218"/>
      <point x="700" y="218" type="curve" smooth="yes"/>
      <point x="476" y="218"/>
      <point x="368" y="368"/>
      <point x="368" y="608" type="curve" smooth="yes"/>
      <point x="368" y="898"/>
      <point x="528" y="1182"/>
      <point x="860" y="1182" type="curve" smooth="yes"/>
      <point x="978" y="1182"/>
      <point x="1120" y="1146"/>
      <point x="1214" y="1102" type="curve"/>
      <point x="1286" y="1346" type="line"/>
      <point x="1198" y="1396"/>
      <point x="1026" y="1428"/>
      <point x="892" y="1428" type="curve" smooth="yes"/>
      <point x="444" y="1428"/>
      <point x="84" y="1064"/>
      <point x="84" y="578" type="curve" smooth="yes"/>
      <point x="84" y="200"/>
      <point x="300" y="-28"/>
    </contour>
  </outline>
</glyph>
<glyph name="H" format="2">
  <advance width="1436"/>
  <unicode hex="0048"/>
  <anchor x="616" y="0" name="bottom"/>
  <anchor x="862" y="1400" name="top"/>
  <outline>
    <contour>
      <point x="52" y="0" type="line"/>
      <point x="308" y="0" type="line"/>
      <point x="414" y="606" type="line"/>
      <point x="1028" y="606" type="line"/>
      <point x="922" y="0" type="line"/>
      <point x="1178" y="0" type="line"/>
      <point x="1424" y="1400" type="line"/>
      <point x="1168" y="1400" type="line"/>
      <point x="1072" y="854" type="line"/>
      <point x="458" y="854" type="line"/>
      <point x="554" y="1400" type="line"/>
      <point x="298" y="1400" type="line"/>
    </contour>
  </outline>
</glyph>
<glyph name="I" format="2">
  <advance width="566"/>
  <unicode hex="0049"/>
  <anchor x="180" y="0" name="bottom"/>
  <anchor x="244" y="0" name="ogonek"/>
  <anchor x="430" y="1400" name="top"/>
  <outline>
    <contour>
      <point x="52" y="0" type="line"/>
      <point x="308" y="0" type="line"/>
      <point x="554" y="1400" type="line"/>
      <point x="298" y="1400" type="line"/>
    </contour>
  </outline>
</glyph>
<glyph name="K" format="2">
  <advance width="1212"/>
  <unicode hex="004B"/>
  <anchor x="556" y="0" name="bottom"/>
  <anchor x="788" y="1400" name="top"/>
  <outline>
    <contour>
      <point x="804" y="0" type="line"/>
      <point x="1082" y="0" type="line"/>
      <point x="732" y="740" type="line"/>
      <point x="1332" y="1400" type="line"/>
      <point x="1022" y="1400" type="line"/>
      <point x="456" y="740" type="line"/>
    </contour>
    <contour>
      <point x="52" y="0" type="line"/>
      <point x="308" y="0" type="line"/>
      <point x="554" y="1400" type="line"/>
      <point x="298" y="1400" type="line"/>
    </contour>
  </outline>
</glyph>
<glyph name="L" format="2">
  <advance width="980"/>
  <unicode hex="004C"/>
  <anchor x="491" y="0" name="bottom"/>
  <anchor x="788" y="784" name="center"/>
  <anchor x="426" y="1400" name="top"/>
  <anchor x="914" y="1400" name="topright"/>
  <outline>
    <contour>
      <point x="52" y="0" type="line"/>
      <point x="850" y="0" type="line"/>
      <point x="894" y="248" type="line"/>
      <point x="352" y="248" type="line"/>
      <point x="554" y="1400" type="line"/>
      <point x="298" y="1400" type="line"/>
    </contour>
  </outline>
</glyph>
<glyph name="M" format="2">
  <advance width="1618"/>
  <unicode hex="004D"/>
  <anchor x="704" y="0" name="bottom"/>
  <anchor x="952" y="1400" name="top"/>
  <outline>
    <contour>
      <point x="-16" y="0" type="line"/>
      <point x="250" y="0" type="line"/>
      <point x="526" y="930" type="line"/>
      <point x="756" y="294" type="line"/>
      <point x="1214" y="930" type="line"/>
      <point x="1158" y="0" type="line"/>
      <point x="1424" y="0" type="line"/>
      <point x="1482" y="1400" type="line"/>
      <point x="1262" y="1400" type="line"/>
      <point x="838" y="762" type="line"/>
      <point x="640" y="1400" type="line"/>
      <point x="418" y="1400" type="line"/>
    </contour>
  </outline>
</glyph>
<glyph name="N" format="2">
  <advance width="1376"/>
  <unicode hex="004E"/>
  <anchor x="608" y="0" name="bottom"/>
  <anchor x="828" y="1400" name="top"/>
  <outline>
    <contour>
      <point x="52" y="0" type="line"/>
      <point x="308" y="0" type="line"/>
      <point x="478" y="960" type="line"/>
      <point x="908" y="0" type="line"/>
      <point x="1116" y="0" type="line"/>
      <point x="1364" y="1400" type="line"/>
      <point x="1108" y="1400" type="line"/>
      <point x="948" y="496" type="line"/>
      <point x="548" y="1400" type="line"/>
      <point x="298" y="1400" type="line"/>
    </contour>
  </outline>
</glyph>
<glyph name="O" format="2">
  <advance width="1484"/>
  <unicode hex="004F"/>
  <anchor x="618" y="0" name="bottom"/>
  <anchor x="708" y="0" name="ogonek"/>
  <anchor x="894" y="1400" name="top"/>
  <anchor x="1054" y="1400" name="topright"/>
  <outline>
    <contour>
      <point x="642" y="-28" type="curve" smooth="yes"/>
      <point x="1074" y="-28"/>
      <point x="1440" y="336"/>
      <point x="1440" y="826" type="curve" smooth="yes"/>
      <point x="1440" y="1202"/>
      <point x="1224" y="1428"/>
      <point x="882" y="1428" type="curve" smooth="yes"/>
      <point x="450" y="1428"/>
      <point x="84" y="1064"/>
      <point x="84" y="574" type="curve" smooth="yes"/>
      <point x="84" y="198"/>
      <point x="300" y="-28"/>
    </contour>
    <contour>
      <point x="682" y="218" type="curve" smooth="yes"/>
      <point x="466" y="218"/>
      <point x="366" y="364"/>
      <point x="366" y="596" type="curve" smooth="yes"/>
      <point x="366" y="902"/>
      <point x="542" y="1182"/>
      <point x="840" y="1182" type="curve" smooth="yes"/>
      <point x="1056" y="1182"/>
      <point x="1156" y="1036"/>
      <point x="1156" y="804" type="curve" smooth="yes"/>
      <point x="1156" y="498"/>
      <point x="980" y="218"/>
    </contour>
  </outline>
</glyph>
<glyph name="P" format="2">
  <advance width="1174"/>
  <unicode hex="0050"/>
  <outline>
    <contour>
      <point x="52" y="0" type="line"/>
      <point x="306" y="0" type="line"/>
      <point x="388" y="460" type="line"/>
      <point x="620" y="460" type="line" smooth="yes"/>
      <point x="960" y="460"/>
      <point x="1200" y="650"/>
      <point x="1200" y="1010" type="curve" smooth="yes"/>
      <point x="1200" y="1248"/>
      <point x="1054" y="1400"/>
      <point x="774" y="1400" type="curve" smooth="yes"/>
      <point x="298" y="1400" type="line"/>
    </contour>
    <contour>
      <point x="430" y="700" type="line"/>
      <point x="516" y="1186" type="line"/>
      <point x="746" y="1186" type="line" smooth="yes"/>
      <point x="878" y="1186"/>
      <point x="934" y="1120"/>
      <point x="934" y="990" type="curve" smooth="yes"/>
      <point x="934" y="792"/>
      <point x="820" y="700"/>
      <point x="658" y="700" type="curve" smooth="yes"/>
    </contour>
  </outline>
</glyph>
<glyph name="Q" format="2">
  <advance width="1484"/>
  <unicode hex="0051"/>
  <outline>
    <contour>
      <point x="636" y="-28" type="curve" smooth="yes"/>
      <point x="780" y="-28"/>
      <point x="922" y="14"/>
      <point x="1038" y="94" type="curve"/>
      <point x="1152" y="-20" type="line"/>
      <point x="1332" y="158" type="line"/>
      <point x="1232" y="260" type="line"/>
      <point x="1354" y="420"/>
      <point x="1440" y="610"/>
      <point x="1440" y="836" type="curve" smooth="yes"/>
      <point x="1440" y="1194"/>
      <point x="1228" y="1428"/>
      <point x="882" y="1428" type="curve" smooth="yes"/>
      <point x="450" y="1428"/>
      <point x="84" y="1062"/>
      <point x="84" y="574" type="curve" smooth="yes"/>
      <point x="84" y="200"/>
      <point x="300" y="-28"/>
    </contour>
    <contour>
      <point x="678" y="218" type="curve" smooth="yes"/>
      <point x="466" y="218"/>
      <point x="366" y="366"/>
      <point x="366" y="598" type="curve" smooth="yes"/>
      <point x="366" y="906"/>
      <point x="544" y="1182"/>
      <point x="840" y="1182" type="curve" smooth="yes"/>
      <point x="840" y="1182" type="line"/>
      <point x="1060" y="1182"/>
      <point x="1154" y="1028"/>
      <point x="1154" y="816" type="curve" smooth="yes"/>
      <point x="1154" y="664"/>
      <point x="1106" y="542"/>
      <point x="1048" y="436" type="curve"/>
      <point x="912" y="584" type="line"/>
      <point x="730" y="406" type="line"/>
      <point x="860" y="264" type="line"/>
      <point x="808" y="234"/>
      <point x="748" y="218"/>
    </contour>
  </outline>
</glyph>
<glyph name="R" format="2">
  <advance width="1226"/>
  <unicode hex="0052"/>
  <anchor x="566" y="0" name="bottom"/>
  <anchor x="768" y="1400" name="top"/>
  <outline>
    <contour>
      <point x="52" y="0" type="line"/>
      <point x="306" y="0" type="line"/>
      <point x="398" y="520" type="line"/>
      <point x="642" y="520" type="line"/>
      <point x="826" y="0" type="line"/>
      <point x="1092" y="0" type="line"/>
      <point x="892" y="588" type="line"/>
      <point x="1052" y="676"/>
      <point x="1200" y="812"/>
      <point x="1200" y="1042" type="curve" smooth="yes"/>
      <point x="1200" y="1296"/>
      <point x="1026" y="1400"/>
      <point x="760" y="1400" type="curve" smooth="yes"/>
      <point x="298" y="1400" type="line"/>
    </contour>
    <contour>
      <point x="440" y="760" type="line"/>
      <point x="516" y="1186" type="line"/>
      <point x="734" y="1186" type="line" smooth="yes"/>
      <point x="874" y="1186"/>
      <point x="926" y="1120"/>
      <point x="926" y="1018" type="curve" smooth="yes"/>
      <point x="926" y="852"/>
      <point x="798" y="760"/>
      <point x="640" y="760" type="curve" smooth="yes"/>
    </contour>
  </outline>
</glyph>
<glyph name="S" format="2">
  <advance width="1132"/>
  <unicode hex="0053"/>
  <anchor x="488" y="0" name="bottom"/>
  <anchor x="717" y="1400" name="top"/>
  <outline>
    <contour>
      <point x="456" y="-28" type="curve" smooth="yes"/>
      <point x="894" y="-28"/>
      <point x="1038" y="222"/>
      <point x="1038" y="442" type="curve" smooth="yes"/>
      <point x="1038" y="698"/>
      <point x="836" y="770"/>
      <point x="650" y="834" type="curve" smooth="yes"/>
      <point x="514" y="880"/>
      <point x="416" y="918"/>
      <point x="416" y="1020" type="curve" smooth="yes"/>
      <point x="416" y="1140"/>
      <point x="528" y="1184"/>
      <point x="666" y="1184" type="curve" smooth="yes"/>
      <point x="808" y="1184"/>
      <point x="916" y="1140"/>
      <point x="1054" y="1058" type="curve"/>
      <point x="1126" y="1320" type="line"/>
      <point x="1046" y="1368"/>
      <point x="886" y="1428"/>
      <point x="686" y="1428" type="curve" smooth="yes"/>
      <point x="362" y="1428"/>
      <point x="150" y="1244"/>
      <point x="150" y="992" type="curve" smooth="yes"/>
      <point x="150" y="776"/>
      <point x="266" y="694"/>
      <point x="478" y="620" type="curve" smooth="yes"/>
      <point x="660" y="556"/>
      <point x="744" y="508"/>
      <point x="744" y="388" type="curve" smooth="yes"/>
      <point x="744" y="264"/>
      <point x="644" y="218"/>
      <point x="486" y="218" type="curve" smooth="yes"/>
      <point x="308" y="218"/>
      <point x="174" y="292"/>
      <point x="90" y="366" type="curve"/>
      <point x="10" y="74" type="line"/>
      <point x="116" y="20"/>
      <point x="264" y="-28"/>
    </contour>
  </outline>
</glyph>
<glyph name="T" format="2">
  <advance width="1128"/>
  <unicode hex="0054"/>
  <anchor x="462" y="0" name="bottom"/>
  <anchor x="708" y="1400" name="top"/>
  <outline>
    <contour>
      <point x="334" y="0" type="line"/>
      <point x="590" y="0" type="line"/>
      <point x="792" y="1152" type="line"/>
      <point x="1170" y="1152" type="line"/>
      <point x="1214" y="1400" type="line"/>
      <point x="202" y="1400" type="line"/>
      <point x="158" y="1152" type="line"/>
      <point x="536" y="1152" type="line"/>
    </contour>
  </outline>
</glyph>
<glyph name="U" format="2">
  <advance width="1390"/>
  <unicode hex="0055"/>
  <anchor x="570" y="0" name="bottom"/>
  <anchor x="678" y="0" name="ogonek"/>
  <anchor x="836" y="1400" name="top"/>
  <anchor x="1248" y="1400" name="topright"/>
  <outline>
    <contour>
      <point x="588" y="-28" type="curve"/>
      <point x="966" y="-28"/>
      <point x="1186" y="220"/>
      <point x="1254" y="600" type="curve" smooth="yes"/>
      <point x="1396" y="1400" type="line"/>
      <point x="1140" y="1400" type="line"/>
      <point x="1014" y="686" type="line" smooth="yes"/>
      <point x="968" y="426"/>
      <point x="880" y="218"/>
      <point x="630" y="218" type="curve" smooth="yes"/>
      <point x="448" y="218"/>
      <point x="394" y="328"/>
      <point x="392" y="490" type="curve" smooth="yes"/>
      <point x="392" y="546"/>
      <point x="398" y="608"/>
      <point x="412" y="686" type="curve" smooth="yes"/>
      <point x="538" y="1400" type="line"/>
      <point x="284" y="1400" type="line"/>
      <point x="142" y="600" type="line" smooth="yes"/>
      <point x="130" y="534"/>
      <point x="126" y="470"/>
      <point x="126" y="424" type="curve" smooth="yes"/>
      <point x="126" y="142"/>
      <point x="274" y="-28"/>
    </contour>
  </outline>
</glyph>
<glyph name="V" format="2">
  <advance width="1276"/>
  <unicode hex="0056"/>
  <outline>
    <contour>
      <point x="372" y="0" type="line"/>
      <point x="688" y="0" type="line"/>
      <point x="1402" y="1400" type="line"/>
      <point x="1138" y="1400" type="line"/>
      <point x="590" y="298" type="line"/>
      <point x="406" y="1400" type="line"/>
      <point x="140" y="1400" type="line"/>
    </contour>
  </outline>
</glyph>
<glyph name="W" format="2">
  <advance width="1868"/>
  <unicode hex="0057"/>
  <anchor x="838" y="0" name="bottom"/>
  <anchor x="1084" y="1400" name="top"/>
  <outline>
    <contour>
      <point x="306" y="0" type="line"/>
      <point x="542" y="0" type="line"/>
      <point x="1000" y="934" type="line"/>
      <point x="1132" y="0" type="line"/>
      <point x="1352" y="0" type="line"/>
      <point x="1992" y="1400" type="line"/>
      <point x="1726" y="1400" type="line"/>
      <point x="1304" y="432" type="line"/>
      <point x="1170" y="1400" type="line"/>
      <point x="998" y="1400" type="line"/>
      <point x="528" y="406" type="line"/>
      <point x="440" y="1400" type="line"/>
      <point x="174" y="1400" type="line"/>
    </contour>
  </outline>
</glyph>
<glyph name="Y" format="2">
  <advance width="1206"/>
  <unicode hex="0059"/>
  <anchor x="494" y="0" name="bottom"/>
  <anchor x="740" y="1400" name="top"/>
  <outline>
    <contour>
      <point x="366" y="0" type="line"/>
      <point x="620" y="0" type="line"/>
      <point x="730" y="620" type="line"/>
      <point x="1334" y="1400" type="line"/>
      <point x="1062" y="1400" type="line"/>
      <point x="646" y="840" type="line"/>
      <point x="418" y="1400" type="line"/>
      <point x="146" y="1400" type="line"/>
      <point x="474" y="620" type="line"/>
    </contour>
  </outline>
</glyph>
<glyph name="Z" format="2">
  <advance width="1072"/>
  <unicode hex="005A"/>
  <anchor x="390" y="0" name="bottom"/>
  <anchor x="724" y="1400" name="top"/>
  <outline>
    <contour>
      <point x="-78" y="0" type="line"/>
      <point x="858" y="0" type="line"/>
      <point x="902" y="248" type="line"/>
      <point x="388" y="248" type="line"/>
      <point x="1192" y="1400" type="line"/>
      <point x="256" y="1400" type="line"/>
      <point x="212" y="1152" type="line"/>
      <point x="726" y="1152" type="line"/>
    </contour>
  </outline>
</glyph>
<glyph name="backslash" format="2">
  <advance width="710"/>
  <unicode hex="005C"/>
  <outline>
    <contour>
      <point x="360" y="-170" type="line"/>
      <point x="610" y="-170" type="line"/>
      <point x="390" y="1400" type="line"/>
      <point x="140" y="1400" type="line"/>
    </contour>
  </outline>
</glyph>
<glyph name="bracketright" format="2">
  <advance width="666"/>
  <unicode hex="005D"/>
  <outline>
    <contour>
      <point x="-136" y="-272" type="line"/>
      <point x="326" y="-272" type="line"/>
      <point x="638" y="1500" type="line"/>
      <point x="176" y="1500" type="line"/>
      <point x="138" y="1282" type="line"/>
      <point x="374" y="1282" type="line"/>
      <point x="138" y="-54" type="line"/>
      <point x="-98" y="-54" type="line"/>
    </contour>
  </outline>
</glyph>
<glyph name="asciicircum" format="2">
  <advance width="908"/>
  <unicode hex="005E"/>
  <outline>
    <contour>
      <point x="40" y="888" type="line"/>
      <point x="452" y="1220" type="line"/>
      <point x="790" y="830" type="line"/>
      <point x="836" y="1094" type="line"/>
      <point x="498" y="1518" type="line"/>
      <point x="86" y="1152" type="line"/>
    </contour>
  </outline>
</glyph>
<glyph name="a" format="2">
  <advance width="1168"/>
  <unicode hex="0061"/>
  <anchor x="438" y="0" name="bottom"/>
  <anchor x="888" y="0" name="ogonek"/>
  <anchor x="666" y="1000" name="top"/>
  <outline>
    <contour>
      <point x="406" y="-20" type="curve" smooth="yes"/>
      <point x="544" y="-20"/>
      <point x="632" y="38"/>
      <point x="700" y="96" type="curve"/>
      <point x="750" y="0"/>
      <point x="788" y="-20"/>
      <point x="992" y="-20" type="curve"/>
      <point x="1048" y="184" type="line"/>
      <point x="974" y="184"/>
      <point x="950" y="184"/>
      <point x="950" y="240" type="curve" smooth="yes"/>
      <point x="950" y="256"/>
      <point x="952" y="282"/>
      <point x="958" y="316" type="curve" smooth="yes"/>
      <point x="1074" y="1000" type="line"/>
      <point x="858" y="1000" type="line"/>
      <point x="830" y="930" type="line"/>
      <point x="772" y="984"/>
      <point x="704" y="1016"/>
      <point x="598" y="1016" type="curve" smooth="yes"/>
      <point x="250" y="1016"/>
      <point x="36" y="708"/>
      <point x="36" y="396" type="curve" smooth="yes"/>
      <point x="36" y="156"/>
      <point x="174" y="-20"/>
    </contour>
    <contour>
      <point x="490" y="184" type="curve" smooth="yes"/>
      <point x="352" y="184"/>
      <point x="294" y="282"/>
      <point x="294" y="428" type="curve" smooth="yes"/>
      <point x="294" y="638"/>
      <point x="410" y="812"/>
      <point x="580" y="812" type="curve" smooth="yes"/>
      <point x="708" y="812"/>
      <point x="760" y="724"/>
      <point x="760" y="584" type="curve" smooth="yes"/>
      <point x="760" y="432"/>
      <point x="712" y="184"/>
    </contour>
  </outline>
</glyph>
<glyph name="b" format="2">
  <advance width="1120"/>
  <unicode hex="0062"/>
  <outline>
    <contour>
      <point x="550" y="-20" type="curve" smooth="yes"/>
      <point x="870" y="-20"/>
      <point x="1052" y="282"/>
      <point x="1052" y="590" type="curve" smooth="yes"/>
      <point x="1052" y="830"/>
      <point x="926" y="1016"/>
      <point x="688" y="1016" type="curve" smooth="yes"/>
      <point x="592" y="1016"/>
      <point x="496" y="982"/>
      <point x="424" y="916" type="curve"/>
      <point x="528" y="1500" type="line"/>
      <point x="278" y="1500" type="line"/>
      <point x="14" y="0" type="line"/>
      <point x="236" y="0" type="line"/>
      <point x="266" y="120" type="line"/>
      <point x="328" y="32"/>
      <point x="422" y="-20"/>
    </contour>
    <contour>
      <point x="516" y="184" type="curve" smooth="yes"/>
      <point x="378" y="184"/>
      <point x="328" y="274"/>
      <point x="328" y="418" type="curve" smooth="yes"/>
      <point x="328" y="618"/>
      <point x="424" y="812"/>
      <point x="616" y="812" type="curve" smooth="yes"/>
      <point x="742" y="812"/>
      <point x="796" y="712"/>
      <point x="796" y="566" type="curve" smooth="yes"/>
      <point x="796" y="360"/>
      <point x="686" y="184"/>
    </contour>
  </outline>
</glyph>
<glyph name="c" format="2">
  <advance width="874"/>
  <unicode hex="0063"/>
  <anchor x="438" y="0" name="bottom"/>
  <anchor x="634" y="1000" name="top"/>
  <outline>
    <contour>
      <point x="432" y="-20" type="curve" smooth="yes"/>
      <point x="552" y="-20"/>
      <point x="652" y="8"/>
      <point x="724" y="54" type="curve"/>
      <point x="740" y="266" type="line"/>
      <point x="658" y="212"/>
      <point x="576" y="184"/>
      <point x="508" y="184" type="curve" smooth="yes"/>
      <point x="356" y="184"/>
      <point x="294" y="282"/>
      <point x="294" y="428" type="curve" smooth="yes"/>
      <point x="294" y="638"/>
      <point x="418" y="812"/>
      <point x="618" y="812" type="curve" smooth="yes"/>
      <point x="694" y="812"/>
      <point x="762" y="778"/>
      <point x="822" y="730" type="curve"/>
      <point x="880" y="942" type="line"/>
      <point x="824" y="984"/>
      <point x="744" y="1016"/>
      <point x="620" y="1016" type="curve" smooth="yes"/>
      <point x="242" y="1016"/>
      <point x="36" y="716"/>
      <point x="36" y="402" type="curve" smooth="yes"/>
      <point x="36" y="168"/>
      <point x="148" y="-20"/>
    </contour>
  </outline>
</glyph>
<glyph name="d" format="2">
  <advance width="1122"/>
  <unicode hex="0064"/>
  <anchor x="562" y="0" name="bottom"/>
  <anchor x="942" y="1272" name="center"/>
  <anchor x="562" y="1000" name="top"/>
  <anchor x="1234" y="1500" name="topright"/>
  <outline>
    <contour>
      <point x="394" y="-20" type="curve" smooth="yes"/>
      <point x="504" y="-20"/>
      <point x="598" y="26"/>
      <point x="684" y="106" type="curve"/>
      <point x="664" y="0" type="line"/>
      <point x="900" y="0" type="line"/>
      <point x="1164" y="1500" type="line"/>
      <point x="916" y="1500" type="line"/>
      <point x="790" y="792" type="line"/>
      <point x="872" y="756" type="line"/>
      <point x="836" y="894"/>
      <point x="742" y="1016"/>
      <point x="554" y="1016" type="curve" smooth="yes"/>
      <point x="230" y="1016"/>
      <point x="36" y="704"/>
      <point x="36" y="384" type="curve" smooth="yes"/>
      <point x="36" y="158"/>
      <point x="158" y="-20"/>
    </contour>
    <contour>
      <point x="480" y="184" type="curve" smooth="yes"/>
      <point x="350" y="184"/>
      <point x="294" y="278"/>
      <point x="294" y="418" type="curve" smooth="yes"/>
      <point x="294" y="634"/>
      <point x="410" y="812"/>
      <point x="582" y="812" type="curve" smooth="yes"/>
      <point x="716" y="812"/>
      <point x="760" y="712"/>
      <point x="760" y="584" type="curve" smooth="yes"/>
      <point x="760" y="404"/>
      <point x="678" y="184"/>
    </contour>
  </outline>
</glyph>
<glyph name="h" format="2">
  <advance width="1076"/>
  <unicode hex="0068"/>
  <anchor x="440" y="0" name="bottom"/>
  <anchor x="402" y="1500" name="top"/>
  <outline>
    <contour>
      <point x="14" y="0" type="line"/>
      <point x="262" y="0" type="line"/>
      <point x="390" y="726" type="line"/>
      <point x="454" y="780"/>
      <point x="514" y="812"/>
      <point x="592" y="812" type="curve" smooth="yes"/>
      <point x="676" y="812"/>
      <point x="722" y="758"/>
      <point x="722" y="670" type="curve" smooth="yes"/>
      <point x="722" y="614"/>
      <point x="712" y="550"/>
      <point x="702" y="492" type="curve" smooth="yes"/>
      <point x="618" y="0" type="line"/>
      <point x="866" y="0" type="line"/>
      <point x="956" y="530" type="line" smooth="yes"/>
      <point x="970" y="614"/>
      <point x="974" y="680"/>
      <point x="974" y="718" type="curve" smooth="yes"/>
      <point x="974" y="892"/>
      <point x="878" y="1016"/>
      <point x="696" y="1016" type="curve" smooth="yes"/>
      <point x="598" y="1016"/>
      <point x="514" y="986"/>
      <point x="424" y="912" type="curve"/>
      <point x="526" y="1500" type="line"/>
      <point x="278" y="1500" type="line"/>
    </contour>
  </outline>
</glyph>
<glyph name="i" format="2">
  <advance width="484"/>
  <unicode hex="0069"/>
  <anchor x="138" y="0" name="bottom"/>
  <outline>
    <contour>
      <point x="14" y="0" type="line"/>
      <point x="262" y="0" type="line"/>
      <point x="438" y="1000" type="line"/>
      <point x="190" y="1000" type="line"/>
    </contour>
    <contour>
      <point x="218" y="1152" type="line"/>
      <point x="466" y="1152" type="line"/>
      <point x="510" y="1400" type="line"/>
      <point x="260" y="1400" type="line"/>
    </contour>
  </outline>
</glyph>
<glyph name="j" format="2">
  <advance width="486"/>
  <unicode hex="006A"/>
  <outline>
    <contour>
      <point x="-160" y="-484" type="line"/>
      <point x="-68" y="-484" type="line" smooth="yes"/>
      <point x="114" y="-484"/>
      <point x="198" y="-366"/>
      <point x="224" y="-222" type="curve" smooth="yes"/>
      <point x="440" y="1000" type="line"/>
      <point x="192" y="1000" type="line"/>
      <point x="-6" y="-120" type="line" smooth="yes"/>
      <point x="-32" y="-272"/>
      <point x="-46" y="-280"/>
      <point x="-146" y="-280" type="curve"/>
    </contour>
    <contour>
      <point x="218" y="1152" type="line"/>
      <point x="466" y="1152" type="line"/>
      <point x="510" y="1400" type="line"/>
      <point x="262" y="1400" type="line"/>
    </contour>
  </outline>
</glyph>
<glyph name="k" format="2">
  <advance width="960"/>
  <unicode hex="006B"/>
  <anchor x="412" y="0" name="bottom"/>
  <anchor x="404" y="1500" name="top"/>
  <outline>
    <contour>
      <point x="14" y="0" type="line"/>
      <point x="262" y="0" type="line"/>
      <point x="340" y="444" type="line"/>
      <point x="560" y="0" type="line"/>
      <point x="838" y="0" type="line"/>
      <point x="586" y="520" type="line"/>
      <point x="1016" y="1000" type="line"/>
      <point x="738" y="1000" type="line"/>
      <point x="366" y="590" type="line"/>
      <point x="528" y="1500" type="line"/>
      <point x="278" y="1500" type="line"/>
    </contour>
  </outline>
</glyph>
<glyph name="l" format="2">
  <advance width="528"/>
  <unicode hex="006C"/>
  <anchor x="224" y="0" name="bottom"/>
  <anchor x="608" y="830" name="center"/>
  <anchor x="400" y="1500" name="top"/>
  <anchor x="596" y="1500" name="topright"/>
  <outline>
    <contour>
      <point x="254" y="-20" type="curve" smooth="yes"/>
      <point x="344" y="-20" type="line"/>
      <point x="402" y="184" type="line"/>
      <point x="344" y="184"/>
      <point x="308" y="184"/>
      <point x="308" y="246" type="curve" smooth="yes"/>
      <point x="308" y="266"/>
      <point x="312" y="294"/>
      <point x="322" y="350" type="curve" smooth="yes"/>
      <point x="524" y="1500" type="line"/>
      <point x="276" y="1500" type="line"/>
      <point x="76" y="370" type="line" smooth="yes"/>
      <point x="56" y="258"/>
      <point x="48" y="210"/>
      <point x="48" y="178" type="curve" smooth="yes"/>
      <point x="48" y="64"/>
      <point x="110" y="-20"/>
    </contour>
  </outline>
</glyph>
<glyph name="m" format="2">
  <advance width="1672"/>
  <unicode hex="006D"/>
  <anchor x="735" y="0" name="bottom"/>
  <anchor x="941" y="980" name="top"/>
  <outline>
    <contour>
      <point x="14" y="0" type="line"/>
      <point x="262" y="0" type="line"/>
      <point x="392" y="730" type="line"/>
      <point x="442" y="782"/>
      <point x="496" y="812"/>
      <point x="572" y="812" type="curve" smooth="yes"/>
      <point x="648" y="812"/>
      <point x="726" y="784"/>
      <point x="726" y="668" type="curve" smooth="yes"/>
      <point x="726" y="618"/>
      <point x="712" y="548"/>
      <point x="616" y="0" type="curve"/>
      <point x="862" y="0" type="line"/>
      <point x="970" y="618" type="line" smooth="yes"/>
      <point x="986" y="710"/>
      <point x="1038" y="812"/>
      <point x="1186" y="812" type="curve" smooth="yes"/>
      <point x="1268" y="812"/>
      <point x="1320" y="780"/>
      <point x="1320" y="648" type="curve" smooth="yes"/>
      <point x="1320" y="612"/>
      <point x="1316" y="586"/>
      <point x="1214" y="0" type="curve"/>
      <point x="1462" y="0" type="line"/>
      <point x="1564" y="588"/>
      <point x="1570" y="634"/>
      <point x="1570" y="682" type="curve" smooth="yes"/>
      <point x="1570" y="880"/>
      <point x="1472" y="1016"/>
      <point x="1256" y="1016" type="curve" smooth="yes"/>
      <point x="1084" y="1016"/>
      <point x="954" y="928"/>
      <point x="914" y="864" type="curve"/>
      <point x="866" y="972"/>
      <point x="756" y="1016"/>
      <point x="654" y="1016" type="curve" smooth="yes"/>
      <point x="550" y="1016"/>
      <point x="450" y="970"/>
      <point x="394" y="922" type="curve"/>
      <point x="394" y="1000" type="line"/>
      <point x="190" y="1000" type="line"/>
    </contour>
  </outline>
</glyph>
<glyph name="n" format="2">
  <advance width="1072"/>
  <unicode hex="006E"/>
  <anchor x="438" y="0" name="bottom"/>
  <anchor x="622" y="980" name="top"/>
  <outline>
    <contour>
      <point x="14" y="0" type="line"/>
      <point x="262" y="0" type="line"/>
      <point x="390" y="726" type="line"/>
      <point x="444" y="780"/>
      <point x="498" y="812"/>
      <point x="574" y="812" type="curve" smooth="yes"/>
      <point x="674" y="812"/>
      <point x="716" y="760"/>
      <point x="716" y="644" type="curve" smooth="yes"/>
      <point x="716" y="618"/>
      <point x="714" y="580"/>
      <point x="612" y="0" type="curve"/>
      <point x="862" y="0" type="line"/>
      <point x="966" y="590"/>
      <point x="970" y="638"/>
      <point x="970" y="678" type="curve" smooth="yes"/>
      <point x="970" y="876"/>
      <point x="874" y="1016"/>
      <point x="668" y="1016" type="curve" smooth="yes"/>
      <point x="562" y="1016"/>
      <point x="486" y="982"/>
      <point x="418" y="940" type="curve"/>
      <point x="408" y="1000" type="line"/>
      <point x="190" y="1000" type="line"/>
    </contour>
  </outline>
</glyph>
<glyph name="p" format="2">
  <advance width="1120"/>
  <unicode hex="0070"/>
  <outline>
    <contour>
      <point x="-72" y="-484" type="line"/>
      <point x="176" y="-484" type="line"/>
      <point x="280" y="112" type="line"/>
      <point x="330" y="38"/>
      <point x="418" y="-20"/>
      <point x="552" y="-20" type="curve" smooth="yes"/>
      <point x="860" y="-20"/>
      <point x="1052" y="228"/>
      <point x="1052" y="594" type="curve" smooth="yes"/>
      <point x="1052" y="848"/>
      <point x="924" y="1016"/>
      <point x="700" y="1016" type="curve" smooth="yes"/>
      <point x="582" y="1016"/>
      <point x="490" y="974"/>
      <point x="410" y="912" type="curve"/>
      <point x="408" y="1000" type="line"/>
      <point x="190" y="1000" type="line"/>
    </contour>
    <contour>
      <point x="532" y="184" type="curve" smooth="yes"/>
      <point x="390" y="184"/>
      <point x="326" y="264"/>
      <point x="326" y="408" type="curve" smooth="yes"/>
      <point x="326" y="632"/>
      <point x="438" y="812"/>
      <point x="622" y="812" type="curve" smooth="yes"/>
      <point x="744" y="812"/>
      <point x="796" y="714"/>
      <point x="796" y="570" type="curve" smooth="yes"/>
      <point x="796" y="344"/>
      <point x="690" y="184"/>
    </contour>
  </outline>
</glyph>
<glyph name="q" format="2">
  <advance width="1122"/>
  <unicode hex="0071"/>
  <outline>
    <contour>
      <point x="564" y="-484" type="line"/>
      <point x="814" y="-484" type="line"/>
      <point x="1076" y="1000" type="line"/>
      <point x="882" y="1000" type="line"/>
      <point x="828" y="886" type="line"/>
      <point x="768" y="974"/>
      <point x="692" y="1016"/>
      <point x="568" y="1016" type="curve" smooth="yes"/>
      <point x="242" y="1016"/>
      <point x="36" y="718"/>
      <point x="36" y="406" type="curve" smooth="yes"/>
      <point x="36" y="168"/>
      <point x="156" y="-20"/>
      <point x="402" y="-20" type="curve" smooth="yes"/>
      <point x="508" y="-20"/>
      <point x="586" y="14"/>
      <point x="662" y="74" type="curve"/>
    </contour>
    <contour>
      <point x="490" y="184" type="curve" smooth="yes"/>
      <point x="352" y="184"/>
      <point x="292" y="282"/>
      <point x="292" y="430" type="curve" smooth="yes"/>
      <point x="292" y="638"/>
      <point x="408" y="812"/>
      <point x="584" y="812" type="curve" smooth="yes"/>
      <point x="714" y="812"/>
      <point x="762" y="724"/>
      <point x="762" y="584" type="curve" smooth="yes"/>
      <point x="762" y="366"/>
      <point x="674" y="184"/>
    </contour>
  </outline>
</glyph>
<glyph name="r" format="2">
  <advance width="680"/>
  <unicode hex="0072"/>
  <anchor x="138" y="0" name="bottom"/>
  <anchor x="460" y="1000" name="top"/>
  <outline>
    <contour>
      <point x="14" y="0" type="line"/>
      <point x="260" y="0" type="line"/>
      <point x="382" y="682" type="line"/>
      <point x="416" y="738"/>
      <point x="488" y="782"/>
      <point x="566" y="782" type="curve" smooth="yes"/>
      <point x="660" y="782" type="line"/>
      <point x="748" y="1016" type="line"/>
      <point x="678" y="1016" type="line" smooth="yes"/>
      <point x="568" y="1016"/>
      <point x="460" y="948"/>
      <point x="410" y="894" type="curve"/>
      <point x="426" y="1000" type="line"/>
      <point x="190" y="1000" type="line"/>
    </contour>
  </outline>
</glyph>
<glyph name="s" format="2">
  <advance width="832"/>
  <unicode hex="0073"/>
  <anchor x="310" y="0" name="bottom"/>
  <anchor x="507" y="980" name="top"/>
  <outline>
    <contour>
      <point x="306" y="-20" type="curve" smooth="yes"/>
      <point x="580" y="-20"/>
      <point x="724" y="128"/>
      <point x="724" y="310" type="curve" smooth="yes"/>
      <point x="724" y="458"/>
      <point x="650" y="528"/>
      <point x="508" y="580" type="curve" smooth="yes"/>
      <point x="394" y="622"/>
      <point x="314" y="642"/>
      <point x="314" y="728" type="curve" smooth="yes"/>
      <point x="314" y="806"/>
      <point x="380" y="838"/>
      <point x="472" y="838" type="curve" smooth="yes"/>
      <point x="586" y="838"/>
      <point x="674" y="792"/>
      <point x="744" y="742" type="curve"/>
      <point x="798" y="942" type="line"/>
      <point x="728" y="982"/>
      <point x="628" y="1016"/>
      <point x="500" y="1016" type="curve" smooth="yes"/>
      <point x="230" y="1016"/>
      <point x="82" y="870"/>
      <point x="82" y="678" type="curve" smooth="yes"/>
      <point x="82" y="520"/>
      <point x="184" y="464"/>
      <point x="320" y="418" type="curve" smooth="yes"/>
      <point x="422" y="384"/>
      <point x="472" y="356"/>
      <point x="472" y="280" type="curve" smooth="yes"/>
      <point x="472" y="216"/>
      <point x="426" y="166"/>
      <point x="324" y="166" type="curve" smooth="yes"/>
      <point x="214" y="166"/>
      <point x="110" y="218"/>
      <point x="32" y="266" type="curve"/>
      <point x="-26" y="54" type="line"/>
      <point x="66" y="12"/>
      <point x="182" y="-20"/>
    </contour>
  </outline>
</glyph>
<glyph name="u" format="2">
  <advance width="1082"/>
  <unicode hex="0075"/>
  <anchor x="370" y="0" name="bottom"/>
  <anchor x="974" y="20" name="ogonek"/>
  <anchor x="608" y="1000" name="top"/>
  <anchor x="892" y="1000" name="topright"/>
  <outline>
    <contour>
      <point x="392" y="-20" type="curve" smooth="yes"/>
      <point x="492" y="-20"/>
      <point x="564" y="18"/>
      <point x="636" y="74" type="curve"/>
      <point x="626" y="0" type="line"/>
      <point x="860" y="0" type="line"/>
      <point x="1036" y="1000" type="line"/>
      <point x="788" y="1000" type="line"/>
      <point x="658" y="272" type="line"/>
      <point x="606" y="218"/>
      <point x="546" y="188"/>
      <point x="470" y="188" type="curve" smooth="yes"/>
      <point x="372" y="188"/>
      <point x="322" y="240"/>
      <point x="322" y="356" type="curve" smooth="yes"/>
      <point x="322" y="382"/>
      <point x="326" y="418"/>
      <point x="336" y="472" type="curve" smooth="yes"/>
      <point x="426" y="1000" type="line"/>
      <point x="178" y="1000" type="line"/>
      <point x="84" y="454" type="line" smooth="yes"/>
      <point x="72" y="386"/>
      <point x="70" y="348"/>
      <point x="70" y="322" type="curve" smooth="yes"/>
      <point x="70" y="114"/>
      <point x="174" y="-20"/>
    </contour>
  </outline>
</glyph>
<glyph name="y" format="2">
  <advance width="1046"/>
  <unicode hex="0079"/>
  <anchor x="724" y="0" name="bottom"/>
  <anchor x="588" y="1000" name="top"/>
  <outline>
    <contour>
      <point x="-6" y="-484" type="line"/>
      <point x="240" y="-484" type="line"/>
      <point x="1106" y="1000" type="line"/>
      <point x="830" y="1000" type="line"/>
      <point x="468" y="356" type="line"/>
      <point x="344" y="1000" type="line"/>
      <point x="68" y="1000" type="line"/>
      <point x="304" y="66" type="line"/>
    </contour>
  </outline>
</glyph>
<glyph name="braceleft" format="2">
  <advance width="688"/>
  <unicode hex="007B"/>
  <outline>
    <contour>
      <point x="422" y="-272" type="curve" smooth="yes"/>
      <point x="496" y="-272" type="line"/>
      <point x="534" y="-54" type="line"/>
      <point x="480" y="-54" type="line" smooth="yes"/>
      <point x="376" y="-54"/>
      <point x="316" y="-22"/>
      <point x="316" y="66" type="curve" smooth="yes"/>
      <point x="316" y="144"/>
      <point x="390" y="344"/>
      <point x="390" y="440" type="curve" smooth="yes"/>
      <point x="390" y="558"/>
      <point x="318" y="612"/>
      <point x="206" y="642" type="curve"/>
      <point x="198" y="586" type="line"/>
      <point x="344" y="622"/>
      <point x="448" y="688"/>
      <point x="478" y="848" type="curve" smooth="yes"/>
      <point x="488" y="928"/>
      <point x="490" y="1038"/>
      <point x="502" y="1120" type="curve" smooth="yes"/>
      <point x="522" y="1240"/>
      <point x="596" y="1282"/>
      <point x="716" y="1282" type="curve" smooth="yes"/>
      <point x="770" y="1282" type="line"/>
      <point x="808" y="1500" type="line"/>
      <point x="734" y="1500" type="line" smooth="yes"/>
      <point x="472" y="1500"/>
      <point x="340" y="1368"/>
      <point x="306" y="1180" type="curve" smooth="yes"/>
      <point x="296" y="1102"/>
      <point x="294" y="994"/>
      <point x="282" y="908" type="curve" smooth="yes"/>
      <point x="256" y="764"/>
      <point x="204" y="694"/>
      <point x="74" y="694" type="curve"/>
      <point x="46" y="534" type="line"/>
      <point x="148" y="534"/>
      <point x="188" y="492"/>
      <point x="188" y="406" type="curve" smooth="yes"/>
      <point x="188" y="254"/>
      <point x="110" y="118"/>
      <point x="110" y="-22" type="curve" smooth="yes"/>
      <point x="108" y="-172"/>
      <point x="200" y="-272"/>
    </contour>
  </outline>
</glyph>
<glyph name="bar" format="2">
  <advance width="472"/>
  <unicode hex="007C"/>
  <outline>
    <contour>
      <point x="-60" y="-420" type="line"/>
      <point x="188" y="-420" type="line"/>
      <point x="528" y="1500" type="line"/>
      <point x="280" y="1500" type="line"/>
    </contour>
  </outline>
</glyph>
<glyph name="asciitilde" format="2">
  <advance width="894"/>
  <unicode hex="007E"/>
  <outline>
    <contour>
      <point x="612" y="578" type="curve" smooth="yes"/>
      <point x="744" y="578"/>
      <point x="826" y="664"/>
      <point x="854" y="848" type="curve"/>
      <point x="684" y="848" type="line"/>
      <point x="676" y="794"/>
      <point x="652" y="762"/>
      <point x="606" y="762" type="curve" smooth="yes"/>
      <point x="518" y="762"/>
      <point x="438" y="858"/>
      <point x="320" y="858" type="curve" smooth="yes"/>
      <point x="188" y="858"/>
      <point x="92" y="764"/>
      <point x="60" y="592" type="curve"/>
      <point x="230" y="592" type="line"/>
      <point x="240" y="644"/>
      <point x="276" y="674"/>
      <point x="326" y="674" type="curve" smooth="yes"/>
      <point x="420" y="674"/>
      <point x="502" y="578"/>
    </contour>
  </outline>
</glyph>
<glyph name="cent" format="2">
  <advance width="920"/>
  <unicode hex="00A2"/>
  <anchor x="438" y="0" name="bottom"/>
  <anchor x="634" y="1000" name="top"/>
  <outline>
    <contour>
      <point x="502" y="68" type="line"/>
      <point x="346" y="68" type="line"/>
      <point x="264" y="-288" type="line"/>
      <point x="460" y="-288" type="line"/>
    </contour>
    <contour>
      <point x="500" y="936" type="line"/>
      <point x="656" y="936" type="line"/>
      <point x="736" y="1278" type="line"/>
      <point x="540" y="1278" type="line"/>
    </contour>
    <component base="c"/>
  </outline>
</glyph>
<glyph name="currency" format="2">
  <advance width="1296"/>
  <unicode hex="00A4"/>
  <outline>
    <contour>
      <point x="536" y="178" type="curve" smooth="yes"/>
      <point x="874" y="178"/>
      <point x="1152" y="450"/>
      <point x="1152" y="796" type="curve" smooth="yes"/>
      <point x="1152" y="1044"/>
      <point x="986" y="1214"/>
      <point x="720" y="1214" type="curve" smooth="yes"/>
      <point x="380" y="1214"/>
      <point x="102" y="938"/>
      <point x="102" y="596" type="curve" smooth="yes"/>
      <point x="102" y="352"/>
      <point x="260" y="178"/>
    </contour>
    <contour>
      <point x="18" y="60" type="line"/>
      <point x="352" y="344" type="line"/>
      <point x="256" y="462" type="line"/>
      <point x="-80" y="176" type="line"/>
    </contour>
    <contour>
      <point x="1026" y="56" type="line"/>
      <point x="1152" y="160" type="line"/>
      <point x="906" y="460" type="line"/>
      <point x="780" y="358" type="line"/>
    </contour>
    <contour>
      <point x="576" y="402" type="curve" smooth="yes"/>
      <point x="434" y="402"/>
      <point x="360" y="492"/>
      <point x="360" y="628" type="curve" smooth="yes"/>
      <point x="360" y="826"/>
      <point x="486" y="990"/>
      <point x="680" y="990" type="curve" smooth="yes"/>
      <point x="822" y="990"/>
      <point x="896" y="900"/>
      <point x="896" y="764" type="curve" smooth="yes"/>
      <point x="896" y="566"/>
      <point x="770" y="402"/>
    </contour>
    <contour>
      <point x="348" y="934" type="line"/>
      <point x="470" y="1042" type="line"/>
      <point x="230" y="1336" type="line"/>
      <point x="104" y="1232" type="line"/>
    </contour>
    <contour>
      <point x="1006" y="936" type="line"/>
      <point x="1336" y="1216" type="line"/>
      <point x="1238" y="1332" type="line"/>
      <point x="908" y="1054" type="line"/>
    </contour>
  </outline>
</glyph>
<glyph name="yen" format="2">
  <advance width="1228"/>
  <unicode hex="00A5"/>
  <outline>
    <contour>
      <point x="102" y="528" type="line"/>
      <point x="902" y="528" type="line"/>
      <point x="932" y="704" type="line"/>
      <point x="132" y="704" type="line"/>
    </contour>
    <contour>
      <point x="52" y="248" type="line"/>
      <point x="852" y="248" type="line"/>
      <point x="882" y="424" type="line"/>
      <point x="82" y="424" type="line"/>
    </contour>
    <component base="Y" xOffset="-86"/>
  </outline>
</glyph>
<glyph name="brokenbar" format="2">
  <advance width="472"/>
  <unicode hex="00A6"/>
  <outline>
    <contour>
      <point x="136" y="684" type="line"/>
      <point x="384" y="684" type="line"/>
      <point x="528" y="1500" type="line"/>
      <point x="280" y="1500" type="line"/>
    </contour>
    <contour>
      <point x="-60" y="-420" type="line"/>
      <point x="188" y="-420" type="line"/>
      <point x="332" y="396" type="line"/>
      <point x="84" y="396" type="line"/>
    </contour>
  </outline>
</glyph>
<glyph name="section" format="2">
  <advance width="928"/>
  <unicode hex="00A7"/>
  <outline>
    <contour>
      <point x="450" y="898" type="curve"/>
      <point x="374" y="974" type="line"/>
      <point x="190" y="892"/>
      <point x="76" y="784"/>
      <point x="76" y="638" type="curve" smooth="yes"/>
      <point x="76" y="366"/>
      <point x="498" y="346"/>
      <point x="498" y="144" type="curve" smooth="yes"/>
      <point x="498" y="70"/>
      <point x="422" y="22"/>
      <point x="318" y="22" type="curve" smooth="yes"/>
      <point x="232" y="22"/>
      <point x="124" y="68"/>
      <point x="54" y="122" type="curve"/>
      <point x="0" y="-88" type="line"/>
      <point x="66" y="-128"/>
      <point x="160" y="-170"/>
      <point x="270" y="-170" type="curve" smooth="yes"/>
      <point x="510" y="-170"/>
      <point x="678" y="-18"/>
      <point x="678" y="190" type="curve" smooth="yes"/>
      <point x="678" y="492"/>
      <point x="278" y="478"/>
      <point x="278" y="686" type="curve" smooth="yes"/>
      <point x="278" y="770"/>
      <point x="346" y="850"/>
    </contour>
    <contour>
      <point x="252" y="836"/>
      <point x="654" y="906"/>
      <point x="654" y="650" type="curve" smooth="yes"/>
      <point x="654" y="562"/>
      <point x="572" y="486"/>
      <point x="474" y="446" type="curve"/>
      <point x="558" y="358" type="line"/>
      <point x="732" y="446"/>
      <point x="852" y="534"/>
      <point x="852" y="692" type="curve" smooth="yes"/>
      <point x="852" y="1022"/>
      <point x="434" y="1000"/>
      <point x="434" y="1188" type="curve" smooth="yes"/>
      <point x="434" y="1272"/>
      <point x="516" y="1308"/>
      <point x="602" y="1308" type="curve" smooth="yes"/>
      <point x="704" y="1308"/>
      <point x="800" y="1262"/>
      <point x="874" y="1208" type="curve"/>
      <point x="928" y="1418" type="line"/>
      <point x="874" y="1458"/>
      <point x="788" y="1500"/>
      <point x="670" y="1500" type="curve" smooth="yes"/>
      <point x="434" y="1500"/>
      <point x="252" y="1352"/>
      <point x="252" y="1144" type="curve" smooth="yes"/>
    </contour>
  </outline>
</glyph>
<glyph name="ordfeminine" format="2">
  <advance width="632"/>
  <unicode hex="00AA"/>
  <outline>
    <contour>
      <point x="264" y="868" type="curve" smooth="yes"/>
      <point x="318" y="868"/>
      <point x="392" y="892"/>
      <point x="434" y="932" type="curve"/>
      <point x="446" y="888"/>
      <point x="494" y="868"/>
      <point x="564" y="868" type="curve" smooth="yes"/>
      <point x="634" y="868" type="line"/>
      <point x="672" y="1038" type="line"/>
      <point x="666" y="1038" type="line" smooth="yes"/>
      <point x="642" y="1038"/>
      <point x="634" y="1044"/>
      <point x="634" y="1062" type="curve" smooth="yes"/>
      <point x="634" y="1068"/>
      <point x="636" y="1080"/>
      <point x="638" y="1090" type="curve" smooth="yes"/>
      <point x="668" y="1258" type="line" smooth="yes"/>
      <point x="670" y="1268"/>
      <point x="672" y="1282"/>
      <point x="672" y="1296" type="curve" smooth="yes"/>
      <point x="672" y="1400"/>
      <point x="596" y="1464"/>
      <point x="466" y="1464" type="curve" smooth="yes"/>
      <point x="392" y="1464"/>
      <point x="312" y="1450"/>
      <point x="222" y="1426" type="curve"/>
      <point x="204" y="1264" type="line"/>
      <point x="262" y="1282"/>
      <point x="328" y="1294"/>
      <point x="386" y="1294" type="curve" smooth="yes"/>
      <point x="446" y="1294"/>
      <point x="460" y="1282"/>
      <point x="460" y="1264" type="curve" smooth="yes"/>
      <point x="460" y="1262"/>
      <point x="460" y="1260"/>
      <point x="460" y="1258" type="curve"/>
      <point x="274" y="1238"/>
      <point x="100" y="1166"/>
      <point x="100" y="1014" type="curve" smooth="yes"/>
      <point x="100" y="924"/>
      <point x="164" y="868"/>
    </contour>
    <contour>
      <point x="422" y="1028" type="line"/>
      <point x="402" y="1016"/>
      <point x="386" y="1010"/>
      <point x="364" y="1010" type="curve" smooth="yes"/>
      <point x="338" y="1010"/>
      <point x="324" y="1024"/>
      <point x="324" y="1046" type="curve" smooth="yes"/>
      <point x="324" y="1098"/>
      <point x="380" y="1118"/>
      <point x="438" y="1126" type="curve"/>
    </contour>
  </outline>
</glyph>
<glyph name="logicalnot" format="2">
  <advance width="1012"/>
  <unicode hex="00AC"/>
  <outline>
    <contour>
      <point x="648" y="302" type="line"/>
      <point x="852" y="302" type="line"/>
      <point x="940" y="812" type="line"/>
      <point x="92" y="812" type="line"/>
      <point x="60" y="624" type="line"/>
      <point x="704" y="624" type="line"/>
    </contour>
  </outline>
</glyph>
<glyph name="softhyphen" format="2">
  <advance width="858"/>
  <unicode hex="00AD"/>
  <outline>
    <contour>
      <point x="108" y="528" type="line"/>
      <point x="704" y="528" type="line"/>
      <point x="738" y="716" type="line"/>
      <point x="144" y="716" type="line"/>
    </contour>
  </outline>
</glyph>
<glyph name="registered" format="2">
  <advance width="1390"/>
  <unicode hex="00AE"/>
  <outline>
    <contour>
      <point x="604" y="74" type="curve"/>
      <point x="1000" y="74"/>
      <point x="1330" y="398"/>
      <point x="1330" y="852" type="curve" smooth="yes"/>
      <point x="1330" y="1174"/>
      <point x="1136" y="1386"/>
      <point x="836" y="1386" type="curve" smooth="yes"/>
      <point x="440" y="1386"/>
      <point x="110" y="1064"/>
      <point x="110" y="610" type="curve" smooth="yes"/>
      <point x="110" y="288"/>
      <point x="304" y="74"/>
    </contour>
    <contour>
      <point x="418" y="406" type="line"/>
      <point x="596" y="406" type="line"/>
      <point x="634" y="630" type="line"/>
      <point x="684" y="630" type="line"/>
      <point x="764" y="406" type="line"/>
      <point x="952" y="406" type="line"/>
      <point x="856" y="682" type="line"/>
      <point x="912" y="716"/>
      <point x="982" y="794"/>
      <point x="982" y="906" type="curve" smooth="yes"/>
      <point x="982" y="1036"/>
      <point x="898" y="1076"/>
      <point x="784" y="1076" type="curve" smooth="yes"/>
      <point x="536" y="1076" type="line"/>
    </contour>
    <contour>
      <point x="630" y="214" type="curve" smooth="yes"/>
      <point x="384" y="214"/>
      <point x="268" y="386"/>
      <point x="268" y="618" type="curve" smooth="yes"/>
      <point x="268" y="954"/>
      <point x="460" y="1244"/>
      <point x="812" y="1244" type="curve"/>
      <point x="1058" y="1244"/>
      <point x="1170" y="1076"/>
      <point x="1170" y="844" type="curve" smooth="yes"/>
      <point x="1170" y="508"/>
      <point x="982" y="214"/>
    </contour>
    <contour>
      <point x="664" y="792" type="line"/>
      <point x="688" y="926" type="line"/>
      <point x="732" y="926" type="line" smooth="yes"/>
      <point x="786" y="926"/>
      <point x="798" y="908"/>
      <point x="798" y="880" type="curve" smooth="yes"/>
      <point x="798" y="822"/>
      <point x="774" y="792"/>
      <point x="704" y="792" type="curve" smooth="yes"/>
    </contour>
  </outline>
</glyph>
<glyph name="degree" format="2">
  <advance width="590"/>
  <unicode hex="00B0"/>
  <outline>
    <contour>
      <point x="296" y="964" type="curve" smooth="yes"/>
      <point x="474" y="964"/>
      <point x="610" y="1110"/>
      <point x="610" y="1292" type="curve" smooth="yes"/>
      <point x="610" y="1414"/>
      <point x="536" y="1510"/>
      <point x="392" y="1510" type="curve" smooth="yes"/>
      <point x="216" y="1510"/>
      <point x="80" y="1362"/>
      <point x="80" y="1180" type="curve" smooth="yes"/>
      <point x="80" y="1058"/>
      <point x="154" y="964"/>
    </contour>
    <contour>
      <point x="318" y="1086" type="curve" smooth="yes"/>
      <point x="254" y="1086"/>
      <point x="216" y="1130"/>
      <point x="216" y="1200" type="curve" smooth="yes"/>
      <point x="216" y="1292"/>
      <point x="274" y="1388"/>
      <point x="370" y="1388" type="curve" smooth="yes"/>
      <point x="438" y="1388"/>
      <point x="472" y="1344"/>
      <point x="472" y="1274" type="curve" smooth="yes"/>
      <point x="472" y="1178"/>
      <point x="418" y="1086"/>
    </contour>
  </outline>
</glyph>
<glyph name="plusminus" format="2">
  <advance width="890"/>
  <unicode hex="00B1"/>
  <outline>
    <contour>
      <point x="268" y="370" type="line"/>
      <point x="464" y="370" type="line"/>
      <point x="510" y="630" type="line"/>
      <point x="774" y="630" type="line"/>
      <point x="806" y="810" type="line"/>
      <point x="542" y="810" type="line"/>
      <point x="588" y="1070" type="line"/>
      <point x="392" y="1070" type="line"/>
      <point x="346" y="810" type="line"/>
      <point x="82" y="810" type="line"/>
      <point x="50" y="630" type="line"/>
      <point x="314" y="630" type="line"/>
    </contour>
    <contour>
      <point x="-44" y="94" type="line"/>
      <point x="680" y="94" type="line"/>
      <point x="712" y="274" type="line"/>
      <point x="-12" y="274" type="line"/>
    </contour>
  </outline>
</glyph>
<glyph name="micro" format="2">
  <advance width="1162"/>
  <unicode hex="00B5"/>
  <outline>
    <contour>
      <point x="-40" y="-484" type="line"/>
      <point x="208" y="-484" type="line"/>
      <point x="296" y="18" type="line"/>
      <point x="334" y="-4"/>
      <point x="384" y="-20"/>
      <point x="442" y="-20" type="curve" smooth="yes"/>
      <point x="548" y="-20"/>
      <point x="646" y="38"/>
      <point x="712" y="104" type="curve"/>
      <point x="736" y="24"/>
      <point x="802" y="-20"/>
      <point x="906" y="-20" type="curve" smooth="yes"/>
      <point x="990" y="-20" type="line"/>
      <point x="1048" y="184" type="line"/>
      <point x="1006" y="184" type="line" smooth="yes"/>
      <point x="968" y="184"/>
      <point x="950" y="204"/>
      <point x="950" y="240" type="curve" smooth="yes"/>
      <point x="950" y="264"/>
      <point x="956" y="300"/>
      <point x="964" y="344" type="curve" smooth="yes"/>
      <point x="1078" y="1000" type="line"/>
      <point x="830" y="1000" type="line"/>
      <point x="702" y="272" type="line"/>
      <point x="652" y="218"/>
      <point x="592" y="188"/>
      <point x="516" y="188" type="curve" smooth="yes"/>
      <point x="414" y="188"/>
      <point x="358" y="242"/>
      <point x="358" y="344" type="curve" smooth="yes"/>
      <point x="358" y="368"/>
      <point x="362" y="394"/>
      <point x="366" y="422" type="curve" smooth="yes"/>
      <point x="468" y="1000" type="line"/>
      <point x="220" y="1000" type="line"/>
    </contour>
  </outline>
</glyph>
<glyph name="periodcentered" format="2">
  <advance width="460"/>
  <unicode hex="00B7"/>
  <outline>
    <contour>
      <point x="82" y="426" type="line"/>
      <point x="320" y="426" type="line"/>
      <point x="366" y="686" type="line"/>
      <point x="128" y="686" type="line"/>
    </contour>
  </outline>
</glyph>
<glyph name="ordmasculine" format="2">
  <advance width="686"/>
  <unicode hex="00BA"/>
  <outline>
    <contour>
      <point x="380" y="868" type="curve" smooth="yes"/>
      <point x="580" y="868"/>
      <point x="744" y="1026"/>
      <point x="746" y="1220" type="curve" smooth="yes"/>
      <point x="744" y="1354"/>
      <point x="656" y="1464"/>
      <point x="484" y="1464" type="curve" smooth="yes"/>
      <point x="276" y="1464"/>
      <point x="120" y="1306"/>
      <point x="120" y="1114" type="curve" smooth="yes"/>
      <point x="118" y="982"/>
      <point x="208" y="868"/>
    </contour>
    <contour>
      <point x="406" y="1022" type="curve" smooth="yes"/>
      <point x="356" y="1022"/>
      <point x="330" y="1058"/>
      <point x="330" y="1122" type="curve" smooth="yes"/>
      <point x="330" y="1210"/>
      <point x="370" y="1310"/>
      <point x="458" y="1310" type="curve" smooth="yes"/>
      <point x="508" y="1310"/>
      <point x="534" y="1276"/>
      <point x="534" y="1212" type="curve" smooth="yes"/>
      <point x="534" y="1120"/>
      <point x="494" y="1022"/>
    </contour>
  </outline>
</glyph>
<glyph name="guillemetright" format="2">
  <advance width="1190"/>
  <unicode hex="00BB"/>
  <outline>
    <contour>
      <point x="498" y="156" type="line"/>
      <point x="794" y="156" type="line"/>
      <point x="1160" y="568" type="line"/>
      <point x="940" y="980" type="line"/>
      <point x="642" y="980" type="line"/>
      <point x="864" y="568" type="line"/>
    </contour>
    <contour>
      <point x="-2" y="156" type="line"/>
      <point x="294" y="156" type="line"/>
      <point x="660" y="568" type="line"/>
      <point x="440" y="980" type="line"/>
      <point x="144" y="980" type="line"/>
      <point x="364" y="568" type="line"/>
    </contour>
  </outline>
</glyph>
<glyph name="Eth" format="2">
  <advance width="1432"/>
  <unicode hex="00D0"/>
  <outline>
    <contour>
      <point x="78" y="0" type="line"/>
      <point x="582" y="0" type="line" smooth="yes"/>
      <point x="1024" y="0"/>
      <point x="1384" y="324"/>
      <point x="1384" y="832" type="curve" smooth="yes"/>
      <point x="1384" y="1188"/>
      <point x="1164" y="1400"/>
      <point x="830" y="1400" type="curve" smooth="yes"/>
      <point x="324" y="1400" type="line"/>
    </contour>
    <contour>
      <point x="56" y="618" type="line"/>
      <point x="700" y="618" type="line"/>
      <point x="732" y="806" type="line"/>
      <point x="90" y="806" type="line"/>
    </contour>
    <contour>
      <point x="378" y="246" type="line"/>
      <point x="538" y="1154" type="line"/>
      <point x="786" y="1154" type="line" smooth="yes"/>
      <point x="998" y="1154"/>
      <point x="1100" y="1020"/>
      <point x="1100" y="808" type="curve" smooth="yes"/>
      <point x="1100" y="486"/>
      <point x="936" y="246"/>
      <point x="626" y="246" type="curve" smooth="yes"/>
    </contour>
  </outline>
</glyph>
<glyph name="multiply" format="2">
  <advance width="930"/>
  <unicode hex="00D7"/>
  <outline>
    <contour>
      <point x="130" y="186" type="line"/>
      <point x="830" y="780" type="line"/>
      <point x="712" y="922" type="line"/>
      <point x="12" y="328" type="line"/>
    </contour>
    <contour>
      <point x="744" y="312" type="line"/>
      <point x="246" y="918" type="line"/>
      <point x="100" y="796" type="line"/>
      <point x="598" y="190" type="line"/>
    </contour>
  </outline>
</glyph>
<glyph name="Oslash" format="2">
  <advance width="1484"/>
  <unicode hex="00D8"/>
  <anchor x="618" y="0" name="bottom"/>
  <anchor x="708" y="0" name="ogonek"/>
  <anchor x="894" y="1400" name="top"/>
  <anchor x="1054" y="1400" name="topright"/>
  <outline>
    <contour>
      <point x="1258" y="1488" type="line"/>
      <point x="48" y="-88" type="line"/>
      <point x="250" y="-88" type="line"/>
      <point x="1462" y="1488" type="line"/>
    </contour>
    <component base="O"/>
  </outline>
</glyph>
<glyph name="Thorn" format="2">
  <advance width="1074"/>
  <unicode hex="00DE"/>
  <outline>
    <contour>
      <point x="32" y="0" type="line"/>
      <point x="286" y="0" type="line"/>
      <point x="344" y="330" type="line"/>
      <point x="568" y="330" type="line" smooth="yes"/>
      <point x="886" y="330"/>
      <point x="1094" y="500"/>
      <point x="1094" y="790" type="curve" smooth="yes"/>
      <point x="1094" y="992"/>
      <point x="962" y="1110"/>
      <point x="706" y="1110" type="curve" smooth="yes"/>
      <point x="482" y="1110" type="line"/>
      <point x="534" y="1400" type="line"/>
      <point x="280" y="1400" type="line"/>
    </contour>
    <contour>
      <point x="382" y="544" type="line"/>
      <point x="444" y="896" type="line"/>
      <point x="636" y="896" type="line" smooth="yes"/>
      <point x="772" y="896"/>
      <point x="828" y="848"/>
      <point x="828" y="752" type="curve" smooth="yes"/>
      <point x="828" y="616"/>
      <point x="744" y="544"/>
      <point x="574" y="544" type="curve" smooth="yes"/>
    </contour>
  </outline>
</glyph>
<glyph name="germandbls" format="2">
  <advance width="1262"/>
  <unicode hex="00DF"/>
  <outline>
    <contour>
      <point x="638" y="-28" type="curve" smooth="yes"/>
      <point x="910" y="-28"/>
      <point x="1168" y="122"/>
      <point x="1168" y="378" type="curve" smooth="yes"/>
      <point x="1168" y="626"/>
      <point x="886" y="650"/>
      <point x="886" y="786" type="curve" smooth="yes"/>
      <point x="886" y="854"/>
      <point x="960" y="904"/>
      <point x="1034" y="970" type="curve" smooth="yes"/>
      <point x="1134" y="1058"/>
      <point x="1202" y="1130"/>
      <point x="1202" y="1262" type="curve" smooth="yes"/>
      <point x="1202" y="1428"/>
      <point x="1056" y="1528"/>
      <point x="822" y="1528" type="curve" smooth="yes"/>
      <point x="534" y="1528"/>
      <point x="310" y="1374"/>
      <point x="254" y="1060" type="curve" smooth="yes"/>
      <point x="244" y="1000" type="line"/>
      <point x="134" y="1000" type="line"/>
      <point x="76" y="796" type="line"/>
      <point x="208" y="796" type="line"/>
      <point x="68" y="0" type="line"/>
      <point x="318" y="0" type="line"/>
      <point x="506" y="1064" type="line" smooth="yes"/>
      <point x="534" y="1226"/>
      <point x="626" y="1324"/>
      <point x="782" y="1324" type="curve" smooth="yes"/>
      <point x="890" y="1324"/>
      <point x="946" y="1280"/>
      <point x="946" y="1210" type="curve" smooth="yes"/>
      <point x="946" y="1130"/>
      <point x="894" y="1084"/>
      <point x="800" y="1004" type="curve" smooth="yes"/>
      <point x="696" y="914"/>
      <point x="624" y="838"/>
      <point x="624" y="746" type="curve" smooth="yes"/>
      <point x="624" y="560"/>
      <point x="912" y="552"/>
      <point x="912" y="364" type="curve" smooth="yes"/>
      <point x="912" y="240"/>
      <point x="806" y="176"/>
      <point x="676" y="176" type="curve" smooth="yes"/>
      <point x="606" y="176"/>
      <point x="544" y="182"/>
      <point x="480" y="194" type="curve"/>
      <point x="444" y="-10" type="line"/>
      <point x="510" y="-22"/>
      <point x="568" y="-28"/>
    </contour>
  </outline>
</glyph>
<glyph name="eth" format="2">
  <advance width="1000"/>
  <unicode hex="00F0"/>
  <outline>
    <contour>
      <point x="396" y="-26" type="curve" smooth="yes"/>
      <point x="730" y="-26"/>
      <point x="924" y="258"/>
      <point x="924" y="644" type="curve" smooth="yes"/>
      <point x="924" y="1028"/>
      <point x="698" y="1278"/>
      <point x="432" y="1402" type="curve"/>
      <point x="356" y="1288" type="line"/>
      <point x="576" y="1184"/>
      <point x="718" y="962"/>
      <point x="718" y="726" type="curve"/>
      <point x="674" y="794"/>
      <point x="594" y="852"/>
      <point x="468" y="852" type="curve" smooth="yes"/>
      <point x="182" y="852"/>
      <point x="4" y="610"/>
      <point x="4" y="350" type="curve" smooth="yes"/>
      <point x="4" y="130"/>
      <point x="162" y="-26"/>
    </contour>
    <contour>
      <point x="426" y="176" type="curve" smooth="yes"/>
      <point x="306" y="176"/>
      <point x="242" y="258"/>
      <point x="242" y="374" type="curve" smooth="yes"/>
      <point x="242" y="514"/>
      <point x="334" y="658"/>
      <point x="488" y="658" type="curve" smooth="yes"/>
      <point x="604" y="658"/>
      <point x="662" y="578"/>
      <point x="662" y="448" type="curve" smooth="yes"/>
      <point x="662" y="256"/>
      <point x="530" y="176"/>
    </contour>
    <contour>
      <point x="370" y="966" type="line"/>
      <point x="924" y="1204" type="line"/>
      <point x="862" y="1338" type="line"/>
      <point x="306" y="1100" type="line"/>
    </contour>
  </outline>
</glyph>
<glyph name="divide" format="2">
  <advance width="948"/>
  <unicode hex="00F7"/>
  <outline>
    <contour>
      <point x="12" y="460" type="line"/>
      <point x="816" y="460" type="line"/>
      <point x="848" y="648" type="line"/>
      <point x="44" y="648" type="line"/>
    </contour>
    <contour>
      <point x="232" y="88" type="line"/>
      <point x="464" y="88" type="line"/>
      <point x="508" y="340" type="line"/>
      <point x="276" y="340" type="line"/>
    </contour>
    <contour>
      <point x="352" y="768" type="line"/>
      <point x="584" y="768" type="line"/>
      <point x="628" y="1020" type="line"/>
      <point x="396" y="1020" type="line"/>
    </contour>
  </outline>
</glyph>
<glyph name="oslash" format="2">
  <advance width="1098"/>
  <unicode hex="00F8"/>
  <outline>
    <contour>
      <point x="872" y="1060" type="line"/>
      <point x="30" y="-80" type="line"/>
      <point x="204" y="-80" type="line"/>
      <point x="1046" y="1060" type="line"/>
    </contour>
    <component base="o"/>
  </outline>
</glyph>
<glyph name="thorn" format="2">
  <advance width="1120"/>
  <unicode hex="00FE"/>
  <outline>
    <contour>
      <point x="-72" y="-484" type="line"/>
      <point x="176" y="-484" type="line"/>
      <point x="280" y="112" type="line"/>
      <point x="330" y="38"/>
      <point x="418" y="-20"/>
      <point x="552" y="-20" type="curve" smooth="yes"/>
      <point x="860" y="-20"/>
      <point x="1052" y="228"/>
      <point x="1052" y="594" type="curve" smooth="yes"/>
      <point x="1052" y="848"/>
      <point x="924" y="1016"/>
      <point x="700" y="1016" type="curve" smooth="yes"/>
      <point x="588" y="1016"/>
      <point x="500" y="978"/>
      <point x="424" y="924" type="curve"/>
      <point x="526" y="1500" type="line"/>
      <point x="278" y="1500" type="line"/>
    </contour>
    <contour>
      <point x="532" y="184" type="curve" smooth="yes"/>
      <point x="390" y="184"/>
      <point x="326" y="264"/>
      <point x="326" y="408" type="curve" smooth="yes"/>
      <point x="326" y="632"/>
      <point x="438" y="812"/>
      <point x="622" y="812" type="curve" smooth="yes"/>
      <point x="744" y="812"/>
      <point x="796" y="714"/>
      <point x="796" y="570" type="curve" smooth="yes"/>
      <point x="796" y="344"/>
      <point x="690" y="184"/>
    </contour>
  </outline>
</glyph>
<glyph name="Hbar" format="2">
  <advance width="1448"/>
  <unicode hex="0126"/>
  <anchor x="616" y="0" name="bottom"/>
  <anchor x="862" y="1400" name="top"/>
  <outline>
    <contour>
      <point x="114" y="976" type="line"/>
      <point x="1460" y="976" type="line"/>
      <point x="1492" y="1156" type="line"/>
      <point x="144" y="1156" type="line"/>
    </contour>
    <component base="H"/>
  </outline>
</glyph>
<glyph name="idotless" format="2">
  <advance width="484"/>
  <unicode hex="0131"/>
  <anchor x="144" y="0" name="bottom"/>
  <anchor x="198" y="0" name="ogonek"/>
  <anchor x="314" y="1000" name="top"/>
  <outline>
    <contour>
      <point x="14" y="0" type="line"/>
      <point x="262" y="0" type="line"/>
      <point x="438" y="1000" type="line"/>
      <point x="190" y="1000" type="line"/>
    </contour>
  </outline>
</glyph>
<glyph name="IJ" format="2">
  <advance width="1390"/>
  <unicode hex="0132"/>
  <outline>
    <contour>
      <point x="588" y="-28" type="curve" smooth="yes"/>
      <point x="966" y="-28"/>
      <point x="1186" y="220"/>
      <point x="1254" y="600" type="curve" smooth="yes"/>
      <point x="1396" y="1400" type="line"/>
      <point x="1140" y="1400" type="line"/>
      <point x="1014" y="686" type="line" smooth="yes"/>
      <point x="968" y="426"/>
      <point x="880" y="218"/>
      <point x="630" y="218" type="curve" smooth="yes"/>
      <point x="458" y="218"/>
      <point x="400" y="316"/>
      <point x="392" y="464" type="curve"/>
      <point x="126" y="400" type="line"/>
      <point x="134" y="132"/>
      <point x="282" y="-28"/>
    </contour>
    <contour>
      <point x="142" y="606" type="line"/>
      <point x="400" y="606" type="line"/>
      <point x="402" y="630"/>
      <point x="406" y="658"/>
      <point x="412" y="686" type="curve" smooth="yes"/>
      <point x="538" y="1400" type="line"/>
      <point x="284" y="1400" type="line"/>
    </contour>
  </outline>
</glyph>
<glyph name="kgreenlandic" format="2">
  <advance width="1014"/>
  <unicode hex="0138"/>
  <outline>
    <contour>
      <point x="14" y="0" type="line"/>
      <point x="262" y="0" type="line"/>
      <point x="344" y="466" type="line"/>
      <point x="620" y="0" type="line"/>
      <point x="900" y="0" type="line"/>
      <point x="564" y="524" type="line"/>
      <point x="1074" y="1000" type="line"/>
      <point x="768" y="1000" type="line"/>
      <point x="370" y="612" type="line"/>
      <point x="438" y="1000" type="line"/>
      <point x="188" y="1000" type="line"/>
    </contour>
  </outline>
</glyph>
<glyph name="Lslash" format="2">
  <advance width="980"/>
  <unicode hex="0141"/>
  <outline>
    <contour>
      <point x="34" y="642" type="line"/>
      <point x="826" y="940" type="line"/>
      <point x="862" y="1140" type="line"/>
      <point x="70" y="842" type="line"/>
    </contour>
    <component base="L"/>
  </outline>
</glyph>
<glyph name="lslash" format="2">
  <advance width="528"/>
  <unicode hex="0142"/>
  <outline>
    <contour>
      <point x="0" y="668" type="line"/>
      <point x="576" y="884" type="line"/>
      <point x="608" y="1058" type="line"/>
      <point x="32" y="842" type="line"/>
    </contour>
    <component base="l"/>
  </outline>
</glyph>
<glyph name="Eng" format="2">
  <advance width="1394"/>
  <unicode hex="014A"/>
  <outline>
    <contour>
      <point x="1166" y="76" type="curve" smooth="yes"/>
      <point x="1298" y="836" type="line" smooth="yes"/>
      <point x="1310" y="900"/>
      <point x="1314" y="952"/>
      <point x="1314" y="1006" type="curve" smooth="yes"/>
      <point x="1314" y="1250"/>
      <point x="1188" y="1428"/>
      <point x="920" y="1428" type="curve" smooth="yes"/>
      <point x="774" y="1428"/>
      <point x="632" y="1372"/>
      <point x="518" y="1266" type="curve"/>
      <point x="530" y="1400" type="line"/>
      <point x="312" y="1400" type="line"/>
      <point x="64" y="0" type="line"/>
      <point x="320" y="0" type="line"/>
      <point x="504" y="1038" type="line"/>
      <point x="576" y="1124"/>
      <point x="682" y="1182"/>
      <point x="814" y="1182" type="curve" smooth="yes"/>
      <point x="968" y="1182"/>
      <point x="1046" y="1088"/>
      <point x="1046" y="926" type="curve" smooth="yes"/>
      <point x="1046" y="886"/>
      <point x="1042" y="846"/>
      <point x="1034" y="796" type="curve" smooth="yes"/>
      <point x="906" y="60" type="line" smooth="yes"/>
      <point x="878" y="-100"/>
      <point x="780" y="-164"/>
      <point x="650" y="-164" type="curve" smooth="yes"/>
      <point x="590" y="-164"/>
      <point x="530" y="-156"/>
      <point x="476" y="-138" type="curve"/>
      <point x="408" y="-374" type="line"/>
      <point x="474" y="-398"/>
      <point x="546" y="-410"/>
      <point x="624" y="-410" type="curve" smooth="yes"/>
      <point x="892" y="-410"/>
      <point x="1110" y="-254"/>
    </contour>
  </outline>
</glyph>
<glyph name="eng" format="2">
  <advance width="1158"/>
  <unicode hex="014B"/>
  <outline>
    <contour>
      <point x="908" y="24" type="curve" smooth="yes"/>
      <point x="1002" y="558" type="line" smooth="yes"/>
      <point x="1010" y="604"/>
      <point x="1014" y="648"/>
      <point x="1014" y="690" type="curve" smooth="yes"/>
      <point x="1014" y="878"/>
      <point x="928" y="1016"/>
      <point x="736" y="1016" type="curve" smooth="yes"/>
      <point x="628" y="1016"/>
      <point x="538" y="980"/>
      <point x="458" y="930" type="curve"/>
      <point x="466" y="1000" type="line"/>
      <point x="234" y="1000" type="line"/>
      <point x="58" y="0" type="line"/>
      <point x="306" y="0" type="line"/>
      <point x="436" y="738" type="line"/>
      <point x="490" y="780"/>
      <point x="550" y="812"/>
      <point x="626" y="812" type="curve" smooth="yes"/>
      <point x="720" y="812"/>
      <point x="762" y="758"/>
      <point x="762" y="644" type="curve" smooth="yes"/>
      <point x="762" y="614"/>
      <point x="758" y="578"/>
      <point x="750" y="538" type="curve" smooth="yes"/>
      <point x="658" y="14" type="line" smooth="yes"/>
      <point x="638" y="-102"/>
      <point x="578" y="-154"/>
      <point x="476" y="-154" type="curve" smooth="yes"/>
      <point x="430" y="-154"/>
      <point x="386" y="-142"/>
      <point x="342" y="-124" type="curve"/>
      <point x="280" y="-324" type="line"/>
      <point x="342" y="-346"/>
      <point x="412" y="-358"/>
      <point x="484" y="-358" type="curve" smooth="yes"/>
      <point x="720" y="-358"/>
      <point x="866" y="-212"/>
    </contour>
  </outline>
</glyph>
<glyph name="OE" format="2">
  <advance width="2057"/>
  <unicode hex="0152"/>
  <anchor x="1241" y="1400" name="top"/>
  <outline>
    <contour>
      <point x="609" y="-28" type="curve" smooth="yes"/>
      <point x="1007" y="-28"/>
      <point x="1345" y="342"/>
      <point x="1345" y="842" type="curve" smooth="yes"/>
      <point x="1345" y="1158"/>
      <point x="1139" y="1428"/>
      <point x="825" y="1428" type="curve" smooth="yes"/>
      <point x="423" y="1428"/>
      <point x="85" y="1064"/>
      <point x="85" y="574" type="curve" smooth="yes"/>
      <point x="85" y="184"/>
      <point x="305" y="-28"/>
    </contour>
    <contour>
      <point x="679" y="218" type="curve" smooth="yes"/>
      <point x="467" y="218"/>
      <point x="367" y="364"/>
      <point x="367" y="596" type="curve" smooth="yes"/>
      <point x="367" y="902"/>
      <point x="543" y="1182"/>
      <point x="839" y="1182" type="curve" smooth="yes"/>
      <point x="1055" y="1182"/>
      <point x="1157" y="1044"/>
      <point x="1157" y="824" type="curve" smooth="yes"/>
      <point x="1157" y="508"/>
      <point x="1001" y="218"/>
    </contour>
    <contour>
      <point x="1035" y="0" type="line"/>
      <point x="1885" y="0" type="line"/>
      <point x="1929" y="248" type="line"/>
      <point x="1305" y="248" type="line"/>
      <point x="1369" y="606" type="line"/>
      <point x="1835" y="606" type="line"/>
      <point x="1879" y="854" type="line"/>
      <point x="1413" y="854" type="line"/>
      <point x="1465" y="1152" type="line"/>
      <point x="2069" y="1152" type="line"/>
      <point x="2113" y="1400" type="line"/>
      <point x="1281" y="1400" type="line"/>
    </contour>
  </outline>
</glyph>
<glyph name="oe" format="2">
  <advance width="1728"/>
  <unicode hex="0153"/>
  <outline>
    <contour>
      <point x="440" y="-20" type="curve" smooth="yes"/>
      <point x="596" y="-20"/>
      <point x="726" y="42"/>
      <point x="832" y="142" type="curve"/>
      <point x="904" y="42"/>
      <point x="1028" y="-20"/>
      <point x="1198" y="-20" type="curve" smooth="yes"/>
      <point x="1338" y="-20"/>
      <point x="1456" y="16"/>
      <point x="1538" y="56" type="curve"/>
      <point x="1564" y="266" type="line"/>
      <point x="1478" y="222"/>
      <point x="1342" y="184"/>
      <point x="1254" y="184" type="curve" smooth="yes"/>
      <point x="1140" y="184"/>
      <point x="1046" y="242"/>
      <point x="1022" y="380" type="curve" smooth="yes"/>
      <point x="1018" y="400"/>
      <point x="1016" y="422"/>
      <point x="1016" y="446" type="curve"/>
      <point x="1630" y="446" type="line"/>
      <point x="1660" y="520"/>
      <point x="1680" y="574"/>
      <point x="1680" y="658" type="curve" smooth="yes"/>
      <point x="1680" y="876"/>
      <point x="1536" y="1016"/>
      <point x="1324" y="1016" type="curve" smooth="yes"/>
      <point x="1170" y="1016"/>
      <point x="1050" y="954"/>
      <point x="954" y="858" type="curve"/>
      <point x="884" y="954"/>
      <point x="780" y="1016"/>
      <point x="622" y="1016" type="curve" smooth="yes"/>
      <point x="272" y="1016"/>
      <point x="34" y="724"/>
      <point x="34" y="408" type="curve" smooth="yes"/>
      <point x="34" y="174"/>
      <point x="172" y="-20"/>
    </contour>
    <contour>
      <point x="476" y="184" type="curve" smooth="yes"/>
      <point x="354" y="184"/>
      <point x="290" y="282"/>
      <point x="290" y="424" type="curve" smooth="yes"/>
      <point x="290" y="640"/>
      <point x="410" y="812"/>
      <point x="586" y="812" type="curve" smooth="yes"/>
      <point x="708" y="812"/>
      <point x="774" y="714"/>
      <point x="774" y="572" type="curve" smooth="yes"/>
      <point x="774" y="354"/>
      <point x="650" y="184"/>
    </contour>
    <contour>
      <point x="1052" y="614" type="line"/>
      <point x="1094" y="728"/>
      <point x="1176" y="812"/>
      <point x="1296" y="812" type="curve" smooth="yes"/>
      <point x="1404" y="812"/>
      <point x="1430" y="736"/>
      <point x="1430" y="672" type="curve" smooth="yes"/>
      <point x="1430" y="660"/>
      <point x="1426" y="624"/>
      <point x="1424" y="614" type="curve"/>
    </contour>
  </outline>
</glyph>
<glyph name="Tbar" format="2">
  <advance width="1128"/>
  <unicode hex="0166"/>
  <anchor x="462" y="0" name="bottom"/>
  <anchor x="708" y="1400" name="top"/>
  <outline>
    <contour>
      <point x="180" y="612" type="line"/>
      <point x="958" y="612" type="line"/>
      <point x="988" y="778" type="line"/>
      <point x="210" y="778" type="line"/>
    </contour>
    <component base="T"/>
  </outline>
</glyph>
<glyph name="tbar" format="2">
  <advance width="696"/>
  <unicode hex="0167"/>
  <anchor x="359" y="0" name="bottom"/>
  <anchor x="359" y="490" name="center"/>
  <anchor x="432" y="1228" name="top"/>
  <anchor x="686" y="1444" name="topright"/>
  <outline>
    <contour>
      <point x="36" y="448" type="line"/>
      <point x="616" y="448" type="line"/>
      <point x="648" y="614" type="line"/>
      <point x="68" y="614" type="line"/>
    </contour>
    <component base="t" xOffset="20"/>
  </outline>
</glyph>
<glyph name="Schwa" format="2">
  <advance width="1398"/>
  <unicode hex="018F"/>
  <outline>
    <contour>
      <point x="1076" y="500"/>
      <point x="914" y="218"/>
      <point x="614" y="218" type="curve" smooth="yes"/>
      <point x="416" y="218"/>
      <point x="326" y="330"/>
      <point x="326" y="482" type="curve" smooth="yes"/>
      <point x="326" y="496"/>
      <point x="326" y="510"/>
      <point x="328" y="524" type="curve"/>
      <point x="1194" y="524" type="line"/>
      <point x="1236" y="752" type="line"/>
      <point x="114" y="752" type="line"/>
      <point x="78" y="672"/>
      <point x="56" y="560"/>
      <point x="56" y="472" type="curve" smooth="yes"/>
      <point x="56" y="164"/>
      <point x="256" y="-28"/>
      <point x="580" y="-28" type="curve" smooth="yes"/>
      <point x="1028" y="-28"/>
      <point x="1356" y="380"/>
      <point x="1356" y="846" type="curve" smooth="yes"/>
      <point x="1356" y="1182"/>
      <point x="1158" y="1428"/>
      <point x="774" y="1428" type="curve" smooth="yes"/>
      <point x="594" y="1428"/>
      <point x="418" y="1380"/>
      <point x="278" y="1310" type="curve"/>
      <point x="252" y="1070" type="line"/>
      <point x="394" y="1136"/>
      <point x="554" y="1182"/>
      <point x="708" y="1182" type="curve" smooth="yes"/>
      <point x="950" y="1182"/>
      <point x="1076" y="1046"/>
      <point x="1076" y="814" type="curve" smooth="yes"/>
    </contour>
  </outline>
</glyph>
<glyph name="florin" format="2">
  <advance width="1118"/>
  <unicode hex="0192"/>
  <outline>
    <contour>
      <point x="330" y="796" type="line"/>
      <point x="968" y="796" type="line"/>
      <point x="1026" y="1000" type="line"/>
      <point x="388" y="1000" type="line"/>
    </contour>
    <contour>
      <point x="466" y="44" type="curve" smooth="yes"/>
      <point x="798" y="1026" type="line" smooth="yes"/>
      <point x="848" y="1172"/>
      <point x="912" y="1230"/>
      <point x="1024" y="1230" type="curve" smooth="yes"/>
      <point x="1060" y="1230"/>
      <point x="1090" y="1224"/>
      <point x="1114" y="1214" type="curve"/>
      <point x="1170" y="1406" type="line"/>
      <point x="1128" y="1420"/>
      <point x="1078" y="1428"/>
      <point x="1016" y="1428" type="curve" smooth="yes"/>
      <point x="792" y="1428"/>
      <point x="664" y="1330"/>
      <point x="580" y="1084" type="curve" smooth="yes"/>
      <point x="252" y="114" type="line" smooth="yes"/>
      <point x="202" y="-30"/>
      <point x="138" y="-90"/>
      <point x="26" y="-90" type="curve" smooth="yes"/>
      <point x="-10" y="-90"/>
      <point x="-40" y="-84"/>
      <point x="-64" y="-74" type="curve"/>
      <point x="-120" y="-266" type="line"/>
      <point x="-76" y="-280"/>
      <point x="-24" y="-288"/>
      <point x="42" y="-288" type="curve" smooth="yes"/>
      <point x="248" y="-288"/>
      <point x="390" y="-182"/>
    </contour>
  </outline>
</glyph>
<glyph name="jdotless" format="2">
  <advance width="486"/>
  <unicode hex="0237"/>
  <anchor x="316" y="1000" name="top"/>
  <outline>
    <contour>
      <point x="-160" y="-484" type="line"/>
      <point x="-68" y="-484" type="line" smooth="yes"/>
      <point x="114" y="-484"/>
      <point x="198" y="-366"/>
      <point x="224" y="-222" type="curve" smooth="yes"/>
      <point x="440" y="1000" type="line"/>
      <point x="192" y="1000" type="line"/>
      <point x="-6" y="-120" type="line" smooth="yes"/>
      <point x="-34" y="-278"/>
      <point x="-46" y="-280"/>
      <point x="-146" y="-280" type="curve"/>
    </contour>
  </outline>
</glyph>
<glyph name="ringhalfright" format="2">
  <advance width="306"/>
  <unicode hex="02BE"/>
  <outline>
    <contour>
      <point x="150" y="1140" type="line"/>
      <point x="288" y="1140"/>
      <point x="396" y="1230"/>
      <point x="396" y="1362" type="curve" smooth="yes"/>
      <point x="396" y="1464"/>
      <point x="332" y="1530"/>
      <point x="218" y="1530" type="curve"/>
      <point x="200" y="1424" type="line"/>
      <point x="244" y="1424"/>
      <point x="274" y="1394"/>
      <point x="274" y="1346" type="curve" smooth="yes"/>
      <point x="274" y="1290"/>
      <point x="232" y="1244"/>
      <point x="168" y="1244" type="curve"/>
    </contour>
  </outline>
</glyph>
<glyph name="ringhalfleft" format="2">
  <advance width="306"/>
  <unicode hex="02BF"/>
  <outline>
    <contour>
      <point x="396" y="1530" type="line"/>
      <point x="258" y="1530"/>
      <point x="150" y="1440"/>
      <point x="150" y="1308" type="curve" smooth="yes"/>
      <point x="150" y="1206"/>
      <point x="214" y="1140"/>
      <point x="328" y="1140" type="curve"/>
      <point x="346" y="1246" type="line"/>
      <point x="302" y="1246"/>
      <point x="272" y="1276"/>
      <point x="272" y="1324" type="curve" smooth="yes"/>
      <point x="272" y="1380"/>
      <point x="314" y="1426"/>
      <point x="378" y="1426" type="curve"/>
    </contour>
  </outline>
</glyph>
<glyph name="verticallinemod" format="2">
  <advance width="328"/>
  <unicode hex="02C8"/>
  <outline>
    <contour>
      <point x="248" y="1530" type="line"/>
      <point x="180" y="1140" type="line"/>
      <point x="340" y="1140" type="line"/>
      <point x="408" y="1530" type="line"/>
    </contour>
  </outline>
</glyph>
<glyph name="verticallinelowmod" format="2">
  <advance width="320"/>
  <unicode hex="02CC"/>
  <outline>
    <contour>
      <point x="16" y="230" type="line"/>
      <point x="-52" y="-160" type="line"/>
      <point x="120" y="-160" type="line"/>
      <point x="188" y="230" type="line"/>
    </contour>
  </outline>
</glyph>
<glyph name="gravecomb" format="2">
  <unicode hex="0300"/>
  <anchor x="-44" y="1000" name="_top"/>
  <anchor x="44" y="1500" name="top"/>
  <outline>
    <contour>
      <point x="168" y="1140" type="line"/>
      <point x="196" y="1298" type="line"/>
      <point x="-142" y="1522" type="line"/>
      <point x="-182" y="1292" type="line"/>
    </contour>
  </outline>
</glyph>
<glyph name="acutecomb" format="2">
  <unicode hex="0301"/>
  <anchor x="-48" y="1000" name="_top"/>
  <anchor x="48" y="1500" name="top"/>
  <outline>
    <contour>
      <point x="-202" y="1140" type="line"/>
      <point x="198" y="1272" type="line"/>
      <point x="236" y="1522" type="line"/>
      <point x="-168" y="1306" type="line"/>
    </contour>
  </outline>
</glyph>
<glyph name="tildecomb" format="2">
  <unicode hex="0303"/>
  <anchor x="-44" y="1000" name="_top"/>
  <anchor x="42" y="1442" name="top"/>
  <outline>
    <contour>
      <point x="168" y="1156" type="curve" smooth="yes"/>
      <point x="276" y="1156"/>
      <point x="342" y="1234"/>
      <point x="368" y="1404" type="curve"/>
      <point x="204" y="1404" type="line"/>
      <point x="196" y="1352"/>
      <point x="168" y="1328"/>
      <point x="128" y="1328" type="curve" smooth="yes"/>
      <point x="54" y="1328"/>
      <point x="-40" y="1414"/>
      <point x="-136" y="1414" type="curve" smooth="yes"/>
      <point x="-246" y="1414"/>
      <point x="-322" y="1330"/>
      <point x="-344" y="1172" type="curve"/>
      <point x="-188" y="1172" type="line"/>
      <point x="-180" y="1214"/>
      <point x="-150" y="1242"/>
      <point x="-104" y="1242" type="curve" smooth="yes"/>
      <point x="-28" y="1242"/>
      <point x="80" y="1156"/>
    </contour>
  </outline>
</glyph>
<glyph name="macroncomb" format="2">
  <unicode hex="0304"/>
  <anchor x="-42" y="980" name="_top"/>
  <anchor x="40" y="1400" name="top"/>
  <outline>
    <contour>
      <point x="-322" y="1182" type="line"/>
      <point x="318" y="1182" type="line"/>
      <point x="350" y="1344" type="line"/>
      <point x="-290" y="1344" type="line"/>
    </contour>
  </outline>
</glyph>
<glyph name="brevecomb" format="2">
  <unicode hex="0306"/>
  <anchor x="-50" y="1000" name="_top"/>
  <anchor x="50" y="1518" name="top"/>
  <outline>
    <contour>
      <point x="2" y="1174" type="curve" smooth="yes"/>
      <point x="196" y="1174"/>
      <point x="314" y="1286"/>
      <point x="356" y="1452" type="curve"/>
      <point x="176" y="1452" type="line"/>
      <point x="160" y="1370"/>
      <point x="96" y="1324"/>
      <point x="12" y="1324" type="curve" smooth="yes"/>
      <point x="-60" y="1324"/>
      <point x="-104" y="1358"/>
      <point x="-104" y="1420" type="curve" smooth="yes"/>
      <point x="-104" y="1430"/>
      <point x="-102" y="1442"/>
      <point x="-100" y="1452" type="curve"/>
      <point x="-260" y="1452" type="line"/>
      <point x="-264" y="1436"/>
      <point x="-266" y="1414"/>
      <point x="-266" y="1396" type="curve" smooth="yes"/>
      <point x="-266" y="1270"/>
      <point x="-166" y="1174"/>
    </contour>
  </outline>
</glyph>
<glyph name="dieresiscomb" format="2">
  <unicode hex="0308"/>
  <anchor x="-38" y="1000" name="_top"/>
  <anchor x="38" y="1400" name="top"/>
  <outline>
    <contour>
      <point x="-296" y="1182" type="line"/>
      <point x="-108" y="1182" type="line"/>
      <point x="-72" y="1362" type="line"/>
      <point x="-260" y="1362" type="line"/>
    </contour>
    <contour>
      <point x="100" y="1182" type="line"/>
      <point x="288" y="1182" type="line"/>
      <point x="324" y="1362" type="line"/>
      <point x="136" y="1362" type="line"/>
    </contour>
  </outline>
</glyph>
<glyph name="hookabovecomb" format="2">
  <unicode hex="0309"/>
  <anchor x="-42" y="1000" name="_top"/>
  <anchor x="40" y="1430" name="top"/>
  <outline>
    <contour>
      <point x="-58" y="1142" type="curve"/>
      <point x="2" y="1068" type="line"/>
      <point x="102" y="1132"/>
      <point x="184" y="1202"/>
      <point x="184" y="1314" type="curve" smooth="yes"/>
      <point x="184" y="1404"/>
      <point x="114" y="1454"/>
      <point x="18" y="1454" type="curve" smooth="yes"/>
      <point x="-40" y="1454"/>
      <point x="-94" y="1440"/>
      <point x="-146" y="1418" type="curve"/>
      <point x="-136" y="1300" type="line"/>
      <point x="-92" y="1320"/>
      <point x="-46" y="1336"/>
      <point x="-6" y="1336" type="curve" smooth="yes"/>
      <point x="32" y="1336"/>
      <point x="54" y="1316"/>
      <point x="54" y="1282" type="curve" smooth="yes"/>
      <point x="54" y="1228"/>
      <point x="-2" y="1184"/>
    </contour>
  </outline>
</glyph>
<glyph name="ringcomb" format="2">
  <unicode hex="030A"/>
  <anchor x="-48" y="1000" name="_top"/>
  <anchor x="48" y="1490" name="top"/>
  <outline>
    <contour>
      <point x="-20" y="1140" type="curve" smooth="yes"/>
      <point x="112" y="1140"/>
      <point x="226" y="1242"/>
      <point x="226" y="1374" type="curve" smooth="yes"/>
      <point x="226" y="1462"/>
      <point x="166" y="1530"/>
      <point x="56" y="1530" type="curve" smooth="yes"/>
      <point x="-76" y="1530"/>
      <point x="-190" y="1424"/>
      <point x="-190" y="1296" type="curve" smooth="yes"/>
      <point x="-190" y="1208"/>
      <point x="-130" y="1140"/>
    </contour>
    <contour>
      <point x="0" y="1244" type="curve" smooth="yes"/>
      <point x="-42" y="1244"/>
      <point x="-68" y="1272"/>
      <point x="-68" y="1314" type="curve" smooth="yes"/>
      <point x="-68" y="1372"/>
      <point x="-20" y="1424"/>
      <point x="36" y="1424" type="curve" smooth="yes"/>
      <point x="76" y="1424"/>
      <point x="104" y="1396"/>
      <point x="104" y="1354" type="curve" smooth="yes"/>
      <point x="104" y="1294"/>
      <point x="58" y="1244"/>
    </contour>
  </outline>
</glyph>
<glyph name="hungarumlautcomb" format="2">
  <unicode hex="030B"/>
  <anchor x="-50" y="1000" name="_top"/>
  <anchor x="48" y="1510" name="top"/>
  <outline>
    <contour>
      <point x="-250" y="1176" type="line"/>
      <point x="-92" y="1176" type="line"/>
      <point x="192" y="1530" type="line"/>
      <point x="-38" y="1530" type="line"/>
    </contour>
    <contour>
      <point x="44" y="1176" type="line"/>
      <point x="202" y="1176" type="line"/>
      <point x="502" y="1530" type="line"/>
      <point x="272" y="1530" type="line"/>
    </contour>
  </outline>
</glyph>
<glyph name="caroncomb" format="2">
  <unicode hex="030C"/>
  <anchor x="-44" y="1000" name="_top"/>
  <anchor x="44" y="1450" name="top"/>
  <outline>
    <contour>
      <point x="-22" y="1118" type="line"/>
      <point x="274" y="1324" type="line"/>
      <point x="306" y="1500" type="line"/>
      <point x="20" y="1334" type="line"/>
      <point x="-210" y="1500" type="line"/>
      <point x="-242" y="1342" type="line"/>
    </contour>
  </outline>
</glyph>
<glyph name="dblgravecomb" format="2">
  <unicode hex="030F"/>
  <anchor x="-46" y="1000" name="_top"/>
  <anchor x="44" y="1510" name="top"/>
  <outline>
    <contour>
      <point x="222" y="1176" type="line"/>
      <point x="158" y="1530" type="line"/>
      <point x="-72" y="1530" type="line"/>
      <point x="64" y="1176" type="line"/>
    </contour>
    <contour>
      <point x="-72" y="1176" type="line"/>
      <point x="-152" y="1530" type="line"/>
      <point x="-382" y="1530" type="line"/>
      <point x="-230" y="1176" type="line"/>
    </contour>
  </outline>
</glyph>
<glyph name="horncomb" format="2">
  <unicode hex="031B"/>
  <anchor x="2" y="980" name="_topright"/>
  <outline>
    <contour>
      <point x="-28" y="816" type="line"/>
      <point x="160" y="816"/>
      <point x="366" y="936"/>
      <point x="400" y="1128" type="curve"/>
      <point x="188" y="1128" type="line"/>
      <point x="168" y="1022"/>
      <point x="102" y="980"/>
      <point x="2" y="980" type="curve"/>
    </contour>
  </outline>
</glyph>
<glyph name="commaaccentcomb" format="2">
  <unicode hex="0326"/>
  <anchor x="54" y="0" name="_bottom"/>
  <anchor x="-54" y="-618" name="bottom"/>
  <outline>
    <contour>
      <point x="-52" y="-554" type="line"/>
      <point x="92" y="-376" type="line"/>
      <point x="126" y="-182" type="line"/>
      <point x="-82" y="-182" type="line"/>
      <point x="-116" y="-376" type="line"/>
      <point x="-38" y="-376" type="line"/>
      <point x="-138" y="-554" type="line"/>
    </contour>
  </outline>
</glyph>
<glyph name="cedillacomb" format="2">
  <unicode hex="0327"/>
  <anchor x="40" y="0" name="_bottom"/>
  <anchor x="-40" y="-458" name="bottom"/>
  <outline>
    <contour>
      <point x="24" y="-158" type="line"/>
      <point x="100" y="0" type="line"/>
      <point x="-10" y="0" type="line"/>
      <point x="-108" y="-234" type="line"/>
      <point x="-70" y="-224"/>
      <point x="-40" y="-220"/>
      <point x="-8" y="-220" type="curve" smooth="yes"/>
      <point x="50" y="-220"/>
      <point x="84" y="-240"/>
      <point x="84" y="-280" type="curve" smooth="yes"/>
      <point x="84" y="-324"/>
      <point x="44" y="-356"/>
      <point x="-24" y="-356" type="curve" smooth="yes"/>
      <point x="-72" y="-356"/>
      <point x="-110" y="-342"/>
      <point x="-148" y="-322" type="curve"/>
      <point x="-208" y="-440" type="line"/>
      <point x="-172" y="-460"/>
      <point x="-120" y="-478"/>
      <point x="-50" y="-478" type="curve" smooth="yes"/>
      <point x="100" y="-478"/>
      <point x="214" y="-386"/>
      <point x="214" y="-252" type="curve" smooth="yes"/>
      <point x="214" y="-160"/>
      <point x="156" y="-108"/>
      <point x="60" y="-108" type="curve" smooth="yes"/>
      <point x="22" y="-108"/>
      <point x="-12" y="-116"/>
      <point x="-48" y="-128" type="curve"/>
    </contour>
  </outline>
</glyph>
<glyph name="ogonekcomb" format="2">
  <unicode hex="0328"/>
  <anchor x="38" y="0" name="_ogonek"/>
  <outline>
    <contour>
      <point x="-22" y="0" type="line"/>
      <point x="-124" y="-64"/>
      <point x="-228" y="-166"/>
      <point x="-228" y="-282" type="curve" smooth="yes"/>
      <point x="-226" y="-372"/>
      <point x="-158" y="-422"/>
      <point x="-60" y="-422" type="curve" smooth="yes"/>
      <point x="14" y="-422"/>
      <point x="70" y="-406"/>
      <point x="114" y="-386" type="curve"/>
      <point x="100" y="-276" type="line"/>
      <point x="60" y="-292"/>
      <point x="26" y="-300"/>
      <point x="-18" y="-300" type="curve" smooth="yes"/>
      <point x="-64" y="-300"/>
      <point x="-92" y="-276"/>
      <point x="-92" y="-228" type="curve" smooth="yes"/>
      <point x="-92" y="-142"/>
      <point x="10" y="-60"/>
      <point x="102" y="0" type="curve"/>
    </contour>
  </outline>
</glyph>
<glyph name="strokeshortcomb" format="2">
  <unicode hex="0335"/>
  <anchor x="0" y="538" name="_center"/>
  <outline>
    <contour>
      <point x="-298" y="454" type="line"/>
      <point x="270" y="454" type="line"/>
      <point x="298" y="620" type="line"/>
      <point x="-270" y="620" type="line"/>
    </contour>
  </outline>
</glyph>
<glyph name="pi" format="2">
  <advance width="1348"/>
  <unicode hex="03C0"/>
  <outline>
    <contour>
      <point x="1006" y="184" type="curve" smooth="yes"/>
      <point x="958" y="184"/>
      <point x="934" y="204"/>
      <point x="934" y="248" type="curve" smooth="yes"/>
      <point x="934" y="264"/>
      <point x="936" y="278"/>
      <point x="940" y="298" type="curve" smooth="yes"/>
      <point x="1028" y="796" type="line"/>
      <point x="1212" y="796" type="line"/>
      <point x="1248" y="1000" type="line"/>
      <point x="92" y="1000" type="line"/>
      <point x="56" y="796" type="line"/>
      <point x="238" y="796" type="line"/>
      <point x="98" y="0" type="line"/>
      <point x="346" y="0" type="line"/>
      <point x="486" y="796" type="line"/>
      <point x="780" y="796" type="line"/>
      <point x="684" y="252" type="line" smooth="yes"/>
      <point x="678" y="218"/>
      <point x="676" y="202"/>
      <point x="676" y="180" type="curve" smooth="yes"/>
      <point x="676" y="48"/>
      <point x="756" y="-20"/>
      <point x="904" y="-20" type="curve" smooth="yes"/>
      <point x="968" y="-20"/>
      <point x="1030" y="-6"/>
      <point x="1066" y="10" type="curve"/>
      <point x="1100" y="198" type="line"/>
      <point x="1076" y="190"/>
      <point x="1040" y="184"/>
    </contour>
  </outline>
</glyph>
<glyph name="Germandbls" format="2">
  <advance width="1254"/>
  <unicode hex="1E9E"/>
  <outline>
    <contour>
      <point x="36" y="0" type="line"/>
      <point x="292" y="0" type="line"/>
      <point x="444" y="860" type="line" smooth="yes"/>
      <point x="486" y="1092"/>
      <point x="618" y="1194"/>
      <point x="804" y="1194" type="curve" smooth="yes"/>
      <point x="904" y="1194"/>
      <point x="976" y="1172"/>
      <point x="1042" y="1138" type="curve"/>
      <point x="1062" y="1296" type="line"/>
      <point x="658" y="828" type="line"/>
      <point x="620" y="628" type="line"/>
      <point x="660" y="626" type="line" smooth="yes"/>
      <point x="794" y="620"/>
      <point x="876" y="558"/>
      <point x="876" y="432" type="curve" smooth="yes"/>
      <point x="876" y="288"/>
      <point x="770" y="218"/>
      <point x="642" y="218" type="curve" smooth="yes"/>
      <point x="584" y="218"/>
      <point x="528" y="228"/>
      <point x="488" y="240" type="curve"/>
      <point x="446" y="0" type="line"/>
      <point x="508" y="-16"/>
      <point x="594" y="-28"/>
      <point x="664" y="-28" type="curve" smooth="yes"/>
      <point x="940" y="-28"/>
      <point x="1160" y="140"/>
      <point x="1160" y="438" type="curve" smooth="yes"/>
      <point x="1160" y="670"/>
      <point x="996" y="808"/>
      <point x="730" y="826" type="curve"/>
      <point x="850" y="722" type="line"/>
      <point x="1184" y="1118" type="line"/>
      <point x="1230" y="1326" type="line"/>
      <point x="1124" y="1382"/>
      <point x="980" y="1428"/>
      <point x="812" y="1428" type="curve" smooth="yes"/>
      <point x="502" y="1428"/>
      <point x="262" y="1276"/>
      <point x="200" y="924" type="curve" smooth="yes"/>
    </contour>
  </outline>
</glyph>
<glyph name="figuredash" format="2">
  <advance width="1382"/>
  <unicode hex="2012"/>
  <outline>
    <contour>
      <point x="0" y="528" type="line"/>
      <point x="1348" y="528" type="line"/>
      <point x="1382" y="716" type="line"/>
      <point x="36" y="716" type="line"/>
    </contour>
  </outline>
</glyph>
<glyph name="endash" format="2">
  <advance width="1312"/>
  <unicode hex="2013"/>
  <outline>
    <contour>
      <point x="0" y="528" type="line"/>
      <point x="1278" y="528" type="line"/>
      <point x="1312" y="716" type="line"/>
      <point x="34" y="716" type="line"/>
    </contour>
  </outline>
</glyph>
<glyph name="emdash" format="2">
  <advance width="1498"/>
  <unicode hex="2014"/>
  <outline>
    <contour>
      <point x="0" y="528" type="line"/>
      <point x="1466" y="528" type="line"/>
      <point x="1498" y="716" type="line"/>
      <point x="34" y="716" type="line"/>
    </contour>
  </outline>
</glyph>
<glyph name="dagger" format="2">
  <advance width="826"/>
  <unicode hex="2020"/>
  <outline>
    <contour>
      <point x="218" y="0" type="line"/>
      <point x="400" y="0" type="line"/>
      <point x="548" y="514" type="line"/>
      <point x="538" y="750" type="line"/>
      <point x="772" y="698" type="line"/>
      <point x="818" y="962" type="line"/>
      <point x="564" y="908" type="line"/>
      <point x="674" y="1214" type="line"/>
      <point x="372" y="1214" type="line"/>
      <point x="372" y="908" type="line"/>
      <point x="138" y="962" type="line"/>
      <point x="92" y="698" type="line"/>
      <point x="344" y="750" type="line"/>
      <point x="250" y="514" type="line"/>
    </contour>
  </outline>
</glyph>
<glyph name="minute" format="2">
  <advance width="326"/>
  <unicode hex="2032"/>
  <outline>
    <contour>
      <point x="120" y="1006" type="line"/>
      <point x="260" y="1006" type="line"/>
      <point x="386" y="1400" type="line"/>
      <point x="188" y="1400" type="line"/>
    </contour>
  </outline>
</glyph>
<glyph name="guilsinglright" format="2">
  <advance width="686"/>
  <unicode hex="203A"/>
  <outline>
    <contour>
      <point x="-2" y="156" type="line"/>
      <point x="292" y="156" type="line"/>
      <point x="654" y="568" type="line"/>
      <point x="438" y="980" type="line"/>
      <point x="144" y="980" type="line"/>
      <point x="360" y="568" type="line"/>
    </contour>
  </outline>
</glyph>
<glyph name="fraction" format="2">
  <advance width="192"/>
  <unicode hex="2044"/>
  <outline>
    <contour>
      <point x="-540" y="0" type="line"/>
      <point x="-340" y="0" type="line"/>
      <point x="732" y="1400" type="line"/>
      <point x="534" y="1400" type="line"/>
    </contour>
  </outline>
</glyph>
<glyph name="colonsign" format="2">
  <advance width="1258"/>
  <unicode hex="20A1"/>
  <outline>
    <contour>
      <point x="798" y="1628" type="line"/>
      <point x="270" y="-228" type="line"/>
      <point x="418" y="-228" type="line"/>
      <point x="946" y="1628" type="line"/>
    </contour>
    <contour>
      <point x="1100" y="1628" type="line"/>
      <point x="572" y="-228" type="line"/>
      <point x="720" y="-228" type="line"/>
      <point x="1248" y="1628" type="line"/>
    </contour>
    <component base="C"/>
  </outline>
</glyph>
<glyph name="franc" format="2">
  <advance width="1096"/>
  <unicode hex="20A3"/>
  <outline>
    <contour>
      <point x="-26" y="248" type="line"/>
      <point x="714" y="248" type="line"/>
      <point x="746" y="424" type="line"/>
      <point x="6" y="424" type="line"/>
    </contour>
    <component base="F"/>
  </outline>
</glyph>
<glyph name="lira" format="2">
  <advance width="1070"/>
  <unicode hex="20A4"/>
  <outline>
    <contour>
      <point x="228" y="98" type="line"/>
      <point x="342" y="268"/>
      <point x="396" y="392"/>
      <point x="470" y="652" type="curve" smooth="yes"/>
      <point x="560" y="972" type="line" smooth="yes"/>
      <point x="600" y="1116"/>
      <point x="674" y="1184"/>
      <point x="794" y="1184" type="curve" smooth="yes"/>
      <point x="868" y="1184"/>
      <point x="930" y="1156"/>
      <point x="996" y="1112" type="curve"/>
      <point x="1062" y="1374" type="line"/>
      <point x="990" y="1410"/>
      <point x="916" y="1428"/>
      <point x="824" y="1428" type="curve" smooth="yes"/>
      <point x="552" y="1428"/>
      <point x="396" y="1286"/>
      <point x="314" y="1000" type="curve" smooth="yes"/>
      <point x="210" y="636" type="line" smooth="yes"/>
      <point x="134" y="376"/>
      <point x="74" y="220"/>
      <point x="-40" y="0" type="curve"/>
      <point x="832" y="0" type="line"/>
      <point x="874" y="240" type="line"/>
      <point x="182" y="240" type="line"/>
    </contour>
    <contour>
      <point x="72" y="746" type="line"/>
      <point x="876" y="746" type="line"/>
      <point x="906" y="912" type="line"/>
      <point x="102" y="912" type="line"/>
    </contour>
    <contour>
      <point x="-2" y="436" type="line"/>
      <point x="802" y="436" type="line"/>
      <point x="832" y="602" type="line"/>
      <point x="28" y="602" type="line"/>
    </contour>
  </outline>
</glyph>
<glyph name="naira" format="2">
  <advance width="1346"/>
  <unicode hex="20A6"/>
  <outline>
    <contour>
      <point x="20" y="658" type="line"/>
      <point x="1326" y="658" type="line"/>
      <point x="1350" y="804" type="line"/>
      <point x="44" y="804" type="line"/>
    </contour>
    <component base="N" xOffset="-28"/>
  </outline>
</glyph>
<glyph name="peseta" format="2">
  <advance width="2668"/>
  <unicode hex="20A7"/>
  <outline>
    <contour>
      <point x="1486" y="-20" type="curve" smooth="yes"/>
      <point x="1658" y="-20" type="line"/>
      <point x="1718" y="184" type="line"/>
      <point x="1648" y="184" type="line" smooth="yes"/>
      <point x="1558" y="184"/>
      <point x="1528" y="188"/>
      <point x="1528" y="248" type="curve" smooth="yes"/>
      <point x="1528" y="270"/>
      <point x="1532" y="300"/>
      <point x="1620" y="796" type="curve"/>
      <point x="1824" y="796" type="line"/>
      <point x="1860" y="1000" type="line"/>
      <point x="1654" y="1000" type="line"/>
      <point x="1698" y="1246" type="line"/>
      <point x="1446" y="1220" type="line"/>
      <point x="1406" y="1000" type="line"/>
      <point x="1296" y="1000" type="line"/>
      <point x="1238" y="796" type="line"/>
      <point x="1370" y="796" type="line"/>
      <point x="1270" y="234"/>
      <point x="1268" y="210"/>
      <point x="1268" y="190" type="curve" smooth="yes"/>
      <point x="1268" y="78"/>
      <point x="1330" y="-20"/>
    </contour>
    <contour>
      <point x="2142" y="-20" type="curve" smooth="yes"/>
      <point x="2416" y="-20"/>
      <point x="2560" y="128"/>
      <point x="2560" y="310" type="curve" smooth="yes"/>
      <point x="2560" y="458"/>
      <point x="2486" y="528"/>
      <point x="2344" y="580" type="curve" smooth="yes"/>
      <point x="2230" y="622"/>
      <point x="2150" y="642"/>
      <point x="2150" y="728" type="curve" smooth="yes"/>
      <point x="2150" y="806"/>
      <point x="2216" y="838"/>
      <point x="2308" y="838" type="curve" smooth="yes"/>
      <point x="2422" y="838"/>
      <point x="2510" y="792"/>
      <point x="2580" y="742" type="curve"/>
      <point x="2634" y="942" type="line"/>
      <point x="2564" y="982"/>
      <point x="2464" y="1016"/>
      <point x="2336" y="1016" type="curve" smooth="yes"/>
      <point x="2066" y="1016"/>
      <point x="1918" y="870"/>
      <point x="1918" y="678" type="curve" smooth="yes"/>
      <point x="1918" y="520"/>
      <point x="2020" y="464"/>
      <point x="2156" y="418" type="curve" smooth="yes"/>
      <point x="2258" y="384"/>
      <point x="2308" y="356"/>
      <point x="2308" y="280" type="curve" smooth="yes"/>
      <point x="2308" y="216"/>
      <point x="2262" y="166"/>
      <point x="2160" y="166" type="curve" smooth="yes"/>
      <point x="2050" y="166"/>
      <point x="1946" y="218"/>
      <point x="1868" y="266" type="curve"/>
      <point x="1810" y="54" type="line"/>
      <point x="1902" y="12"/>
      <point x="2018" y="-20"/>
    </contour>
    <contour>
      <point x="52" y="0" type="line"/>
      <point x="306" y="0" type="line"/>
      <point x="388" y="460" type="line"/>
      <point x="620" y="460" type="line" smooth="yes"/>
      <point x="960" y="460"/>
      <point x="1200" y="650"/>
      <point x="1200" y="1010" type="curve" smooth="yes"/>
      <point x="1200" y="1248"/>
      <point x="1054" y="1400"/>
      <point x="774" y="1400" type="curve" smooth="yes"/>
      <point x="298" y="1400" type="line"/>
    </contour>
    <contour>
      <point x="430" y="700" type="line"/>
      <point x="516" y="1186" type="line"/>
      <point x="746" y="1186" type="line" smooth="yes"/>
      <point x="878" y="1186"/>
      <point x="934" y="1120"/>
      <point x="934" y="990" type="curve" smooth="yes"/>
      <point x="934" y="792"/>
      <point x="820" y="700"/>
      <point x="658" y="700" type="curve" smooth="yes"/>
    </contour>
  </outline>
</glyph>
<glyph name="won" format="2">
  <advance width="1788"/>
  <unicode hex="20A9"/>
  <outline>
    <contour>
      <point x="8" y="644" type="line"/>
      <point x="1702" y="644" type="line"/>
      <point x="1732" y="808" type="line"/>
      <point x="38" y="808" type="line"/>
    </contour>
    <contour>
      <point x="228" y="0" type="line"/>
      <point x="470" y="0" type="line"/>
      <point x="976" y="1140" type="line"/>
      <point x="908" y="1140" type="line"/>
      <point x="1012" y="0" type="line"/>
      <point x="1238" y="0" type="line"/>
      <point x="1816" y="1400" type="line"/>
      <point x="1550" y="1400" type="line"/>
      <point x="1138" y="254" type="line"/>
      <point x="1196" y="254" type="line"/>
      <point x="1070" y="1360" type="line"/>
      <point x="892" y="1360" type="line"/>
      <point x="392" y="254" type="line"/>
      <point x="448" y="254" type="line"/>
      <point x="428" y="1400" type="line"/>
      <point x="162" y="1400" type="line"/>
    </contour>
  </outline>
</glyph>
<glyph name="dong" format="2">
  <advance width="1198"/>
  <unicode hex="20AB"/>
  <outline>
    <contour>
      <point x="-20" y="-294" type="line"/>
      <point x="812" y="-294" type="line"/>
      <point x="846" y="-106" type="line"/>
      <point x="14" y="-106" type="line"/>
    </contour>
    <component base="dcroat" xOffset="-36"/>
  </outline>
</glyph>
<glyph name="euro" format="2">
  <advance width="1342"/>
  <unicode hex="20AC"/>
  <outline>
    <contour>
      <point x="20" y="776" type="line"/>
      <point x="1000" y="776" type="line"/>
      <point x="1032" y="952" type="line"/>
      <point x="52" y="952" type="line"/>
    </contour>
    <contour>
      <point x="-36" y="458" type="line"/>
      <point x="944" y="458" type="line"/>
      <point x="976" y="634" type="line"/>
      <point x="-4" y="634" type="line"/>
    </contour>
    <component base="C" xOffset="64"/>
  </outline>
</glyph>
<glyph name="kip" format="2">
  <advance width="1268"/>
  <unicode hex="20AD"/>
  <outline>
    <contour>
      <point x="20" y="648" type="line"/>
      <point x="1106" y="648" type="line"/>
      <point x="1138" y="828" type="line"/>
      <point x="52" y="828" type="line"/>
    </contour>
    <component base="K" xOffset="-24"/>
  </outline>
</glyph>
<glyph name="peso" format="2">
  <advance width="1324"/>
  <unicode hex="20B1"/>
  <outline>
    <contour>
      <point x="36" y="0" type="line"/>
      <point x="290" y="0" type="line"/>
      <point x="358" y="386" type="line"/>
      <point x="598" y="386" type="line" smooth="yes"/>
      <point x="966" y="386"/>
      <point x="1184" y="668"/>
      <point x="1184" y="1036" type="curve" smooth="yes"/>
      <point x="1184" y="1286"/>
      <point x="1040" y="1400"/>
      <point x="772" y="1400" type="curve" smooth="yes"/>
      <point x="284" y="1400" type="line"/>
    </contour>
    <contour>
      <point x="396" y="600" type="line"/>
      <point x="500" y="1186" type="line"/>
      <point x="704" y="1186" type="line" smooth="yes"/>
      <point x="862" y="1186"/>
      <point x="940" y="1122"/>
      <point x="940" y="980" type="curve" smooth="yes"/>
      <point x="940" y="760"/>
      <point x="834" y="600"/>
      <point x="606" y="600" type="curve" smooth="yes"/>
    </contour>
    <contour>
      <point x="82" y="946" type="line"/>
      <point x="1298" y="946" type="line"/>
      <point x="1324" y="1086" type="line"/>
      <point x="108" y="1086" type="line"/>
    </contour>
    <contour>
      <point x="40" y="700" type="line"/>
      <point x="1256" y="700" type="line"/>
      <point x="1282" y="840" type="line"/>
      <point x="66" y="840" type="line"/>
    </contour>
  </outline>
</glyph>
<glyph name="guarani" format="2">
  <advance width="1302"/>
  <unicode hex="20B2"/>
  <outline>
    <contour>
      <point x="682" y="68" type="line"/>
      <point x="526" y="68" type="line"/>
      <point x="444" y="-288" type="line"/>
      <point x="640" y="-288" type="line"/>
    </contour>
    <contour>
      <point x="752" y="1346" type="line"/>
      <point x="908" y="1346" type="line"/>
      <point x="988" y="1688" type="line"/>
      <point x="792" y="1688" type="line"/>
    </contour>
    <component base="G" xOffset="-44"/>
  </outline>
</glyph>
<glyph name="cedi" format="2">
  <advance width="1234"/>
  <unicode hex="20B5"/>
  <outline>
    <contour>
      <point x="634" y="68" type="line"/>
      <point x="478" y="68" type="line"/>
      <point x="396" y="-288" type="line"/>
      <point x="592" y="-288" type="line"/>
    </contour>
    <contour>
      <point x="704" y="1346" type="line"/>
      <point x="860" y="1346" type="line"/>
      <point x="940" y="1688" type="line"/>
      <point x="744" y="1688" type="line"/>
    </contour>
    <component base="C" xOffset="-64"/>
  </outline>
</glyph>
<glyph name="rupeeIndian" format="2">
  <advance width="1164"/>
  <unicode hex="20B9"/>
  <outline>
    <contour>
      <point x="60" y="484" type="line"/>
      <point x="298" y="484" type="line" smooth="yes"/>
      <point x="638" y="484"/>
      <point x="902" y="688"/>
      <point x="902" y="1006" type="curve" smooth="yes"/>
      <point x="902" y="1128"/>
      <point x="850" y="1220"/>
      <point x="754" y="1286" type="curve"/>
      <point x="724" y="1224" type="line"/>
      <point x="1092" y="1224" type="line"/>
      <point x="1124" y="1400" type="line"/>
      <point x="222" y="1400" type="line"/>
      <point x="190" y="1224" type="line"/>
      <point x="400" y="1224" type="line" smooth="yes"/>
      <point x="562" y="1224"/>
      <point x="654" y="1152"/>
      <point x="654" y="1010" type="curve" smooth="yes"/>
      <point x="654" y="798"/>
      <point x="530" y="660"/>
      <point x="300" y="660" type="curve" smooth="yes"/>
      <point x="90" y="660" type="line"/>
    </contour>
    <contour>
      <point x="624" y="0" type="line"/>
      <point x="888" y="0" type="line"/>
      <point x="586" y="568" type="line"/>
      <point x="326" y="568" type="line"/>
    </contour>
    <contour>
      <point x="126" y="854" type="line"/>
      <point x="1028" y="854" type="line"/>
      <point x="1058" y="1030" type="line"/>
      <point x="156" y="1030" type="line"/>
    </contour>
  </outline>
</glyph>
<glyph name="liraTurkish" format="2">
  <advance width="1166"/>
  <unicode hex="20BA"/>
  <outline>
    <contour>
      <point x="560" y="1400" type="line"/>
      <point x="304" y="1400" type="line"/>
      <point x="56" y="0" type="line"/>
      <point x="356" y="0" type="line" smooth="yes"/>
      <point x="754" y="0"/>
      <point x="1006" y="218"/>
      <point x="1076" y="620" type="curve" smooth="yes"/>
      <point x="1086" y="674" type="line"/>
      <point x="830" y="674" type="line"/>
      <point x="820" y="620" type="line" smooth="yes"/>
      <point x="778" y="376"/>
      <point x="642" y="246"/>
      <point x="420" y="246" type="curve" smooth="yes"/>
      <point x="356" y="246" type="line"/>
    </contour>
    <contour>
      <point x="16" y="560" type="line"/>
      <point x="944" y="824" type="line"/>
      <point x="978" y="1014" type="line"/>
      <point x="48" y="750" type="line"/>
    </contour>
    <contour>
      <point x="72" y="886" type="line"/>
      <point x="1002" y="1150" type="line"/>
      <point x="1036" y="1340" type="line"/>
      <point x="106" y="1076" type="line"/>
    </contour>
  </outline>
</glyph>
<glyph name="manat" format="2">
  <advance width="1314"/>
  <unicode hex="20BC"/>
  <outline>
    <contour>
      <point x="706" y="1168" type="curve" smooth="yes"/>
      <point x="336" y="1168"/>
      <point x="120" y="928"/>
      <point x="60" y="560" type="curve" smooth="yes"/>
      <point x="-40" y="0" type="line"/>
      <point x="216" y="0" type="line"/>
      <point x="308" y="514" type="line" smooth="yes"/>
      <point x="346" y="740"/>
      <point x="426" y="922"/>
      <point x="684" y="922" type="curve" smooth="yes"/>
      <point x="872" y="922"/>
      <point x="930" y="816"/>
      <point x="930" y="666" type="curve" smooth="yes"/>
      <point x="930" y="620"/>
      <point x="924" y="568"/>
      <point x="916" y="514" type="curve" smooth="yes"/>
      <point x="824" y="0" type="line"/>
      <point x="1080" y="0" type="line"/>
      <point x="1180" y="560" type="line" smooth="yes"/>
      <point x="1190" y="618"/>
      <point x="1194" y="672"/>
      <point x="1194" y="724" type="curve" smooth="yes"/>
      <point x="1192" y="998"/>
      <point x="1032" y="1168"/>
    </contour>
    <contour>
      <point x="406" y="0" type="line"/>
      <point x="636" y="0" type="line"/>
      <point x="884" y="1400" type="line"/>
      <point x="654" y="1400" type="line"/>
    </contour>
  </outline>
</glyph>
<glyph name="ruble" format="2">
  <advance width="1284"/>
  <unicode hex="20BD"/>
  <outline>
    <contour>
      <point x="110" y="0" type="line"/>
      <point x="366" y="0" type="line"/>
      <point x="576" y="1186" type="line"/>
      <point x="778" y="1186" type="line" smooth="yes"/>
      <point x="926" y="1186"/>
      <point x="1000" y="1132"/>
      <point x="1000" y="1010" type="curve" smooth="yes"/>
      <point x="1000" y="824"/>
      <point x="900" y="700"/>
      <point x="698" y="700" type="curve" smooth="yes"/>
      <point x="94" y="700" type="line"/>
      <point x="56" y="486" type="line"/>
      <point x="690" y="486" type="line" smooth="yes"/>
      <point x="1054" y="486"/>
      <point x="1264" y="692"/>
      <point x="1264" y="1026" type="curve" smooth="yes"/>
      <point x="1266" y="1284"/>
      <point x="1118" y="1400"/>
      <point x="846" y="1400" type="curve" smooth="yes"/>
      <point x="358" y="1400" type="line"/>
    </contour>
    <contour>
      <point x="0" y="164" type="line"/>
      <point x="740" y="164" type="line"/>
      <point x="770" y="340" type="line"/>
      <point x="30" y="340" type="line"/>
    </contour>
  </outline>
</glyph>
<glyph name="literSign" format="2">
  <advance width="972"/>
  <unicode hex="2113"/>
  <outline>
    <contour>
      <point x="256" y="1134" type="curve" smooth="yes"/>
      <point x="120" y="366" type="line" smooth="yes"/>
      <point x="114" y="330"/>
      <point x="110" y="296"/>
      <point x="110" y="264" type="curve" smooth="yes"/>
      <point x="110" y="90"/>
      <point x="212" y="-16"/>
      <point x="414" y="-16" type="curve" smooth="yes"/>
      <point x="678" y="-16"/>
      <point x="778" y="132"/>
      <point x="822" y="368" type="curve"/>
      <point x="622" y="368" type="line"/>
      <point x="596" y="238"/>
      <point x="550" y="158"/>
      <point x="460" y="158" type="curve" smooth="yes"/>
      <point x="394" y="158"/>
      <point x="360" y="192"/>
      <point x="360" y="278" type="curve" smooth="yes"/>
      <point x="360" y="302"/>
      <point x="362" y="328"/>
      <point x="368" y="360" type="curve" smooth="yes"/>
      <point x="498" y="1100" type="line" smooth="yes"/>
      <point x="520" y="1230"/>
      <point x="562" y="1282"/>
      <point x="624" y="1282" type="curve" smooth="yes"/>
      <point x="678" y="1282"/>
      <point x="702" y="1250"/>
      <point x="702" y="1182" type="curve" smooth="yes"/>
      <point x="702" y="908"/>
      <point x="418" y="760"/>
      <point x="50" y="662" type="curve"/>
      <point x="20" y="492" type="line"/>
      <point x="564" y="622"/>
      <point x="932" y="840"/>
      <point x="932" y="1182" type="curve" smooth="yes"/>
      <point x="932" y="1348"/>
      <point x="830" y="1446"/>
      <point x="640" y="1446" type="curve" smooth="yes"/>
      <point x="426" y="1446"/>
      <point x="290" y="1336"/>
    </contour>
  </outline>
</glyph>
<glyph name="numero" format="2">
  <advance width="2414"/>
  <unicode hex="2116"/>
  <anchor x="556" y="0" name="bottom"/>
  <anchor x="776" y="1400" name="top"/>
  <outline>
    <contour>
      <point x="1806" y="472" type="curve" smooth="yes"/>
      <point x="2114" y="472"/>
      <point x="2354" y="732"/>
      <point x="2354" y="1048" type="curve" smooth="yes"/>
      <point x="2354" y="1262"/>
      <point x="2224" y="1428"/>
      <point x="1974" y="1428" type="curve" smooth="yes"/>
      <point x="1662" y="1428"/>
      <point x="1418" y="1168"/>
      <point x="1418" y="854" type="curve" smooth="yes"/>
      <point x="1418" y="640"/>
      <point x="1552" y="472"/>
    </contour>
    <contour>
      <point x="1842" y="676" type="curve" smooth="yes"/>
      <point x="1722" y="676"/>
      <point x="1658" y="758"/>
      <point x="1660" y="882" type="curve" smooth="yes"/>
      <point x="1662" y="1058"/>
      <point x="1764" y="1224"/>
      <point x="1938" y="1224" type="curve" smooth="yes"/>
      <point x="2052" y="1224"/>
      <point x="2112" y="1144"/>
      <point x="2112" y="1022" type="curve" smooth="yes"/>
      <point x="2112" y="842"/>
      <point x="2012" y="676"/>
    </contour>
    <contour>
      <point x="1460" y="118" type="line"/>
      <point x="2024" y="118" type="line"/>
      <point x="2060" y="322" type="line"/>
      <point x="1496" y="322" type="line"/>
    </contour>
    <component base="N" xOffset="-52"/>
  </outline>
</glyph>
<glyph name="trademark" format="2">
  <advance width="1436"/>
  <unicode hex="2122"/>
  <outline>
    <contour>
      <point x="606" y="674" type="line"/>
      <point x="772" y="674" type="line"/>
      <point x="896" y="1098" type="line"/>
      <point x="992" y="850" type="line"/>
      <point x="1014" y="850" type="line"/>
      <point x="1198" y="1098" type="line"/>
      <point x="1172" y="674" type="line"/>
      <point x="1340" y="674" type="line"/>
      <point x="1374" y="1400" type="line"/>
      <point x="1270" y="1400" type="line"/>
      <point x="1048" y="1104" type="line"/>
      <point x="930" y="1400" type="line"/>
      <point x="828" y="1400" type="line"/>
    </contour>
    <contour>
      <point x="264" y="674" type="line"/>
      <point x="426" y="674" type="line"/>
      <point x="528" y="1244" type="line"/>
      <point x="706" y="1244" type="line"/>
      <point x="754" y="1400" type="line"/>
      <point x="208" y="1400" type="line"/>
      <point x="180" y="1244" type="line"/>
      <point x="364" y="1244" type="line"/>
    </contour>
  </outline>
</glyph>
<glyph name="Ohm" format="2">
  <advance width="1604"/>
  <unicode hex="2126"/>
  <outline>
    <contour>
      <point x="868" y="1182" type="curve" smooth="yes"/>
      <point x="1080" y="1182"/>
      <point x="1194" y="1048"/>
      <point x="1194" y="846" type="curve" smooth="yes"/>
      <point x="1194" y="590"/>
      <point x="1046" y="342"/>
      <point x="798" y="202" type="curve"/>
      <point x="762" y="0" type="line"/>
      <point x="1390" y="0" type="line"/>
      <point x="1430" y="228" type="line"/>
      <point x="1118" y="228" type="line"/>
      <point x="1354" y="382"/>
      <point x="1486" y="618"/>
      <point x="1484" y="892" type="curve" smooth="yes"/>
      <point x="1482" y="1222"/>
      <point x="1264" y="1428"/>
      <point x="912" y="1428" type="curve" smooth="yes"/>
      <point x="456" y="1428"/>
      <point x="106" y="1078"/>
      <point x="106" y="630" type="curve" smooth="yes"/>
      <point x="106" y="446"/>
      <point x="190" y="312"/>
      <point x="302" y="228" type="curve"/>
      <point x="0" y="228" type="line"/>
      <point x="-40" y="0" type="line"/>
      <point x="556" y="0" type="line"/>
      <point x="592" y="202" type="line"/>
      <point x="454" y="298"/>
      <point x="380" y="426"/>
      <point x="380" y="600" type="curve" smooth="yes"/>
      <point x="380" y="904"/>
      <point x="564" y="1182"/>
    </contour>
  </outline>
</glyph>
<glyph name="partialdiff" format="2">
  <advance width="1190"/>
  <unicode hex="2202"/>
  <outline>
    <contour>
      <point x="836" y="650"/>
      <point x="724" y="184"/>
      <point x="478" y="184" type="curve" smooth="yes"/>
      <point x="380" y="184"/>
      <point x="314" y="250"/>
      <point x="314" y="406" type="curve" smooth="yes"/>
      <point x="314" y="622"/>
      <point x="438" y="816"/>
      <point x="620" y="816" type="curve" smooth="yes"/>
      <point x="734" y="816"/>
      <point x="792" y="754"/>
      <point x="838" y="676" type="curve"/>
      <point x="878" y="858" type="line"/>
      <point x="812" y="962"/>
      <point x="724" y="1020"/>
      <point x="578" y="1020" type="curve" smooth="yes"/>
      <point x="262" y="1020"/>
      <point x="60" y="726"/>
      <point x="60" y="390" type="curve" smooth="yes"/>
      <point x="60" y="152"/>
      <point x="178" y="-20"/>
      <point x="452" y="-20" type="curve" smooth="yes"/>
      <point x="910" y="-20"/>
      <point x="1090" y="498"/>
      <point x="1090" y="896" type="curve" smooth="yes"/>
      <point x="1090" y="1216"/>
      <point x="980" y="1448"/>
      <point x="634" y="1448" type="curve" smooth="yes"/>
      <point x="526" y="1448"/>
      <point x="420" y="1424"/>
      <point x="336" y="1390" type="curve"/>
      <point x="336" y="1176" type="line"/>
      <point x="418" y="1216"/>
      <point x="508" y="1244"/>
      <point x="594" y="1244" type="curve" smooth="yes"/>
      <point x="772" y="1244"/>
      <point x="836" y="1120"/>
      <point x="836" y="952" type="curve" smooth="yes"/>
    </contour>
  </outline>
</glyph>
<glyph name="emptyset" format="2">
  <advance width="1036"/>
  <unicode hex="2205"/>
  <outline>
    <contour>
      <point x="430" y="104" type="curve" smooth="yes"/>
      <point x="722" y="104"/>
      <point x="938" y="340"/>
      <point x="938" y="610" type="curve" smooth="yes"/>
      <point x="938" y="832"/>
      <point x="772" y="1000"/>
      <point x="540" y="1000" type="curve" smooth="yes"/>
      <point x="262" y="1000"/>
      <point x="26" y="766"/>
      <point x="26" y="488" type="curve" smooth="yes"/>
      <point x="26" y="268"/>
      <point x="194" y="104"/>
    </contour>
    <contour>
      <point x="438" y="308" type="curve" smooth="yes"/>
      <point x="318" y="308"/>
      <point x="242" y="388"/>
      <point x="242" y="502" type="curve" smooth="yes"/>
      <point x="242" y="670"/>
      <point x="360" y="796"/>
      <point x="526" y="796" type="curve" smooth="yes"/>
      <point x="646" y="796"/>
      <point x="722" y="716"/>
      <point x="722" y="602" type="curve" smooth="yes"/>
      <point x="722" y="434"/>
      <point x="604" y="308"/>
    </contour>
    <contour>
      <point x="50" y="88" type="line"/>
      <point x="984" y="932" type="line"/>
      <point x="914" y="1016" type="line"/>
      <point x="-20" y="172" type="line"/>
    </contour>
  </outline>
</glyph>
<glyph name="increment" format="2">
  <advance width="1208"/>
  <unicode hex="2206"/>
  <outline>
    <contour>
      <point x="852" y="1400" type="line"/>
      <point x="596" y="1400" type="line"/>
      <point x="-124" y="86" type="line"/>
      <point x="-140" y="0" type="line"/>
      <point x="1092" y="0" type="line"/>
      <point x="1108" y="84" type="line"/>
    </contour>
    <contour>
      <point x="952" y="228" type="line"/>
      <point x="88" y="228" type="line"/>
      <point x="140" y="102" type="line"/>
      <point x="754" y="1236" type="line"/>
      <point x="646" y="1236" type="line"/>
      <point x="856" y="102" type="line"/>
    </contour>
  </outline>
</glyph>
<glyph name="product" format="2">
  <advance width="1376"/>
  <unicode hex="220F"/>
  <outline>
    <contour>
      <point x="-60" y="-400" type="line"/>
      <point x="196" y="-400" type="line"/>
      <point x="470" y="1160" type="line"/>
      <point x="1022" y="1160" type="line"/>
      <point x="748" y="-400" type="line"/>
      <point x="1004" y="-400" type="line"/>
      <point x="1278" y="1160" type="line"/>
      <point x="1454" y="1160" type="line"/>
      <point x="1496" y="1400" type="line"/>
      <point x="80" y="1400" type="line"/>
      <point x="38" y="1160" type="line"/>
      <point x="214" y="1160" type="line"/>
    </contour>
  </outline>
</glyph>
<glyph name="summation" format="2">
  <advance width="1156"/>
  <unicode hex="2211"/>
  <outline>
    <contour>
      <point x="810" y="484" type="line"/>
      <point x="328" y="1292" type="line"/>
      <point x="248" y="1160" type="line"/>
      <point x="1134" y="1160" type="line"/>
      <point x="1176" y="1400" type="line"/>
      <point x="96" y="1400" type="line"/>
      <point x="74" y="1268" type="line"/>
      <point x="526" y="494" type="line"/>
      <point x="-200" y="-280" type="line"/>
      <point x="-220" y="-400" type="line"/>
      <point x="880" y="-400" type="line"/>
      <point x="922" y="-160" type="line"/>
      <point x="16" y="-160" type="line"/>
      <point x="64" y="-308" type="line"/>
    </contour>
  </outline>
</glyph>
<glyph name="minus" format="2">
  <advance width="868"/>
  <unicode hex="2212"/>
  <outline>
    <contour>
      <point x="12" y="460" type="line"/>
      <point x="736" y="460" type="line"/>
      <point x="768" y="648" type="line"/>
      <point x="44" y="648" type="line"/>
    </contour>
  </outline>
</glyph>
<glyph name="radical" format="2">
  <advance width="1580"/>
  <unicode hex="221A"/>
  <outline>
    <contour>
      <point x="174" y="502" type="line"/>
      <point x="328" y="-400" type="line"/>
      <point x="518" y="-400" type="line"/>
      <point x="1370" y="1302" type="line"/>
      <point x="1234" y="1160" type="line"/>
      <point x="1558" y="1160" type="line"/>
      <point x="1600" y="1400" type="line"/>
      <point x="1160" y="1400" type="line"/>
      <point x="378" y="-174" type="line"/>
      <point x="540" y="-174" type="line"/>
      <point x="406" y="624" type="line"/>
      <point x="42" y="624" type="line"/>
      <point x="0" y="384" type="line"/>
      <point x="264" y="384" type="line"/>
    </contour>
  </outline>
</glyph>
<glyph name="infinity" format="2">
  <advance width="1414"/>
  <unicode hex="221E"/>
  <outline>
    <contour>
      <point x="924" y="324" type="curve" smooth="yes"/>
      <point x="1170" y="324"/>
      <point x="1374" y="532"/>
      <point x="1374" y="778" type="curve" smooth="yes"/>
      <point x="1374" y="958"/>
      <point x="1250" y="1084"/>
      <point x="1060" y="1084" type="curve" smooth="yes"/>
      <point x="816" y="1084"/>
      <point x="608" y="876"/>
      <point x="608" y="634" type="curve" smooth="yes"/>
      <point x="608" y="452"/>
      <point x="732" y="324"/>
    </contour>
    <contour>
      <point x="322" y="324" type="curve" smooth="yes"/>
      <point x="568" y="324"/>
      <point x="774" y="532"/>
      <point x="774" y="776" type="curve" smooth="yes"/>
      <point x="774" y="956"/>
      <point x="650" y="1084"/>
      <point x="458" y="1084" type="curve" smooth="yes"/>
      <point x="212" y="1084"/>
      <point x="0" y="878"/>
      <point x="0" y="634" type="curve" smooth="yes"/>
      <point x="0" y="452"/>
      <point x="126" y="324"/>
    </contour>
    <contour>
      <point x="944" y="524" type="curve" smooth="yes"/>
      <point x="856" y="524"/>
      <point x="800" y="582"/>
      <point x="800" y="668" type="curve" smooth="yes"/>
      <point x="800" y="776"/>
      <point x="886" y="884"/>
      <point x="1008" y="884" type="curve" smooth="yes"/>
      <point x="1092" y="884"/>
      <point x="1144" y="828"/>
      <point x="1144" y="744" type="curve" smooth="yes"/>
      <point x="1144" y="634"/>
      <point x="1064" y="524"/>
    </contour>
    <contour>
      <point x="374" y="524" type="curve" smooth="yes"/>
      <point x="286" y="524"/>
      <point x="230" y="582"/>
      <point x="230" y="668" type="curve" smooth="yes"/>
      <point x="230" y="776"/>
      <point x="316" y="884"/>
      <point x="438" y="884" type="curve" smooth="yes"/>
      <point x="526" y="884"/>
      <point x="582" y="828"/>
      <point x="582" y="742" type="curve" smooth="yes"/>
      <point x="582" y="632"/>
      <point x="496" y="524"/>
    </contour>
  </outline>
</glyph>
<glyph name="integral" format="2">
  <advance width="822"/>
  <unicode hex="222B"/>
  <outline>
    <contour>
      <point x="118" y="-26" type="line" smooth="yes"/>
      <point x="96" y="-124"/>
      <point x="38" y="-188"/>
      <point x="-56" y="-188" type="curve" smooth="yes"/>
      <point x="-84" y="-188"/>
      <point x="-106" y="-184"/>
      <point x="-128" y="-178" type="curve"/>
      <point x="-180" y="-400" type="line"/>
      <point x="-138" y="-418"/>
      <point x="-90" y="-428"/>
      <point x="-28" y="-428" type="curve" smooth="yes"/>
      <point x="162" y="-428"/>
      <point x="310" y="-316"/>
      <point x="362" y="-80" type="curve" smooth="yes"/>
      <point x="604" y="1026" type="line" smooth="yes"/>
      <point x="626" y="1124"/>
      <point x="684" y="1188"/>
      <point x="778" y="1188" type="curve" smooth="yes"/>
      <point x="806" y="1188"/>
      <point x="828" y="1184"/>
      <point x="850" y="1178" type="curve"/>
      <point x="902" y="1400" type="line"/>
      <point x="860" y="1418"/>
      <point x="812" y="1428"/>
      <point x="750" y="1428" type="curve" smooth="yes"/>
      <point x="560" y="1428"/>
      <point x="412" y="1316"/>
      <point x="360" y="1080" type="curve" smooth="yes"/>
    </contour>
  </outline>
</glyph>
<glyph name="notequal" format="2">
  <advance width="900"/>
  <unicode hex="2260"/>
  <outline>
    <contour>
      <point x="74" y="190" type="line"/>
      <point x="246" y="190" type="line"/>
      <point x="782" y="918" type="line"/>
      <point x="610" y="918" type="line"/>
    </contour>
    <component base="equal"/>
  </outline>
</glyph>
<glyph name="lessequal" format="2">
  <advance width="904"/>
  <unicode hex="2264"/>
  <outline>
    <contour>
      <point x="-40" y="94" type="line"/>
      <point x="688" y="94" type="line"/>
      <point x="720" y="274" type="line"/>
      <point x="-8" y="274" type="line"/>
    </contour>
    <contour>
      <point x="50" y="608" type="line"/>
      <point x="732" y="348" type="line"/>
      <point x="766" y="534" type="line"/>
      <point x="298" y="702" type="line"/>
      <point x="826" y="872" type="line"/>
      <point x="860" y="1070" type="line"/>
      <point x="86" y="808" type="line"/>
    </contour>
  </outline>
</glyph>
<glyph name="greaterequal" format="2">
  <advance width="866"/>
  <unicode hex="2265"/>
  <outline>
    <contour>
      <point x="668" y="94" type="line"/>
      <point x="700" y="274" type="line"/>
      <point x="-28" y="274" type="line"/>
      <point x="-60" y="94" type="line"/>
    </contour>
    <contour>
      <point x="758" y="608" type="line"/>
      <point x="794" y="808" type="line"/>
      <point x="112" y="1070" type="line"/>
      <point x="78" y="882" type="line"/>
      <point x="558" y="718" type="line"/>
      <point x="18" y="544" type="line"/>
      <point x="-16" y="348" type="line"/>
    </contour>
  </outline>
</glyph>
<glyph name="lozenge" format="2">
  <advance width="1200"/>
  <unicode hex="25CA"/>
  <outline>
    <contour>
      <point x="1160" y="700" type="line"/>
      <point x="824" y="1400" type="line"/>
      <point x="584" y="1400" type="line"/>
      <point x="0" y="700" type="line"/>
      <point x="336" y="0" type="line"/>
      <point x="576" y="0" type="line"/>
    </contour>
    <contour>
      <point x="868" y="706" type="line"/>
      <point x="444" y="192" type="line"/>
      <point x="516" y="192" type="line"/>
      <point x="282" y="700" type="line"/>
      <point x="702" y="1214" type="line"/>
      <point x="630" y="1214" type="line"/>
    </contour>
  </outline>
</glyph>
<glyph name="A.sc" format="2">
  <advance width="1084"/>
  <outline>
    <contour>
      <point x="-88" y="0" type="line"/>
      <point x="168" y="0" type="line"/>
      <point x="308" y="262" type="line"/>
      <point x="674" y="262" type="line"/>
      <point x="724" y="0" type="line"/>
      <point x="978" y="0" type="line"/>
      <point x="762" y="1162" type="line"/>
      <point x="538" y="1162" type="line"/>
    </contour>
    <contour>
      <point x="436" y="502" type="line"/>
      <point x="578" y="764" type="line"/>
      <point x="630" y="502" type="line"/>
    </contour>
  </outline>
</glyph>
<glyph name="AE.sc" format="2">
  <advance width="1496"/>
  <outline>
    <contour>
      <point x="-114" y="0" type="line"/>
      <point x="146" y="0" type="line"/>
      <point x="324" y="270" type="line"/>
      <point x="634" y="270" type="line"/>
      <point x="586" y="0" type="line"/>
      <point x="1328" y="0" type="line"/>
      <point x="1370" y="240" type="line"/>
      <point x="868" y="240" type="line"/>
      <point x="910" y="486" type="line"/>
      <point x="1286" y="486" type="line"/>
      <point x="1328" y="724" type="line"/>
      <point x="952" y="724" type="line"/>
      <point x="988" y="922" type="line"/>
      <point x="1476" y="922" type="line"/>
      <point x="1518" y="1162" type="line"/>
      <point x="670" y="1162" type="line"/>
    </contour>
    <contour>
      <point x="478" y="506" type="line"/>
      <point x="748" y="918" type="line"/>
      <point x="676" y="506" type="line"/>
    </contour>
  </outline>
</glyph>
<glyph name="E.sc" format="2">
  <advance width="1004"/>
  <outline>
    <contour>
      <point x="40" y="0" type="line"/>
      <point x="836" y="0" type="line"/>
      <point x="880" y="240" type="line"/>
      <point x="336" y="240" type="line"/>
      <point x="380" y="486" type="line"/>
      <point x="782" y="486" type="line"/>
      <point x="824" y="724" type="line"/>
      <point x="422" y="724" type="line"/>
      <point x="456" y="922" type="line"/>
      <point x="982" y="922" type="line"/>
      <point x="1024" y="1162" type="line"/>
      <point x="244" y="1162" type="line"/>
    </contour>
  </outline>
</glyph>
<glyph name="F.sc" format="2">
  <advance width="928"/>
  <outline>
    <contour>
      <point x="40" y="0" type="line"/>
      <point x="286" y="0" type="line"/>
      <point x="372" y="486" type="line"/>
      <point x="750" y="486" type="line"/>
      <point x="792" y="724" type="line"/>
      <point x="414" y="724" type="line"/>
      <point x="448" y="922" type="line"/>
      <point x="940" y="922" type="line"/>
      <point x="982" y="1162" type="line"/>
      <point x="244" y="1162" type="line"/>
    </contour>
  </outline>
</glyph>
<glyph name="I.sc" format="2">
  <advance width="534"/>
  <outline>
    <contour>
      <point x="40" y="0" type="line"/>
      <point x="286" y="0" type="line"/>
      <point x="490" y="1162" type="line"/>
      <point x="244" y="1162" type="line"/>
    </contour>
  </outline>
</glyph>
<glyph name="J.sc" format="2">
  <advance width="534"/>
  <outline>
    <contour>
      <point x="-114" y="-286" type="line"/>
      <point x="-36" y="-286" type="line" smooth="yes"/>
      <point x="120" y="-286"/>
      <point x="248" y="-208"/>
      <point x="280" y="-32" type="curve" smooth="yes"/>
      <point x="490" y="1162" type="line"/>
      <point x="244" y="1162" type="line"/>
      <point x="42" y="12" type="line" smooth="yes"/>
      <point x="30" y="-58"/>
      <point x="6" y="-90"/>
      <point x="-32" y="-90" type="curve" smooth="yes"/>
      <point x="-96" y="-90" type="line"/>
    </contour>
  </outline>
</glyph>
<glyph name="L.sc" format="2">
  <advance width="872"/>
  <outline>
    <contour>
      <point x="40" y="0" type="line"/>
      <point x="746" y="0" type="line"/>
      <point x="788" y="240" type="line"/>
      <point x="328" y="240" type="line"/>
      <point x="490" y="1162" type="line"/>
      <point x="244" y="1162" type="line"/>
    </contour>
  </outline>
</glyph>
<glyph name="N.sc" format="2">
  <advance width="1236"/>
  <outline>
    <contour>
      <point x="40" y="0" type="line"/>
      <point x="286" y="0" type="line"/>
      <point x="414" y="732" type="line"/>
      <point x="788" y="0" type="line"/>
      <point x="988" y="0" type="line"/>
      <point x="1194" y="1162" type="line"/>
      <point x="948" y="1162" type="line"/>
      <point x="828" y="476" type="line"/>
      <point x="478" y="1162" type="line"/>
      <point x="244" y="1162" type="line"/>
    </contour>
  </outline>
</glyph>
<glyph name="O.sc" format="2">
  <advance width="1324"/>
  <outline>
    <contour>
      <point x="554" y="-24" type="curve"/>
      <point x="940" y="-24"/>
      <point x="1258" y="272"/>
      <point x="1258" y="688" type="curve" smooth="yes"/>
      <point x="1258" y="986"/>
      <point x="1066" y="1186"/>
      <point x="768" y="1186" type="curve" smooth="yes"/>
      <point x="382" y="1186"/>
      <point x="62" y="892"/>
      <point x="62" y="476" type="curve" smooth="yes"/>
      <point x="62" y="176"/>
      <point x="256" y="-24"/>
    </contour>
    <contour>
      <point x="596" y="214" type="curve" smooth="yes"/>
      <point x="420" y="214"/>
      <point x="334" y="328"/>
      <point x="334" y="500" type="curve" smooth="yes"/>
      <point x="334" y="750"/>
      <point x="474" y="948"/>
      <point x="726" y="948" type="curve"/>
      <point x="902" y="948"/>
      <point x="986" y="834"/>
      <point x="986" y="664" type="curve" smooth="yes"/>
      <point x="986" y="414"/>
      <point x="850" y="214"/>
    </contour>
  </outline>
</glyph>
<glyph name="OE.sc" format="2">
  <advance width="1828"/>
  <outline>
    <contour>
      <point x="560" y="-24" type="curve" smooth="yes"/>
      <point x="698" y="-24"/>
      <point x="832" y="18"/>
      <point x="910" y="66" type="curve"/>
      <point x="898" y="0" type="line"/>
      <point x="1660" y="0" type="line"/>
      <point x="1702" y="240" type="line"/>
      <point x="1196" y="240" type="line"/>
      <point x="1240" y="486" type="line"/>
      <point x="1618" y="486" type="line"/>
      <point x="1660" y="724" type="line"/>
      <point x="1282" y="724" type="line"/>
      <point x="1316" y="922" type="line"/>
      <point x="1808" y="922" type="line"/>
      <point x="1850" y="1162" type="line"/>
      <point x="1102" y="1162" type="line"/>
      <point x="1090" y="1096" type="line"/>
      <point x="1030" y="1144"/>
      <point x="912" y="1186"/>
      <point x="772" y="1186" type="curve" smooth="yes"/>
      <point x="384" y="1186"/>
      <point x="62" y="892"/>
      <point x="62" y="478" type="curve" smooth="yes"/>
      <point x="62" y="176"/>
      <point x="258" y="-24"/>
    </contour>
    <contour>
      <point x="602" y="214" type="curve" smooth="yes"/>
      <point x="424" y="214"/>
      <point x="336" y="330"/>
      <point x="336" y="502" type="curve" smooth="yes"/>
      <point x="336" y="750"/>
      <point x="480" y="948"/>
      <point x="730" y="948" type="curve"/>
      <point x="908" y="948"/>
      <point x="996" y="830"/>
      <point x="996" y="660" type="curve" smooth="yes"/>
      <point x="996" y="412"/>
      <point x="852" y="214"/>
    </contour>
  </outline>
</glyph>
<glyph name="R.sc" format="2">
  <advance width="1118"/>
  <outline>
    <contour>
      <point x="40" y="0" type="line"/>
      <point x="282" y="0" type="line"/>
      <point x="356" y="420" type="line"/>
      <point x="562" y="420" type="line"/>
      <point x="726" y="0" type="line"/>
      <point x="978" y="0" type="line"/>
      <point x="798" y="484" type="line"/>
      <point x="938" y="572"/>
      <point x="1060" y="656"/>
      <point x="1060" y="890" type="curve" smooth="yes"/>
      <point x="1060" y="1090"/>
      <point x="902" y="1162"/>
      <point x="706" y="1162" type="curve" smooth="yes"/>
      <point x="244" y="1162" type="line"/>
    </contour>
    <contour>
      <point x="396" y="644" type="line"/>
      <point x="452" y="958" type="line"/>
      <point x="596" y="958" type="line" smooth="yes"/>
      <point x="758" y="958"/>
      <point x="798" y="914"/>
      <point x="798" y="846" type="curve" smooth="yes"/>
      <point x="798" y="734"/>
      <point x="758" y="644"/>
      <point x="506" y="644" type="curve" smooth="yes"/>
    </contour>
  </outline>
</glyph>
<glyph name="U.sc" format="2">
  <advance width="1242"/>
  <outline>
    <contour>
      <point x="512" y="-24" type="curve"/>
      <point x="848" y="-24"/>
      <point x="1044" y="188"/>
      <point x="1098" y="500" type="curve" smooth="yes"/>
      <point x="1214" y="1162" type="line"/>
      <point x="968" y="1162" type="line"/>
      <point x="864" y="570" type="line" smooth="yes"/>
      <point x="826" y="360"/>
      <point x="758" y="214"/>
      <point x="554" y="214" type="curve" smooth="yes"/>
      <point x="406" y="214"/>
      <point x="356" y="294"/>
      <point x="354" y="418" type="curve" smooth="yes"/>
      <point x="354" y="464"/>
      <point x="360" y="514"/>
      <point x="370" y="570" type="curve" smooth="yes"/>
      <point x="474" y="1162" type="line"/>
      <point x="230" y="1162" type="line"/>
      <point x="114" y="500" type="line" smooth="yes"/>
      <point x="106" y="450"/>
      <point x="102" y="400"/>
      <point x="102" y="356" type="curve" smooth="yes"/>
      <point x="104" y="124"/>
      <point x="232" y="-24"/>
    </contour>
  </outline>
</glyph>
<glyph name="W.sc" format="2">
  <advance width="1670"/>
  <outline>
    <contour>
      <point x="268" y="0" type="line"/>
      <point x="486" y="0" type="line"/>
      <point x="856" y="680" type="line"/>
      <point x="994" y="0" type="line"/>
      <point x="1192" y="0" type="line"/>
      <point x="1744" y="1162" type="line"/>
      <point x="1492" y="1162" type="line"/>
      <point x="1154" y="454" type="line"/>
      <point x="1018" y="1174" type="line"/>
      <point x="866" y="1174" type="line"/>
      <point x="484" y="422" type="line"/>
      <point x="392" y="1162" type="line"/>
      <point x="136" y="1162" type="line"/>
    </contour>
  </outline>
</glyph>
<glyph name="X.sc" format="2">
  <advance width="1126"/>
  <outline>
    <contour>
      <point x="-96" y="0" type="line"/>
      <point x="194" y="0" type="line"/>
      <point x="530" y="400" type="line"/>
      <point x="720" y="0" type="line"/>
      <point x="1014" y="0" type="line"/>
      <point x="710" y="604" type="line"/>
      <point x="1182" y="1162" type="line"/>
      <point x="892" y="1162" type="line"/>
      <point x="612" y="778" type="line"/>
      <point x="422" y="1162" type="line"/>
      <point x="136" y="1162" type="line"/>
      <point x="436" y="580" type="line"/>
    </contour>
  </outline>
</glyph>
<glyph name="Y.sc" format="2">
  <advance width="1080"/>
  <outline>
    <contour>
      <point x="310" y="0" type="line"/>
      <point x="550" y="0" type="line"/>
      <point x="638" y="502" type="line"/>
      <point x="1172" y="1162" type="line"/>
      <point x="910" y="1162" type="line"/>
      <point x="558" y="718" type="line"/>
      <point x="360" y="1162" type="line"/>
      <point x="98" y="1162" type="line"/>
      <point x="398" y="502" type="line"/>
    </contour>
  </outline>
</glyph>
<glyph name="acutecomb.case" format="2">
  <anchor x="-42" y="980" name="_top"/>
  <anchor x="28" y="1344" name="top"/>
  <outline>
    <contour>
      <point x="-196" y="1098" type="line"/>
      <point x="178" y="1214" type="line"/>
      <point x="214" y="1438" type="line"/>
      <point x="-172" y="1248" type="line"/>
    </contour>
  </outline>
</glyph>
<glyph name="at.ss01" format="2">
  <advance width="2110"/>
  <outline>
    <contour>
      <point x="926" y="-458" type="curve" smooth="yes"/>
      <point x="1062" y="-458"/>
      <point x="1186" y="-444"/>
      <point x="1302" y="-410" type="curve"/>
      <point x="1342" y="-200" type="line"/>
      <point x="1212" y="-238"/>
      <point x="1098" y="-254"/>
      <point x="946" y="-254" type="curve" smooth="yes"/>
      <point x="566" y="-254"/>
      <point x="318" y="-2"/>
      <point x="318" y="358" type="curve" smooth="yes"/>
      <point x="318" y="834"/>
      <point x="696" y="1236"/>
      <point x="1220" y="1236" type="curve" smooth="yes"/>
      <point x="1580" y="1236"/>
      <point x="1774" y="1060"/>
      <point x="1774" y="780" type="curve" smooth="yes"/>
      <point x="1774" y="550"/>
      <point x="1648" y="184"/>
      <point x="1456" y="184" type="curve" smooth="yes"/>
      <point x="1400" y="184"/>
      <point x="1378" y="212"/>
      <point x="1388" y="268" type="curve" smooth="yes"/>
      <point x="1392" y="286"/>
      <point x="1398" y="314"/>
      <point x="1410" y="346" type="curve" smooth="yes"/>
      <point x="1638" y="1000" type="line"/>
      <point x="1410" y="1000" type="line"/>
      <point x="1372" y="950" type="line"/>
      <point x="1330" y="988"/>
      <point x="1268" y="1016"/>
      <point x="1164" y="1016" type="curve" smooth="yes"/>
      <point x="810" y="1016"/>
      <point x="506" y="668"/>
      <point x="506" y="306" type="curve" smooth="yes"/>
      <point x="506" y="114"/>
      <point x="614" y="-20"/>
      <point x="804" y="-20" type="curve" smooth="yes"/>
      <point x="926" y="-20"/>
      <point x="1026" y="10"/>
      <point x="1136" y="106" type="curve"/>
      <point x="1172" y="24"/>
      <point x="1232" y="-28"/>
      <point x="1356" y="-28" type="curve" smooth="yes"/>
      <point x="1740" y="-28"/>
      <point x="2010" y="344"/>
      <point x="2010" y="802" type="curve" smooth="yes"/>
      <point x="2010" y="1158"/>
      <point x="1742" y="1440"/>
      <point x="1274" y="1440" type="curve" smooth="yes"/>
      <point x="600" y="1440"/>
      <point x="80" y="936"/>
      <point x="80" y="322" type="curve" smooth="yes"/>
      <point x="82" y="-128"/>
      <point x="434" y="-458"/>
    </contour>
    <contour>
      <point x="918" y="184" type="curve" smooth="yes"/>
      <point x="814" y="184"/>
      <point x="772" y="252"/>
      <point x="770" y="354" type="curve" smooth="yes"/>
      <point x="770" y="570"/>
      <point x="912" y="812"/>
      <point x="1114" y="812" type="curve" smooth="yes"/>
      <point x="1206" y="812"/>
      <point x="1256" y="766"/>
      <point x="1256" y="658" type="curve" smooth="yes"/>
      <point x="1256" y="436"/>
      <point x="1130" y="184"/>
    </contour>
  </outline>
</glyph>
<glyph name="brevecomb.case" format="2">
  <anchor x="-46" y="1000" name="_top"/>
  <anchor x="46" y="1354" name="top"/>
  <outline>
    <contour>
      <point x="-22" y="1130" type="curve" smooth="yes"/>
      <point x="170" y="1130"/>
      <point x="306" y="1236"/>
      <point x="332" y="1394" type="curve"/>
      <point x="158" y="1394" type="line"/>
      <point x="144" y="1312"/>
      <point x="82" y="1266"/>
      <point x="0" y="1266" type="curve" smooth="yes"/>
      <point x="-72" y="1266"/>
      <point x="-118" y="1300"/>
      <point x="-118" y="1362" type="curve" smooth="yes"/>
      <point x="-118" y="1374"/>
      <point x="-116" y="1386"/>
      <point x="-114" y="1394" type="curve"/>
      <point x="-284" y="1394" type="line"/>
      <point x="-286" y="1378"/>
      <point x="-288" y="1362"/>
      <point x="-288" y="1348" type="curve" smooth="yes"/>
      <point x="-288" y="1226"/>
      <point x="-192" y="1130"/>
    </contour>
  </outline>
</glyph>
<glyph name="brevecomb_gravecomb" format="2">
  <anchor x="-44" y="1000" name="_top"/>
  <anchor x="44" y="1500" name="top"/>
  <outline>
    <contour>
      <point x="-22" y="1130" type="curve" smooth="yes"/>
      <point x="170" y="1130"/>
      <point x="306" y="1236"/>
      <point x="332" y="1394" type="curve"/>
      <point x="158" y="1394" type="line"/>
      <point x="144" y="1312"/>
      <point x="82" y="1266"/>
      <point x="0" y="1266" type="curve" smooth="yes"/>
      <point x="-72" y="1266"/>
      <point x="-118" y="1300"/>
      <point x="-118" y="1362" type="curve" smooth="yes"/>
      <point x="-118" y="1374"/>
      <point x="-116" y="1386"/>
      <point x="-114" y="1394" type="curve"/>
      <point x="-284" y="1394" type="line"/>
      <point x="-286" y="1378"/>
      <point x="-288" y="1362"/>
      <point x="-288" y="1348" type="curve" smooth="yes"/>
      <point x="-288" y="1226"/>
      <point x="-192" y="1130"/>
    </contour>
    <contour>
      <point x="252" y="1472" type="line"/>
      <point x="280" y="1610" type="line"/>
      <point x="-62" y="1800" type="line"/>
      <point x="-102" y="1588" type="line"/>
    </contour>
  </outline>
</glyph>
<glyph name="brevecomb_hookabovecomb" format="2">
  <anchor x="-60" y="980" name="_top"/>
  <anchor x="58" y="1644" name="top"/>
  <outline>
    <contour>
      <point x="-2" y="1130" type="curve" smooth="yes"/>
      <point x="190" y="1130"/>
      <point x="326" y="1236"/>
      <point x="352" y="1394" type="curve"/>
      <point x="178" y="1394" type="line"/>
      <point x="164" y="1312"/>
      <point x="102" y="1266"/>
      <point x="20" y="1266" type="curve" smooth="yes"/>
      <point x="-52" y="1266"/>
      <point x="-98" y="1300"/>
      <point x="-98" y="1362" type="curve" smooth="yes"/>
      <point x="-98" y="1374"/>
      <point x="-96" y="1386"/>
      <point x="-94" y="1394" type="curve"/>
      <point x="-264" y="1394" type="line"/>
      <point x="-266" y="1378"/>
      <point x="-268" y="1362"/>
      <point x="-268" y="1348" type="curve" smooth="yes"/>
      <point x="-268" y="1226"/>
      <point x="-172" y="1130"/>
    </contour>
    <contour>
      <point x="64" y="1424" type="line"/>
      <point x="202" y="1458"/>
      <point x="278" y="1522"/>
      <point x="278" y="1622" type="curve" smooth="yes"/>
      <point x="278" y="1710"/>
      <point x="206" y="1758"/>
      <point x="106" y="1758" type="curve" smooth="yes"/>
      <point x="48" y="1758"/>
      <point x="-8" y="1746"/>
      <point x="-60" y="1726" type="curve"/>
      <point x="-46" y="1604" type="line"/>
      <point x="-4" y="1622"/>
      <point x="40" y="1636"/>
      <point x="80" y="1636" type="curve" smooth="yes"/>
      <point x="120" y="1636"/>
      <point x="144" y="1620"/>
      <point x="144" y="1586" type="curve" smooth="yes"/>
      <point x="144" y="1550"/>
      <point x="118" y="1526"/>
      <point x="58" y="1512" type="curve"/>
    </contour>
  </outline>
</glyph>
<glyph name="brevecomb_tildecomb" format="2">
  <anchor x="-60" y="1000" name="_top"/>
  <anchor x="62" y="1694" name="top"/>
  <outline>
    <contour>
      <point x="-8" y="1130" type="curve" smooth="yes"/>
      <point x="184" y="1130"/>
      <point x="320" y="1236"/>
      <point x="346" y="1394" type="curve"/>
      <point x="172" y="1394" type="line"/>
      <point x="158" y="1312"/>
      <point x="96" y="1266"/>
      <point x="14" y="1266" type="curve" smooth="yes"/>
      <point x="-58" y="1266"/>
      <point x="-104" y="1300"/>
      <point x="-104" y="1362" type="curve" smooth="yes"/>
      <point x="-104" y="1374"/>
      <point x="-102" y="1386"/>
      <point x="-100" y="1394" type="curve"/>
      <point x="-270" y="1394" type="line"/>
      <point x="-272" y="1378"/>
      <point x="-274" y="1362"/>
      <point x="-274" y="1348" type="curve" smooth="yes"/>
      <point x="-274" y="1226"/>
      <point x="-178" y="1130"/>
    </contour>
    <contour>
      <point x="224" y="1492" type="curve" smooth="yes"/>
      <point x="330" y="1492"/>
      <point x="398" y="1564"/>
      <point x="420" y="1706" type="curve"/>
      <point x="268" y="1706" type="line"/>
      <point x="260" y="1660"/>
      <point x="236" y="1640"/>
      <point x="202" y="1640" type="curve" smooth="yes"/>
      <point x="130" y="1640"/>
      <point x="38" y="1716"/>
      <point x="-48" y="1716" type="curve" smooth="yes"/>
      <point x="-156" y="1716"/>
      <point x="-222" y="1642"/>
      <point x="-248" y="1506" type="curve"/>
      <point x="-96" y="1506" type="line"/>
      <point x="-88" y="1548"/>
      <point x="-64" y="1568"/>
      <point x="-30" y="1568" type="curve" smooth="yes"/>
      <point x="42" y="1568"/>
      <point x="136" y="1492"/>
    </contour>
  </outline>
</glyph>
<glyph name="breveinvertedcomb.case" format="2">
  <anchor x="-36" y="1000" name="_top"/>
  <anchor x="34" y="1398" name="top"/>
  <outline>
    <contour>
      <point x="-310" y="1160" type="curve"/>
      <point x="-140" y="1160" type="line"/>
      <point x="-126" y="1242"/>
      <point x="-66" y="1288"/>
      <point x="16" y="1288" type="curve" smooth="yes"/>
      <point x="88" y="1288"/>
      <point x="134" y="1254"/>
      <point x="134" y="1190" type="curve" smooth="yes"/>
      <point x="134" y="1182"/>
      <point x="132" y="1170"/>
      <point x="130" y="1160" type="curve"/>
      <point x="300" y="1160" type="line"/>
      <point x="302" y="1176"/>
      <point x="304" y="1192"/>
      <point x="304" y="1208" type="curve" smooth="yes"/>
      <point x="304" y="1330"/>
      <point x="210" y="1424"/>
      <point x="40" y="1424" type="curve" smooth="yes"/>
      <point x="-148" y="1424"/>
      <point x="-284" y="1304"/>
    </contour>
  </outline>
</glyph>
<glyph name="caroncomb.case" format="2">
  <anchor x="-30" y="1000" name="_top"/>
  <anchor x="8" y="1298" name="top"/>
  <outline>
    <contour>
      <point x="-20" y="1090" type="line"/>
      <point x="226" y="1248" type="line"/>
      <point x="256" y="1418" type="line"/>
      <point x="8" y="1266" type="line"/>
      <point x="-224" y="1422" type="line"/>
      <point x="-250" y="1274" type="line"/>
    </contour>
  </outline>
</glyph>
<glyph name="circumflexcomb.case" format="2">
  <anchor x="-30" y="1000" name="_top"/>
  <anchor x="30" y="1340" name="top"/>
  <outline>
    <contour>
      <point x="250" y="1090" type="line"/>
      <point x="276" y="1238" type="line"/>
      <point x="46" y="1422" type="line"/>
      <point x="-206" y="1262" type="line"/>
      <point x="-232" y="1114" type="line"/>
      <point x="12" y="1234" type="line"/>
    </contour>
  </outline>
</glyph>
<glyph name="circumflexcomb_acutecomb" format="2">
  <anchor x="-34" y="1000" name="_top"/>
  <anchor x="52" y="1486" name="top"/>
  <outline>
    <contour>
      <point x="250" y="1110" type="line"/>
      <point x="276" y="1258" type="line"/>
      <point x="46" y="1442" type="line"/>
      <point x="-206" y="1282" type="line"/>
      <point x="-232" y="1134" type="line"/>
      <point x="12" y="1254" type="line"/>
    </contour>
    <contour>
      <point x="150" y="1412" type="line"/>
      <point x="308" y="1412" type="line"/>
      <point x="530" y="1646" type="line"/>
      <point x="300" y="1646" type="line"/>
    </contour>
  </outline>
</glyph>
<glyph name="circumflexcomb_gravecomb" format="2">
  <guideline x="6" y="627" angle="80"/>
  <anchor x="-32" y="1000" name="_top"/>
  <anchor x="98" y="1744" name="top"/>
  <outline>
    <contour>
      <point x="250" y="1110" type="line"/>
      <point x="276" y="1258" type="line"/>
      <point x="46" y="1442" type="line"/>
      <point x="-206" y="1282" type="line"/>
      <point x="-232" y="1134" type="line"/>
      <point x="12" y="1254" type="line"/>
    </contour>
    <contour>
      <point x="184" y="1412" type="line"/>
      <point x="336" y="1412" type="line"/>
      <point x="278" y="1666" type="line"/>
      <point x="64" y="1666" type="line"/>
    </contour>
  </outline>
</glyph>
<glyph name="circumflexcomb_hookabovecomb" format="2">
  <guideline x="6" y="617" angle="80"/>
  <anchor x="-30" y="1000" name="_top"/>
  <anchor x="78" y="1608" name="top"/>
  <outline>
    <contour>
      <point x="250" y="1090" type="line"/>
      <point x="276" y="1238" type="line"/>
      <point x="46" y="1422" type="line"/>
      <point x="-206" y="1262" type="line"/>
      <point x="-232" y="1114" type="line"/>
      <point x="12" y="1234" type="line"/>
    </contour>
    <contour>
      <point x="194" y="1344" type="line"/>
      <point x="332" y="1378"/>
      <point x="408" y="1442"/>
      <point x="408" y="1542" type="curve" smooth="yes"/>
      <point x="408" y="1630"/>
      <point x="336" y="1678"/>
      <point x="236" y="1678" type="curve" smooth="yes"/>
      <point x="178" y="1678"/>
      <point x="122" y="1666"/>
      <point x="70" y="1646" type="curve"/>
      <point x="84" y="1524" type="line"/>
      <point x="126" y="1542"/>
      <point x="170" y="1556"/>
      <point x="210" y="1556" type="curve" smooth="yes"/>
      <point x="250" y="1556"/>
      <point x="274" y="1540"/>
      <point x="274" y="1506" type="curve" smooth="yes"/>
      <point x="274" y="1470"/>
      <point x="248" y="1446"/>
      <point x="188" y="1432" type="curve"/>
    </contour>
  </outline>
</glyph>
<glyph name="circumflexcomb_tildecomb" format="2">
  <guideline x="6" y="617" angle="80"/>
  <anchor x="-30" y="1000" name="_top"/>
  <anchor x="80" y="1622" name="top"/>
  <outline>
    <contour>
      <point x="250" y="1090" type="line"/>
      <point x="276" y="1238" type="line"/>
      <point x="46" y="1422" type="line"/>
      <point x="-206" y="1262" type="line"/>
      <point x="-232" y="1114" type="line"/>
      <point x="12" y="1234" type="line"/>
    </contour>
    <contour>
      <point x="224" y="1474" type="curve" smooth="yes"/>
      <point x="330" y="1474"/>
      <point x="398" y="1546"/>
      <point x="420" y="1688" type="curve"/>
      <point x="268" y="1688" type="line"/>
      <point x="260" y="1642"/>
      <point x="236" y="1622"/>
      <point x="202" y="1622" type="curve" smooth="yes"/>
      <point x="130" y="1622"/>
      <point x="38" y="1698"/>
      <point x="-48" y="1698" type="curve" smooth="yes"/>
      <point x="-156" y="1698"/>
      <point x="-222" y="1624"/>
      <point x="-248" y="1488" type="curve"/>
      <point x="-96" y="1488" type="line"/>
      <point x="-88" y="1530"/>
      <point x="-64" y="1550"/>
      <point x="-30" y="1550" type="curve" smooth="yes"/>
      <point x="42" y="1550"/>
      <point x="136" y="1474"/>
    </contour>
  </outline>
</glyph>
<glyph name="dblgravecomb.case" format="2">
  <anchor x="-46" y="1000" name="_top"/>
  <anchor x="46" y="1510" name="top"/>
  <outline>
    <contour>
      <point x="-240" y="1176" type="line"/>
      <point x="-86" y="1176" type="line"/>
      <point x="-158" y="1490" type="line"/>
      <point x="-384" y="1490" type="line"/>
    </contour>
    <contour>
      <point x="50" y="1176" type="line"/>
      <point x="204" y="1176" type="line"/>
      <point x="148" y="1490" type="line"/>
      <point x="-78" y="1490" type="line"/>
    </contour>
  </outline>
</glyph>
<glyph name="dieresiscomb.case" format="2">
  <anchor x="-26" y="1000" name="_top"/>
  <anchor x="26" y="1300" name="top"/>
  <outline>
    <contour>
      <point x="104" y="1166" type="line"/>
      <point x="292" y="1166" type="line"/>
      <point x="324" y="1338" type="line"/>
      <point x="136" y="1338" type="line"/>
    </contour>
    <contour>
      <point x="-288" y="1166" type="line"/>
      <point x="-100" y="1166" type="line"/>
      <point x="-68" y="1338" type="line"/>
      <point x="-256" y="1338" type="line"/>
    </contour>
  </outline>
</glyph>
<glyph name="dotaccentcomb.case" format="2">
  <anchor x="-32" y="1000" name="_top"/>
  <anchor x="32" y="1360" name="top"/>
  <outline>
    <contour>
      <point x="-102" y="1184" type="line"/>
      <point x="102" y="1184" type="line"/>
      <point x="138" y="1378" type="line"/>
      <point x="-66" y="1378" type="line"/>
    </contour>
  </outline>
</glyph>
<glyph name="eight.dnom" format="2">
  <advance width="604"/>
  <outline>
    <contour>
      <point x="36" y="668"/>
      <point x="36" y="526" type="curve" smooth="yes"/>
      <point x="36" y="428"/>
      <point x="110" y="364"/>
      <point x="234" y="364" type="curve" smooth="yes"/>
      <point x="386" y="364"/>
      <point x="504" y="466"/>
      <point x="504" y="604" type="curve" smooth="yes"/>
      <point x="504" y="694"/>
      <point x="446" y="772"/>
      <point x="310" y="772" type="curve" smooth="yes"/>
      <point x="156" y="772"/>
    </contour>
    <contour>
      <point x="190" y="116" type="curve" smooth="yes"/>
      <point x="142" y="116"/>
      <point x="116" y="146"/>
      <point x="116" y="192" type="curve" smooth="yes"/>
      <point x="116" y="262"/>
      <point x="158" y="316"/>
      <point x="226" y="316" type="curve" smooth="yes"/>
      <point x="274" y="316"/>
      <point x="300" y="286"/>
      <point x="300" y="242" type="curve" smooth="yes"/>
      <point x="300" y="182"/>
      <point x="258" y="116"/>
    </contour>
    <contour>
      <point x="254" y="478" type="curve" smooth="yes"/>
      <point x="218" y="478"/>
      <point x="200" y="502"/>
      <point x="200" y="536" type="curve" smooth="yes"/>
      <point x="200" y="580"/>
      <point x="230" y="630"/>
      <point x="282" y="630" type="curve" smooth="yes"/>
      <point x="318" y="630"/>
      <point x="336" y="608"/>
      <point x="336" y="574" type="curve" smooth="yes"/>
      <point x="336" y="530"/>
      <point x="306" y="478"/>
    </contour>
    <contour>
      <point x="488" y="82"/>
      <point x="488" y="254" type="curve" smooth="yes"/>
      <point x="488" y="370"/>
      <point x="398" y="444"/>
      <point x="248" y="444" type="curve" smooth="yes"/>
      <point x="66" y="444"/>
      <point x="-80" y="330"/>
      <point x="-80" y="164" type="curve" smooth="yes"/>
      <point x="-80" y="48"/>
      <point x="10" y="-28"/>
      <point x="166" y="-28" type="curve" smooth="yes"/>
      <point x="344" y="-28"/>
    </contour>
  </outline>
</glyph>
<glyph name="five.dnom" format="2">
  <advance width="602"/>
  <outline>
    <contour>
      <point x="130" y="-28" type="curve" smooth="yes"/>
      <point x="318" y="-28"/>
      <point x="468" y="84"/>
      <point x="468" y="260" type="curve" smooth="yes"/>
      <point x="468" y="392"/>
      <point x="390" y="474"/>
      <point x="238" y="474" type="curve" smooth="yes"/>
      <point x="198" y="474"/>
      <point x="156" y="468"/>
      <point x="120" y="458" type="curve"/>
      <point x="168" y="418" type="line"/>
      <point x="236" y="662" type="line"/>
      <point x="158" y="570" type="line"/>
      <point x="476" y="570" type="line"/>
      <point x="522" y="744" type="line"/>
      <point x="106" y="744" type="line"/>
      <point x="-16" y="298" type="line"/>
      <point x="30" y="304"/>
      <point x="82" y="308"/>
      <point x="138" y="308" type="curve" smooth="yes"/>
      <point x="216" y="308"/>
      <point x="258" y="282"/>
      <point x="258" y="232" type="curve" smooth="yes"/>
      <point x="258" y="174"/>
      <point x="212" y="146"/>
      <point x="138" y="146" type="curve" smooth="yes"/>
      <point x="70" y="146"/>
      <point x="16" y="168"/>
      <point x="-36" y="200" type="curve"/>
      <point x="-100" y="28" type="line"/>
      <point x="-32" y="-8"/>
      <point x="40" y="-28"/>
    </contour>
  </outline>
</glyph>
<glyph name="four.dnom" format="2">
  <advance width="660"/>
  <outline>
    <contour>
      <point x="-142" y="160" type="line"/>
      <point x="266" y="160" type="line"/>
      <point x="238" y="0" type="line"/>
      <point x="408" y="0" type="line"/>
      <point x="436" y="160" type="line"/>
      <point x="534" y="160" type="line"/>
      <point x="560" y="304" type="line"/>
      <point x="462" y="304" type="line"/>
      <point x="540" y="744" type="line"/>
      <point x="378" y="744" type="line"/>
    </contour>
    <contour>
      <point x="108" y="250" type="line"/>
      <point x="408" y="590" type="line"/>
      <point x="356" y="632" type="line"/>
      <point x="292" y="304" type="line"/>
      <point x="44" y="304" type="line"/>
    </contour>
  </outline>
</glyph>
<glyph name="gravecomb.case" format="2">
  <anchor x="-44" y="980" name="_top"/>
  <anchor x="42" y="1464" name="top"/>
  <outline>
    <contour>
      <point x="162" y="1098" type="line"/>
      <point x="190" y="1236" type="line"/>
      <point x="-152" y="1426" type="line"/>
      <point x="-192" y="1214" type="line"/>
    </contour>
  </outline>
</glyph>
<glyph name="hookabovecomb.case" format="2">
  <anchor x="-38" y="1000" name="_top"/>
  <anchor x="38" y="1430" name="top"/>
  <outline>
    <contour>
      <point x="-28" y="1120" type="line"/>
      <point x="110" y="1154"/>
      <point x="186" y="1218"/>
      <point x="186" y="1318" type="curve" smooth="yes"/>
      <point x="186" y="1406"/>
      <point x="114" y="1454"/>
      <point x="14" y="1454" type="curve" smooth="yes"/>
      <point x="-44" y="1454"/>
      <point x="-100" y="1442"/>
      <point x="-152" y="1422" type="curve"/>
      <point x="-138" y="1300" type="line"/>
      <point x="-96" y="1318"/>
      <point x="-52" y="1332"/>
      <point x="-12" y="1332" type="curve" smooth="yes"/>
      <point x="28" y="1332"/>
      <point x="52" y="1316"/>
      <point x="52" y="1282" type="curve" smooth="yes"/>
      <point x="52" y="1246"/>
      <point x="26" y="1222"/>
      <point x="-34" y="1208" type="curve"/>
    </contour>
  </outline>
</glyph>
<glyph name="hungarumlautcomb.case" format="2">
  <anchor x="-46" y="1000" name="_top"/>
  <anchor x="44" y="1510" name="top"/>
  <outline>
    <contour>
      <point x="44" y="1176" type="line"/>
      <point x="202" y="1176" type="line"/>
      <point x="458" y="1490" type="line"/>
      <point x="228" y="1490" type="line"/>
    </contour>
    <contour>
      <point x="-250" y="1176" type="line"/>
      <point x="-92" y="1176" type="line"/>
      <point x="148" y="1490" type="line"/>
      <point x="-82" y="1490" type="line"/>
    </contour>
  </outline>
</glyph>
